<?xml version="1.0" standalone="no"?><!DOCTYPE svg PUBLIC "-//W3C//DTD SVG 1.1//EN" "http://www.w3.org/Graphics/SVG/1.1/DTD/svg11.dtd"><svg class="icon" width="200px" height="200.00px" viewBox="0 0 1024 1024" version="1.1" xmlns="http://www.w3.org/2000/svg"><path fill="#ffffff" d="M272.064 354.666667l137.877333 0c20.288 0 36.736-16.448 36.736-36.736l0-1.216c0-20.288-16.448-36.736-36.736-36.736l-137.877333 0c-20.288 0-36.736 16.448-36.736 36.736l0 1.216C235.328 338.218667 251.776 354.666667 272.064 354.666667zM544.704 354.666667l138.56 0c20.266667 0 36.736-16.448 36.736-36.736l0-1.216c0-20.288-16.448-36.736-36.736-36.736l-138.56 0c-20.266667 0-36.714667 16.448-36.714667 36.736l0 1.216C508.010667 338.218667 524.437333 354.666667 544.704 354.666667zM978.602667 280 830.72 280c-20.288 0-36.736 16.448-36.736 36.736l0 1.216c0 20.288 16.448 36.736 36.736 36.736l147.882667 0c20.288 0 36.736-16.448 36.736-36.736l0-1.216C1015.338667 296.448 998.890667 280 978.602667 280zM184.597333 481.344 45.397333 481.344c-20.288 0-36.736 16.448-36.736 36.736l0 1.216c0 20.288 16.448 36.736 36.736 36.736l139.2 0c20.288 0 36.736-16.448 36.736-36.736l0-1.216C221.333333 497.770667 204.885333 481.344 184.597333 481.344zM458.602667 481.344l-139.2 0c-20.288 0-36.736 16.448-36.736 36.736l0 1.216c0 20.288 16.448 36.736 36.736 36.736l139.2 0c20.288 0 36.736-16.448 36.736-36.736l0-1.216C495.338667 497.770667 478.890667 481.344 458.602667 481.344zM731.946667 481.344l-139.2 0c-20.288 0-36.736 16.448-36.736 36.736l0 1.216c0 20.288 16.448 36.736 36.736 36.736l139.2 0c20.288 0 36.736-16.448 36.736-36.736l0-1.216C768.661333 497.770667 752.234667 481.344 731.946667 481.344zM410.218667 670.677333 271.786667 670.677333c-20.138667 0-36.458667 16.32-36.458667 36.458667l0 0.426667c0 20.138667 16.32 36.458667 36.458667 36.458667l138.410667 0c20.138667 0 36.458667-16.32 36.458667-36.458667l0-0.426667C446.677333 686.976 430.336 670.677333 410.218667 670.677333zM683.541333 670.677333l-139.093333 0c-20.138667 0-36.458667 16.32-36.458667 36.458667l0 0.426667c0 20.138667 16.32 36.458667 36.458667 36.458667l139.093333 0c20.117333 0 36.458667-16.32 36.458667-36.458667l0-0.426667C720 686.976 703.658667 670.677333 683.541333 670.677333zM966.869333 670.677333l-148.416 0c-20.117333 0-36.458667 16.32-36.458667 36.458667l0 0.426667c0 20.138667 16.341333 36.458667 36.458667 36.458667l148.416 0c20.117333 0 36.458667-16.32 36.458667-36.458667l0-0.426667C1003.328 686.976 987.008 670.677333 966.869333 670.677333z" /></svg>