<?xml version="1.0" standalone="no"?><!DOCTYPE svg PUBLIC "-//W3C//DTD SVG 1.1//EN" "http://www.w3.org/Graphics/SVG/1.1/DTD/svg11.dtd"><svg class="icon" width="200px" height="200.00px" viewBox="0 0 1024 1024" version="1.1" xmlns="http://www.w3.org/2000/svg"><path fill="#ffffff" d="M511.765333 283.434667c63.125333 0 120.661333 25.514667 161.856 66.944 41.194667 41.194667 67.157333 98.752 67.157333 162.090667 0 63.125333-25.984 120.213333-67.157333 161.386667-41.194667 41.429333-98.730667 66.944-161.856 66.944-62.890667 0-120.213333-25.493333-161.621333-66.944-41.429333-41.194667-66.944-98.261333-66.944-161.386667 0-63.338667 25.493333-120.896 66.944-162.090667C391.552 308.949333 448.874667 283.434667 511.765333 283.434667L511.765333 283.434667zM331.541333 287.488 331.541333 287.488l-64.917333-65.173333c-12.522667-12.544-32.234667-12.544-44.778667 0-12.309333 12.074667-12.309333 32.256 0 44.330667l65.365333 65.365333c12.074667 12.544 32.234667 12.544 44.309333 0C344.085333 319.701333 344.085333 299.541333 331.541333 287.488L331.541333 287.488zM225.450667 480.448 225.450667 480.448c17.429333 0 31.765333 14.08 31.765333 31.552 0 17.429333-14.336 31.765333-31.765333 31.765333L133.205333 543.765333c-17.472 0-31.338667-14.336-31.338667-31.765333 0-17.472 13.845333-31.552 31.338667-31.552L225.450667 480.448 225.450667 480.448zM287.232 692.202667 287.232 692.202667l-65.365333 65.173333c-12.309333 12.544-12.309333 32.234667 0 44.778667 12.544 12.074667 32.256 12.074667 44.778667 0l64.917333-65.386667c12.330667-12.288 12.330667-32.213333 0-44.544C319.466667 679.914667 299.306667 679.914667 287.232 692.202667L287.232 692.202667zM480.213333 798.336 480.213333 798.336c0-17.237333 14.336-31.338667 31.552-31.338667 17.685333 0 31.552 14.101333 31.552 31.338667l0 92.224c0 17.237333-13.866667 31.552-31.552 31.552-17.237333 0-31.552-14.336-31.552-31.552L480.213333 798.336 480.213333 798.336zM691.989333 736.746667 691.989333 736.746667l65.365333 65.386667c12.074667 12.074667 32.256 12.074667 44.544 0 12.330667-12.544 12.330667-32.234667 0-44.778667l-65.365333-65.173333c-12.288-12.288-32.234667-12.288-44.544 0C679.893333 704.533333 679.893333 724.458667 691.989333 736.746667L691.989333 736.746667zM798.101333 543.786667 798.101333 543.786667c-17.450667 0-31.338667-14.336-31.338667-31.765333 0-17.472 13.866667-31.552 31.338667-31.552l92.202667 0c17.472 0 31.808 14.08 31.808 31.552 0 17.429333-14.336 31.765333-31.808 31.765333L798.101333 543.786667 798.101333 543.786667zM736.512 332.010667 736.512 332.010667l65.365333-65.365333c12.330667-12.074667 12.330667-32.256 0-44.330667-12.288-12.544-32.213333-12.544-44.544 0l-65.365333 65.173333c-12.074667 12.309333-12.074667 32.234667 0 44.544C704.298667 344.554667 724.224 344.554667 736.512 332.010667L736.512 332.010667zM543.338667 225.898667 543.338667 225.898667c0 17.472-13.866667 31.338667-31.552 31.338667-17.237333 0-31.552-13.845333-31.552-31.338667L480.234667 133.44c0-17.450667 14.336-31.552 31.552-31.552 17.685333 0 31.552 14.101333 31.552 31.552L543.338667 225.898667 543.338667 225.898667zM628.864 394.922667 628.864 394.922667c-29.546667-29.781333-71.189333-48.362667-117.077333-48.362667-45.461333 0-87.082667 18.581333-117.077333 48.362667-29.994667 30.250667-48.362667 71.637333-48.362667 117.546667 0 45.461333 18.346667 86.848 48.362667 116.885333 29.994667 29.952 71.616 48.789333 117.077333 48.789333 45.888 0 87.552-18.837333 117.077333-48.789333 29.994667-30.016 48.576-71.424 48.576-116.885333C677.44 466.56 658.858667 425.173333 628.864 394.922667L628.864 394.922667z" /></svg>