<?xml version="1.0" standalone="no"?><!DOCTYPE svg PUBLIC "-//W3C//DTD SVG 1.1//EN" "http://www.w3.org/Graphics/SVG/1.1/DTD/svg11.dtd"><svg class="icon" width="200px" height="200.00px" viewBox="0 0 1024 1024" version="1.1" xmlns="http://www.w3.org/2000/svg"><path fill="#ffffff" d="M415.744 251.114667c12.522667 12.522667 12.522667 32.768 0 45.290667-12.309333 12.736-32.789333 12.736-45.056 0l-66.453333-66.218667c-12.714667-12.501333-12.714667-32.981333 0-45.269333 12.309333-12.309333 32.789333-12.309333 45.077333 0L415.744 251.114667 415.744 251.114667zM323.797333 330.986667 323.797333 330.986667c-87.146667 0-166.122667 35.264-222.997333 91.946667-56.896 57.344-92.394667 136.085333-92.394667 223.253333 0 87.125333 35.52 166.336 92.394667 222.997333 56.874667 57.088 135.850667 92.373333 222.997333 92.373333l285.824 0c63.914667 0 122.410667-25.92 164.288-68.032 42.090667-42.133333 68.032-100.373333 68.032-164.757333 0-49.578667-15.466667-95.338667-41.877333-133.12 8.426667-13.866667 14.784-28.458667 19.797333-44.117333 7.509333-22.549333 11.370667-47.104 11.370667-71.701333 0-64.170667-25.962667-122.432-67.797333-164.309333l-0.448 0c-41.877333-42.304-100.373333-68.48-164.330667-68.48-42.282667 0-82.581333 11.605333-116.928 31.850667l-2.282667 1.386667c-26.837333 16.149333-50.048 37.525333-68.714667 63.04C383.189333 335.082667 353.834667 330.986667 323.797333 330.986667L323.797333 330.986667zM472.405333 367.829333 472.405333 367.829333c11.605333-12.501333 24.832-23.637333 39.829333-32.768l1.813333-0.896c25.045333-14.570667 53.717333-22.976 84.629333-22.976 46.677333 0 88.789333 18.88 119.04 49.365333l0.213333 0c30.506667 30.485333 49.173333 72.576 49.173333 119.232 0 18.197333-2.709333 35.498667-8.213333 51.904-1.344 4.970667-3.370667 9.770667-4.992 14.549333-40.042667-31.168-90.133333-49.834667-144.256-49.834667l-8.213333 0c-25.450667-46.656-62.336-86.229333-106.496-114.922667C487.658667 376.725333 480.362667 372.16 472.405333 367.829333L472.405333 367.829333zM889.962667 511.658667 889.962667 511.658667c-17.749333 0-32.341333-14.336-32.341333-31.850667 0-17.749333 14.592-32.32 32.341333-32.32l93.76 0c17.536 0 31.872 14.570667 31.872 32.32 0 17.514667-14.336 31.850667-31.872 31.850667L889.962667 511.658667 889.962667 511.658667zM827.157333 296.618667 827.157333 296.618667c-12.501333 12.501333-32.746667 12.501333-45.290667 0s-12.544-32.981333 0-45.504l66.453333-66.218667c12.501333-12.309333 32.746667-12.309333 45.248 0 12.757333 12.501333 12.757333 32.768 0 45.269333L827.157333 296.618667 827.157333 296.618667zM630.784 188.992 630.784 188.992c0 17.28-14.336 31.381333-32.128 31.381333-17.493333 0-31.829333-14.101333-31.829333-31.381333L566.826667 94.784c0-17.770667 14.336-32.32 31.829333-32.32 17.792 0 32.128 14.570667 32.128 32.32L630.784 188.992 630.784 188.992zM459.882667 435.2 459.882667 435.2c40.96 25.941333 73.301333 63.701333 93.077333 107.882667 6.122667 13.418667 20.245333 20.714667 33.664 18.88 3.413333-0.213333 7.509333-0.704 11.370667-1.130667 2.965333 0 7.082667-0.448 11.626667-0.448 46.421333 0 88.746667 19.093333 118.997333 49.578667 30.698667 30.293333 49.365333 72.576 49.365333 118.784 0 46.677333-18.666667 89.216-49.365333 119.466667-30.250667 30.250667-72.576 49.173333-118.997333 49.173333L323.797333 897.386667c-69.162667 0-131.989333-28.010667-177.493333-73.493333-45.738667-45.546667-73.962667-108.330667-73.962667-177.706667 0-68.949333 28.224-132.224 73.962667-177.301333 45.504-45.952 108.330667-73.962667 177.493333-73.962667C374.122667 394.922667 421.205333 409.706667 459.882667 435.2L459.882667 435.2z" /></svg>