<?xml version="1.0" standalone="no"?><!DOCTYPE svg PUBLIC "-//W3C//DTD SVG 1.1//EN" "http://www.w3.org/Graphics/SVG/1.1/DTD/svg11.dtd"><svg class="icon" width="200px" height="200.00px" viewBox="0 0 1024 1024" version="1.1" xmlns="http://www.w3.org/2000/svg"><path fill="#ffffff" d="M786.581333 762.218667l1.002667 0c30.698667-0.277333 58.453333-12.757333 78.698667-32.981333l0 0c20.202667-20.501333 32.704-48.469333 32.704-79.445333 0-27.733333-9.749333-52.970667-26.005333-72.96-17.002667-19.498667-40.448-33.493333-67.413333-37.952-17.002667-3.029333-28.992-18.026667-28.992-34.752 0-66.965333-27.008-127.658667-70.954667-171.114667-43.968-43.989333-104.426667-71.189333-171.370667-71.189333-49.472 0-95.189333 14.485333-133.44 39.68-39.210667 26.005333-70.442667 63.232-89.429333 106.944-5.504 12.992-17.984 20.970667-31.466667 21.226667-43.242667 2.752-81.962667 22.250667-110.186667 52.224-27.733333 29.461333-45.205333 69.717333-45.205333 113.92 0 45.952 18.986667 87.68 48.96 117.674667l0 0 0 0c29.973333 29.994667 71.936 48.725333 117.44 48.725333L786.581333 762.218667 786.581333 762.218667zM916.010667 778.944 916.010667 778.944c-33.002667 33.237333-78.464 53.205333-128.426667 53.717333l-1.002667 0L290.922667 832.661333c-64.981333 0-124.437333-26.453333-167.402667-69.44l0.469333 0c-43.2-42.986667-69.461333-102.442667-69.461333-167.402667 0-62.698667 24.256-119.914667 63.957333-162.389333 36.010667-37.461333 83.968-63.701333 137.408-71.445333 24.469333-48.469333 61.482667-89.450667 106.666667-118.933333 49.237333-32.704 108.693333-51.690667 171.669333-51.690667 86.165333 0 164.373333 35.221333 220.842667 91.690667 50.709333 50.432 84.458667 118.165333 90.453333 193.856 31.957333 10.986667 59.968 29.994667 80.704 55.210667 27.2 31.722667 43.2 72.938667 43.2 117.696C969.450667 700.224 948.714667 746.218667 916.010667 778.944L916.010667 778.944 916.010667 778.944z" /></svg>