<?xml version="1.0" standalone="no"?><!DOCTYPE svg PUBLIC "-//W3C//DTD SVG 1.1//EN" "http://www.w3.org/Graphics/SVG/1.1/DTD/svg11.dtd"><svg class="icon" width="200px" height="200.00px" viewBox="0 0 1024 1024" version="1.1" xmlns="http://www.w3.org/2000/svg"><path fill="#ffffff" d="M158.037333 624.085333c-11.008 0-20.096 10.922667-20.096 25.130667 0 13.546667 9.088 24.789333 20.096 24.789333l667.328 0c11.050667 0 19.882667-11.242667 19.882667-24.789333 0-14.208-8.832-25.130667-19.882667-25.130667L158.037333 624.085333zM165.12 474.325333c0-33.578667 6.250667-65.365333 18.346667-94.933333 12.544-29.546667 30.890667-56.853333 53.738667-80.149333 23.274667-22.613333 50.154667-41.194667 80.149333-53.738667 29.098667-11.861333 61.333333-18.581333 94.912-18.581333 24.64 0 48.810667 3.797333 70.741333 10.517333 23.296 6.954667 45.226667 17.237333 64.938667 30.442667l1.557333 0.896c19.029333 12.522667 36.032 27.754667 50.816 45.226667l0.448 0.661333c14.741333 17.706667 27.285333 37.162667 37.162667 58.218667 5.354667 13.205333 18.794667 20.16 32.213333 18.602667l5.397333-0.896 6.72-0.448 1.088 0 4.501333-0.234667 0.448 0 4.693333-0.213333 0 0.213333c22.634667 0 44.117333 4.501333 63.594667 12.778667l1.322667 0.448c19.733333 8.064 37.418667 20.608 52.416 35.157333l0 0.213333 0.448 0.448c15.232 15.232 27.328 33.130667 35.84 53.290667 5.354667 13.354667 9.109333 27.669333 11.029333 42.56l63.232 0c-2.048-23.445333-7.445333-45.76-16.277333-66.730667l-0.234667 0c-11.648-27.733333-28.437333-53.034667-49.472-74.090667-20.608-20.586667-44.992-37.397333-72.298667-48.810667l-2.026667-0.661333c-26.88-11.178667-56.64-17.472-87.552-17.472l-7.594667 0c-10.282667-19.029333-23.061333-36.693333-36.693333-53.269333l-0.448-0.448c-18.368-21.482667-40.085333-40.96-64.042667-56.853333l-1.344-0.896c-25.088-16.576-52.373333-29.781333-81.941333-38.506667-28.202667-8.512-57.749333-12.970667-88.661333-12.970667-42.090667 0-81.92 8.512-118.634667 23.722667-38.08 15.68-72.554667 38.72-100.757333 67.157333-28.650667 28.202667-51.712 62.677333-67.605333 100.736-14.784 36.736-23.296 76.8-23.296 118.656 0 20.586667 2.112 40.832 6.037333 60.458667L172.586667 534.826667C167.829333 515.477333 165.12 495.274667 165.12 474.325333zM929.002667 721.450667 261.888 721.450667c-11.242667 0-20.096 11.008-20.096 24 0 12.949333 8.853333 23.658667 20.096 23.658667l0-0.042667 459.008 0.021333c7.488 7.274667 18.346667 10.816 29.44 7.893333 8.234667-2.048 16.170667-4.842667 23.978667-7.872l154.688 0c11.242667 0 20.586667-10.709333 20.586667-23.658667C949.589333 732.458667 940.245333 721.450667 929.002667 721.450667zM825.365333 810.048 158.037333 810.048c-11.008 0-20.096 10.922667-20.096 25.130667 0 13.546667 9.088 24.789333 20.096 24.789333l667.328 0c11.050667 0 19.882667-11.242667 19.882667-24.789333C845.248 820.949333 836.416 810.048 825.365333 810.048z" /></svg>