<?xml version="1.0" standalone="no"?><!DOCTYPE svg PUBLIC "-//W3C//DTD SVG 1.1//EN" "http://www.w3.org/Graphics/SVG/1.1/DTD/svg11.dtd"><svg class="icon" width="200px" height="200.00px" viewBox="0 0 1024 1024" version="1.1" xmlns="http://www.w3.org/2000/svg"><path fill="#ffffff" d="M825.578667 354.346667c-24.170667-99.285333-112.704-170.389333-216.021333-170.389333-105.984 0-195.882667 73.792-217.344 175.765333-64.405333 14.741333-116.736 63.061333-135.509333 127.466667l0 1.344c-1.344 5.376 0 8.064 5.354667 8.064l53.696 0c4.010667 0 5.354667-1.344 8.042667-5.376 16.106667-40.256 53.674667-68.416 97.941333-72.448l20.117333-2.666667c5.376 0 6.698667-1.344 6.698667-6.698667l2.688-18.794667c8.042667-81.856 76.48-142.229333 158.314667-142.229333 81.856 0 148.928 60.373333 158.314667 140.885333l2.688 21.461333c0 4.010667 2.688 6.698667 6.698667 6.698667l60.373333 0c67.093333 0 122.112 54.997333 122.112 122.090667 0 65.749333-55.018667 120.746667-122.112 120.746667L580.032 660.266667c-4.010667 0-6.698667 2.688-6.698667 6.698667l0 49.642667c0 4.010667 2.688 6.698667 6.698667 6.698667l257.6 0c101.973333 0 185.152-81.834667 185.152-183.808 0-101.952-83.157333-185.152-185.152-185.152L825.578667 354.346667zM131.349333 610.624c-17.450667 0-32.213333-14.762667-32.213333-32.213333s14.741333-30.848 32.213333-30.848l468.821333 0c17.450667 0 30.869333 13.418667 30.869333 30.848s-13.418667 32.213333-30.869333 32.213333L131.349333 610.624zM33.386667 723.306667c-17.429333 0-32.192-13.418667-32.192-30.848 0-18.794667 14.741333-32.213333 32.192-32.213333l468.842667 0c17.429333 0 30.848 13.418667 30.848 32.213333 0 17.429333-13.418667 30.848-30.848 30.848L33.386667 723.306667zM197.077333 840.042667c-17.429333 0-32.192-14.741333-32.192-32.192 0-17.450667 14.741333-30.869333 32.192-30.869333l468.842667 0c17.429333 0 32.213333 13.418667 32.213333 30.869333 0 17.429333-14.762667 32.192-32.213333 32.192L197.077333 840.042667z" /></svg>