<?xml version="1.0" standalone="no"?><!DOCTYPE svg PUBLIC "-//W3C//DTD SVG 1.1//EN" "http://www.w3.org/Graphics/SVG/1.1/DTD/svg11.dtd"><svg class="icon" width="200px" height="200.00px" viewBox="0 0 1024 1024" version="1.1" xmlns="http://www.w3.org/2000/svg"><path fill="#ffffff" d="M511.424 239.722667c23.786667 0 43.114667 19.157333 43.114667 42.816s-19.306667 42.837333-43.114667 42.837333-43.114667-19.178667-43.114667-42.837333S487.616 239.722667 511.424 239.722667zM295.914667 196.885333c23.808 0 43.114667 19.178667 43.114667 42.837333 0 23.637333-19.306667 42.816-43.114667 42.816-23.786667 0-43.093333-19.178667-43.093333-42.816C252.821333 216.064 272.128 196.885333 295.914667 196.885333zM726.912 196.885333c23.786667 0 43.093333 19.178667 43.093333 42.837333 0 23.637333-19.285333 42.816-43.093333 42.816-23.808 0-43.114667-19.178667-43.114667-42.816C683.818667 216.064 703.104 196.885333 726.912 196.885333zM511.424 710.890667c23.786667 0 43.114667 19.157333 43.114667 42.837333 0 23.637333-19.306667 42.837333-43.114667 42.837333s-43.114667-19.178667-43.114667-42.837333C468.309333 730.069333 487.616 710.890667 511.424 710.890667zM295.914667 753.728c23.808 0 43.114667 19.178667 43.114667 42.837333s-19.306667 42.816-43.114667 42.816c-23.786667 0-43.093333-19.157333-43.093333-42.816S272.128 753.728 295.914667 753.728zM726.912 753.728c23.786667 0 43.093333 19.178667 43.093333 42.837333s-19.285333 42.816-43.093333 42.816c-23.808 0-43.114667-19.157333-43.114667-42.816S703.104 753.728 726.912 753.728zM317.461333 346.794667c-119.018667 0-215.488 76.714667-215.488 171.328 0 94.634667 96.469333 171.349333 215.488 171.349333 119.018667 0 215.488-76.714667 215.488-171.349333C532.949333 423.530667 436.48 346.794667 317.461333 346.794667zM317.461333 624.810667c-82.453333 0-149.333333-47.744-149.333333-106.666667 0-58.88 66.858667-106.645333 149.333333-106.645333 82.496 0 149.333333 47.765333 149.333333 106.645333C466.794667 577.066667 399.957333 624.810667 317.461333 624.810667zM705.365333 346.794667c-119.04 0-215.509333 76.714667-215.509333 171.328 0 94.634667 96.448 171.349333 215.509333 171.349333 118.997333 0 215.488-76.714667 215.488-171.349333C920.853333 423.530667 824.384 346.794667 705.365333 346.794667zM710.784 624.832c-82.453333 0-149.333333-47.744-149.333333-106.688 0-58.88 66.88-106.645333 149.333333-106.645333 82.496 0 149.333333 47.765333 149.333333 106.645333C860.117333 577.088 793.301333 624.832 710.784 624.832z" /></svg>