<?xml version="1.0" standalone="no"?><!DOCTYPE svg PUBLIC "-//W3C//DTD SVG 1.1//EN" "http://www.w3.org/Graphics/SVG/1.1/DTD/svg11.dtd"><svg class="icon" width="200px" height="200.00px" viewBox="0 0 1024 1024" version="1.1" xmlns="http://www.w3.org/2000/svg"><path fill="#ffffff" d="M384.085333 664.554667l60.224-16.128 44.565333-76.821333c5.141333-9.173333 16.554667-12.544 25.749333-7.146667 9.173333 5.354667 12.074667 17.002667 6.912 25.941333l-44.757333 77.034667 16.106667 60.416c2.709333 9.856-3.114667 20.138667-12.970667 22.848l-68.032 17.92c-10.090667 2.901333-20.608-3.136-22.826667-13.205333l-18.368-67.84C367.978667 677.781333 373.802667 667.029333 384.085333 664.554667L384.085333 664.554667zM347.392 571.648 347.392 571.648l-81.493333 140.842667-60.010667 16.362667c-10.282667 2.218667-16.106667 12.970667-13.44 23.04l18.346667 67.84c2.453333 9.856 12.970667 16.149333 22.826667 13.226667l67.605333-18.133333c10.069333-2.709333 16.128-12.992 13.888-22.848l-16.576-60.437333 81.493333-141.034667c5.141333-8.96 2.218667-20.608-6.72-25.962667C364.16 559.104 352.746667 562.474667 347.392 571.648L347.392 571.648zM237.717333 605.888 237.717333 605.888c-23.317333-22.634667-41.664-49.962667-54.208-80.170667l0 0 0 0c-12.074667-28.864-18.56-61.098667-18.56-94.677333 0-33.578667 6.485333-65.365333 18.56-94.464l0.896-1.344c12.544-29.781333 30.464-56.426667 53.312-78.805333 22.378667-22.826667 50.133333-41.429333 80.149333-53.952l1.322667-0.448c28.458667-11.413333 60.010667-18.133333 92.906667-18.133333 24.853333 0 48.554667 3.562667 71.168 10.282667 23.530667 7.168 44.970667 17.472 64.704 30.442667 19.946667 12.992 37.418667 28.650667 52.629333 46.122667l0 0.448 0 0c14.997333 17.237333 27.541333 37.589333 37.162667 59.114667 5.802667 12.522667 19.050667 19.690667 32.448 17.898667l6.016-0.661333 6.037333-0.448 1.344 0 4.224-0.234667 0.704 0 4.458667 0 0 0c22.805333 0 44.330667 4.48 63.552 12.309333 20.138667 8.298667 38.272 20.842667 53.738667 36.053333 15.466667 15.658667 27.797333 33.792 36.288 53.717333 7.808 19.242667 12.266667 40.746667 12.266667 63.594667 0 22.613333-4.458667 44.074667-12.266667 63.552-8.490667 19.968-20.864 38.506667-36.288 53.76-12.949333 12.970667-27.754667 23.701333-44.330667 31.338667l0 0.448 0-0.448c-15.637333 8.32-33.130667 13.674667-51.669333 15.914667-17.045333 2.453333-29.376 18.133333-27.328 35.114667 2.453333 17.258667 18.133333 29.312 35.114667 27.114667 25.514667-3.114667 49.962667-10.517333 71.850667-21.525333l0 0c22.826667-10.986667 43.690667-26.218667 61.12-43.178667 20.821333-21.248 37.632-46.570667 49.706667-74.752 11.136-26.901333 17.429333-56.874667 17.429333-87.338667 0-30.912-6.293333-60.458667-17.429333-87.317333-12.074667-28.437333-28.885333-53.717333-49.706667-74.325333-21.034667-21.034667-46.122667-38.506667-74.304-49.706667-27.285333-11.413333-56.832-17.472-87.744-17.472l0 0-0.448 0-5.376 0.234667-2.218667 0c-9.834667-19.029333-22.378667-37.397333-36.736-53.952l0 0.213333c-18.816-22.613333-41.194667-42.069333-65.344-58.197333-25.045333-16.32-52.373333-29.312-81.92-38.058667-28.202667-8.277333-57.770667-13.205333-88.874667-13.205333-41.216 0-80.810667 8.277333-117.077333 23.082667l-1.344 0.661333c-38.058667 15.68-72.106667 38.506667-100.949333 67.178667-27.754667 27.989333-50.389333 61.546667-66.517333 98.944l-0.448 1.792c-15.68 36.714667-23.957333 77.013333-23.957333 118.656 0 41.856 8.277333 82.389333 23.957333 118.656l0 0c15.637333 38.549333 38.485333 72.341333 66.944 100.778667 12.309333 12.522667 32.448 12.522667 44.992 0C249.792 638.122667 249.792 618.197333 237.717333 605.888L237.717333 605.888zM265.002667 752.085333 265.002667 752.085333l8.490667 31.125333-31.338667 8.32-8.064-30.912L265.002667 752.085333 265.002667 752.085333zM443.178667 687.829333 443.178667 687.829333l-31.338667 8.512 8.469333 31.082667 31.125333-8.469333L443.178667 687.829333 443.178667 687.829333zM608.341333 641.237333 608.341333 641.237333l-81.493333 140.864-60.010667 16.341333c-10.261333 2.218667-16.106667 12.970667-13.418667 23.04l18.368 67.861333c2.453333 9.834667 12.970667 16.128 22.826667 13.205333l67.605333-18.133333c10.048-2.709333 16.085333-12.992 13.845333-22.848l-16.554667-60.437333 81.472-141.034667c5.141333-8.96 2.218667-20.586667-6.677333-25.962667C625.109333 628.693333 613.717333 632.064 608.341333 641.237333L608.341333 641.237333zM525.909333 821.696 525.909333 821.696l8.512 31.125333-31.338667 8.298667-8.064-30.912L525.909333 821.696 525.909333 821.696z" /></svg>