<?xml version="1.0" standalone="no"?><!DOCTYPE svg PUBLIC "-//W3C//DTD SVG 1.1//EN" "http://www.w3.org/Graphics/SVG/1.1/DTD/svg11.dtd"><svg class="icon" width="200px" height="200.00px" viewBox="0 0 1024 1024" version="1.1" xmlns="http://www.w3.org/2000/svg"><path fill="#ffffff" d="M698.922667 290.88c-5.461333 2.709333-9.152 4.906667-9.344 5.034667l-0.106667 0.064L294.613333 510.122667c-72.426667 35.968-122.56 101.205333-122.56 183.872 0 109.866667 89.322667 199.253333 199.168 199.253333 91.477333 0 152.064-44.416 189.397333-137.962667l193.344-417.066667C771.456 261.824 720.746667 280.128 698.922667 290.88L698.922667 290.88zM558.997333 628.117333l-46.698667 100.245333-23.914667 51.328c-33.408 45.290667-68.992 59.626667-117.077333 59.626667-80.106667 0-145.344-65.173333-145.344-145.344 0-49.173333 20.693333-94.122667 62.208-118.954667l20.010667-10.88 114.858667-62.4 260.949333-141.482667L558.997333 628.117333 558.997333 628.117333zM292.672 694.741333c0-20.032 8.277333-40 22.464-54.208 14.186667-14.208 34.154667-22.464 54.229333-22.464 20.074667 0 40.021333 8.256 54.229333 22.464 14.186667 14.208 22.464 34.176 22.464 54.208 0 20.074667-8.277333 40.042667-22.464 54.250667-14.208 14.208-34.154667 22.464-54.229333 22.464-20.074667 0-40.042667-8.256-54.229333-22.464C300.949333 734.784 292.672 714.837333 292.672 694.741333L292.672 694.741333zM91.285333 391.125333c0-14.4 5.930667-28.714667 16.106667-38.890667 10.176-10.176 24.490667-16.106667 38.890667-16.106667s28.714667 5.930667 38.890667 16.106667c10.197333 10.197333 16.106667 24.490667 16.106667 38.890667s-5.909333 28.714667-16.106667 38.869333c-10.176 10.197333-24.490667 16.128-38.890667 16.128s-28.714667-5.930667-38.890667-16.128C97.216 419.84 91.285333 405.525333 91.285333 391.125333L91.285333 391.125333zM683.968 730.048c0-14.378667 5.909333-28.714667 16.085333-38.869333 10.218667-10.176 24.490667-16.128 38.890667-16.128s28.714667 5.952 38.890667 16.128c10.176 10.176 16.106667 24.490667 16.106667 38.869333 0 14.421333-5.930667 28.714667-16.106667 38.912-10.197333 10.176-24.490667 16.085333-38.890667 16.085333s-28.693333-5.909333-38.890667-16.085333C689.877333 758.741333 683.968 744.448 683.968 730.048L683.968 730.048zM232.277333 330.538667c6.912 0 13.781333-2.645333 19.050667-7.872l133.248-133.312c10.517333-10.517333 10.517333-27.584 0-38.101333-10.581333-10.517333-27.584-10.517333-38.165333 0l-133.248 133.248c-10.517333 10.517333-10.517333 27.584 0 38.101333C218.453333 327.893333 225.301333 330.538667 232.277333 330.538667L232.277333 330.538667zM464.810667 317.845333c6.848 0 13.781333-2.645333 19.050667-7.872l133.269333-133.248c10.496-10.496 10.496-27.584 0-38.101333-10.581333-10.496-27.669333-10.496-38.165333 0l-133.269333 133.184c-10.517333 10.517333-10.517333 27.605333 0 38.101333C450.986667 315.2 457.898667 317.845333 464.810667 317.845333L464.810667 317.845333zM924.8 536.746667c-10.538667-10.581333-27.584-10.581333-38.122667 0l-76.373333 76.416c-10.581333 10.453333-10.581333 27.584 0 38.08 5.226667 5.248 12.117333 7.957333 18.986667 7.957333 6.912 0 13.824-2.709333 19.072-7.957333l76.394667-76.373333C935.381333 564.330667 935.381333 547.328 924.8 536.746667L924.8 536.746667zM924.8 536.746667" /></svg>