<?xml version="1.0" standalone="no"?><!DOCTYPE svg PUBLIC "-//W3C//DTD SVG 1.1//EN" "http://www.w3.org/Graphics/SVG/1.1/DTD/svg11.dtd"><svg class="icon" width="200px" height="200.00px" viewBox="0 0 1024 1024" version="1.1" xmlns="http://www.w3.org/2000/svg"><path fill="#ffffff" d="M237.546667 613.205333 237.546667 613.205333c12.096 12.288 12.096 32.234667 0 44.544-12.544 12.544-32.256 12.544-44.778667 0-28.437333-28.416-51.498667-62.677333-67.178667-100.757333l0 0.448c-15.210667-37.141333-23.701333-76.992-23.701333-119.082667 0-41.898667 8.490667-81.962667 23.701333-118.677333l0.682667-1.792c15.637333-37.376 38.506667-70.976 66.496-98.965333 28.650667-28.202667 62.677333-51.477333 100.757333-67.136l1.792-0.682667c36.010667-14.997333 75.669333-22.805333 116.842667-22.805333 30.677333 0 60.906667 4.693333 89.152 12.778667 29.077333 8.938667 56.874667 21.930667 81.728 38.058667 24.405333 16.106667 46.336 35.797333 65.344 58.389333l0-0.234667c14.122667 16.576 26.389333 34.922667 36.928 53.973333l2.218667-0.234667 5.376 0 0.448 0 0-0.256c30.677333 0 60.437333 6.037333 87.317333 17.258667 28.202667 12.053333 53.717333 29.098667 74.325333 50.154667 21.034667 21.034667 38.037333 45.888 49.685333 74.325333 11.178667 26.88 17.429333 56.426667 17.429333 87.296 0 30.890667-6.250667 60.224-17.429333 87.338667-11.648 28.181333-28.650667 53.504-49.685333 74.538667-17.472 17.472-38.058667 32.234667-60.885333 43.413333l0 0c-21.952 10.986667-46.122667 18.154667-71.872 21.504-16.832 2.026667-32.917333-9.856-34.709333-27.114667-2.453333-17.002667 9.621333-32.874667 26.88-35.370667 18.325333-2.005333 35.818667-7.573333 51.712-15.210667l0 0 0.234667 0c16.149333-8.042667 31.125333-19.050667 44.309333-31.786667 15.232-15.253333 27.776-34.048 35.84-53.717333 8.085333-19.498667 12.544-40.981333 12.544-63.594667 0-22.378667-4.458667-43.882667-12.544-63.552-8.064-19.946667-20.608-38.314667-35.84-53.76-15.616-15.232-33.770667-27.776-53.76-36.010667-19.2-7.829333-40.704-12.565333-63.552-12.565333l0 0L688.426667 353.92l-0.426667 0-4.501333 0.448-0.917333 0-6.250667 0.448-6.037333 0.661333c-13.205333 1.792-26.88-5.376-32.448-18.325333-9.877333-21.269333-22.165333-41.216-37.141333-58.901333l0 0 0-0.234667c-14.762667-17.450667-32.938667-33.130667-52.373333-46.336-19.733333-12.778667-41.664-23.296-64.938667-30.208-22.421333-6.72-46.122667-10.325333-71.232-10.325333-32.896 0-64.448 6.549333-93.098667 17.941333l-1.344 0.661333c-29.994667 12.309333-57.514667 30.890667-80.149333 53.76-22.378667 22.613333-40.981333 49.258667-53.290667 79.018667l-0.448 1.344c-12.074667 29.098667-18.816 60.906667-18.816 94.506667 0 33.557333 6.698667 65.578667 18.816 94.464l0 0 0 0.213333C196.096 563.093333 214.677333 590.357333 237.546667 613.205333L237.546667 613.205333zM438.549333 604.373333c36.629333 0 66.325333 29.546667 66.325333 66.005333s-29.738667 66.005333-66.325333 66.005333c-36.650667 0-66.304-29.546667-66.304-66.005333S401.898667 604.373333 438.549333 604.373333zM337.877333 789.034667c29.632 0 53.674667 23.872 53.674667 53.333333s-24.042667 53.333333-53.674667 53.333333c-29.653333 0-53.696-23.872-53.696-53.333333S308.224 789.034667 337.877333 789.034667zM524.544 764.373333c21.909333 0 39.658667 17.749333 39.658667 39.658667 0 21.888-17.749333 39.637333-39.658667 39.637333s-39.658667-17.749333-39.658667-39.637333C484.885333 782.122667 502.634667 764.373333 524.544 764.373333z" /></svg>