<?xml version="1.0" standalone="no"?><!DOCTYPE svg PUBLIC "-//W3C//DTD SVG 1.1//EN" "http://www.w3.org/Graphics/SVG/1.1/DTD/svg11.dtd"><svg class="icon" width="200px" height="200.00px" viewBox="0 0 1024 1024" version="1.1" xmlns="http://www.w3.org/2000/svg"><path fill="#ffffff" d="M433.770667 481.344 185.557333 481.344c-16.896 0-30.570667 13.696-30.570667 30.570667l0 0.213333c0 16.874667 13.674667 30.570667 30.570667 30.570667l248.213333 0c16.874667 0 30.570667-13.696 30.570667-30.570667l0-0.213333C464.341333 495.018667 450.645333 481.344 433.770667 481.344zM838.442667 481.344 589.568 481.344c-16.896 0-30.570667 13.696-30.570667 30.570667l0 0.213333c0 16.874667 13.674667 30.570667 30.570667 30.570667l248.874667 0c16.874667 0 30.570667-13.696 30.570667-30.570667l0-0.213333C868.992 495.018667 855.317333 481.344 838.442667 481.344z" /></svg>