<?xml version="1.0" standalone="no"?><!DOCTYPE svg PUBLIC "-//W3C//DTD SVG 1.1//EN" "http://www.w3.org/Graphics/SVG/1.1/DTD/svg11.dtd"><svg class="icon" width="200px" height="200.00px" viewBox="0 0 1024 1024" version="1.1" xmlns="http://www.w3.org/2000/svg"><path fill="#ffffff" d="M381.013333 829.333333c-14.762667-8.490667-34.026667-3.349333-42.986667 11.648l-5.354667 9.856c-8.512 14.762667-3.605333 34.026667 11.413333 42.538667 14.976 8.725333 34.218667 3.584 42.986667-11.2l5.589333-9.856C401.194667 857.344 396.010667 837.845333 381.013333 829.333333zM451.306667 770.688l5.397333-9.621333c8.938667-14.976 3.562667-34.24-11.413333-42.986667-15.232-8.725333-34.24-3.370667-43.008 11.648l-5.589333 9.621333c-8.512 15.232-3.136 34.026667 11.626667 42.752C423.36 790.826667 442.368 785.450667 451.306667 770.688zM316.778667 940.373333c-14.997333-8.490667-34.24-3.114667-42.986667 12.096l-5.376 8.96c-8.725333 15.445333-3.370667 34.453333 11.413333 42.986667 14.997333 8.96 34.474667 3.562667 42.986667-11.413333l5.376-9.642667C336.917333 968.597333 331.797333 949.12 316.778667 940.373333zM239.552 829.333333c-14.997333-8.490667-34.026667-3.349333-42.517333 11.648l-5.824 9.856c-8.490667 14.762667-3.370667 34.026667 11.648 42.538667 15.232 8.725333 34.453333 3.584 42.752-11.2l5.610667-9.856C259.690667 857.344 254.741333 837.845333 239.552 829.333333zM175.509333 940.373333c-15.210667-8.490667-34.474667-3.114667-42.986667 12.096l-5.354667 8.96c-8.746667 15.445333-3.584 34.453333 11.413333 42.986667 14.976 8.96 34.24 3.562667 42.752-11.413333l5.589333-9.642667C195.669333 968.597333 190.293333 949.12 175.509333 940.373333zM309.845333 770.688l5.589333-9.621333c8.725333-14.976 3.349333-34.24-11.413333-42.986667-15.232-8.725333-34.474667-3.370667-42.986667 11.648l-5.397333 9.621333c-8.938667 15.232-3.797333 34.026667 11.2 42.752C282.090667 790.826667 301.312 785.450667 309.845333 770.688zM586.56 718.08c-14.784-8.725333-34.496-3.370667-43.008 11.648l-5.376 9.621333c-8.490667 15.232-3.584 34.026667 11.626667 42.752 14.784 8.725333 34.24 3.349333 43.008-11.413333l5.376-9.621333C606.677333 746.090667 601.322667 726.805333 586.56 718.08zM522.517333 829.333333c-15.232-8.490667-34.474667-3.349333-42.986667 11.648l-5.397333 9.856c-8.938667 14.762667-3.584 34.026667 11.648 42.538667 14.784 8.725333 34.048 3.584 42.56-11.2l5.802667-9.856C542.442667 857.344 537.28 837.845333 522.517333 829.333333zM458.026667 940.373333c-14.741333-8.490667-34.218667-3.114667-42.986667 12.096l-5.354667 8.96c-8.490667 15.445333-3.136 34.453333 11.648 42.986667 15.210667 8.96 34.24 3.562667 42.986667-11.413333l5.354667-9.642667C478.186667 968.597333 473.045333 949.12 458.026667 940.373333zM597.44 170.624c17.429333 0 31.338667-14.336 31.338667-31.573333L628.778667 46.570667c0-17.450667-13.888-31.338667-31.338667-31.338667-17.706667 0-31.808 13.866667-31.808 31.338667l0 92.458667C565.632 156.288 579.733333 170.624 597.44 170.624zM822.186667 245.376l65.365333-65.813333c12.074667-12.096 12.074667-32.256 0-44.330667-12.544-12.309333-32.704-12.309333-44.778667 0L777.386667 200.618667c-12.544 12.544-12.544 32.234667 0 44.778667C789.482667 257.472 809.642667 257.472 822.186667 245.376zM372.650667 245.376c12.544 12.074667 32.234667 12.074667 44.778667 0 12.074667-12.544 12.074667-32.234667 0-44.992l-65.365333-65.152c-12.522667-12.309333-32.234667-12.309333-44.778667 0-12.309333 12.074667-12.309333 32.234667 0 44.330667L372.650667 245.376zM795.306667 539.562667c8.064-13.909333 14.549333-28.437333 19.712-43.456 7.168-22.378667 10.965333-46.101333 10.965333-70.741333 0-63.125333-25.493333-120.448-66.944-161.856-41.194667-41.408-98.709333-66.944-161.6-66.944-42.112 0-81.514667 11.648-115.328 30.912l-2.432 1.770667c-25.984 15.658667-49.28 36.714667-67.413333 61.781333-27.072-7.594667-55.722667-12.074667-85.504-12.074667-40.96 0-80.810667 8.042667-117.077333 22.826667l-1.557333 0.661333c-37.824 15.68-71.872 38.698667-100.544 67.370667-28.181333 27.776-50.581333 61.333333-66.709333 98.730667l-0.448 2.026667c-15.210667 36.266667-23.957333 76.8-23.957333 118.677333 0 41.621333 8.746667 81.92 23.957333 118.656 15.658667 38.058667 38.506667 72.32 67.136 100.736 12.096 12.544 32.042667 12.544 44.8 0 12.074667-12.309333 12.074667-32.682667 0-44.778667-23.274667-22.826667-41.642667-50.154667-53.738667-80.149333-12.309333-29.098667-19.029333-60.885333-19.029333-94.464s6.698667-65.834667 19.029333-94.72l0.448-1.557333c12.309333-29.333333 30.442667-56.213333 53.290667-78.592 22.826667-22.826667 49.685333-41.408 80.149333-53.738667l1.344-0.661333c28.437333-11.648 60.010667-17.92 92.906667-17.92 24.853333 0 48.810667 3.584 71.189333 10.282667 23.530667 6.954667 44.992 17.450667 65.152 30.229333 19.477333 13.205333 37.162667 28.885333 52.16 46.357333 15.018667 17.664 27.306667 37.589333 37.184 59.114667 5.802667 12.736 19.456 20.138667 32.448 18.346667l6.016-0.917333 6.058667-0.448 0.874667 0 4.48-0.234667 0.896 0 4.906667-0.234667 0 0.234667c22.421333 0 43.882667 4.714667 63.146667 12.544 20.138667 8.277333 38.272 20.586667 53.738667 36.053333 15.466667 15.210667 27.776 33.578667 36.266667 53.738667 8.064 19.242667 12.309333 40.725333 12.309333 63.552 0 22.4-4.245333 44.096-12.309333 63.594667-8.490667 19.690667-20.821333 38.058667-36.266667 53.738667-12.970667 12.757333-28.010667 23.509333-44.096 31.765333-16.106667 7.616-33.792 12.992-51.946667 15.232-17.237333 2.24-29.333333 17.92-27.306667 35.157333 2.474667 17.237333 18.154667 29.312 35.136 27.306667 25.536-3.349333 49.92-10.773333 71.872-21.504l-0.256 0c23.296-11.413333 43.882667-26.197333 61.354667-43.669333 21.056-20.821333 38.058667-46.101333 49.706667-74.304 11.178667-27.114667 17.237333-56.426667 17.237333-87.338667 0-30.869333-6.037333-60.416-17.237333-87.296C812.778667 567.765333 804.736 553.002667 795.306667 539.562667zM755.029333 476.842667c-1.792 4.501333-3.349333 9.429333-5.376 13.888-16.533333-12.778667-34.688-23.509333-54.165333-31.786667-27.306667-11.178667-56.874667-17.237333-87.338667-17.237333l0 0.234667L600.106667 441.941333c-10.517333-18.816-22.826667-37.162667-37.162667-53.76-18.816-22.378667-41.194667-42.090667-65.365333-58.218667-8.042667-5.354667-16.128-9.834667-24.618667-14.314667 11.178667-12.970667 24.618667-23.722667 38.954667-32.234667l2.24-1.344c24.170667-14.336 52.821333-22.378667 83.285333-22.378667 45.674667 0 87.296 18.794667 117.056 48.341333 30.229333 30.016 48.362667 71.637333 48.362667 117.312C762.858667 443.306667 760.405333 460.736 755.029333 476.842667zM975.744 393.6l-92.224 0c-17.450667 0-31.338667 14.101333-31.338667 31.552 0 17.258667 13.866667 31.552 31.338667 31.552l92.224 0c17.472 0 31.786667-14.314667 31.786667-31.552C1007.552 407.701333 993.237333 393.6 975.744 393.6z" /></svg>