<?xml version="1.0" standalone="no"?><!DOCTYPE svg PUBLIC "-//W3C//DTD SVG 1.1//EN" "http://www.w3.org/Graphics/SVG/1.1/DTD/svg11.dtd"><svg class="icon" width="200px" height="200.00px" viewBox="0 0 1024 1024" version="1.1" xmlns="http://www.w3.org/2000/svg"><path fill="#ffffff" d="M418.048 654.442667l5.504-9.472c8.597333-14.741333 3.285333-33.685333-11.221333-42.282667-14.976-8.576-33.92-3.285333-42.282667 11.456l-5.290667 9.472c-8.789333 14.976-3.754667 33.472 11.029333 42.069333C390.72 674.24 409.642667 668.949333 418.048 654.442667zM424.853333 821.397333c-14.741333-8.384-33.685333-3.114667-42.282667 11.904l-5.269333 8.810667c-8.597333 15.189333-3.306667 33.92 11.221333 42.282667 14.741333 8.810667 33.92 3.52 42.282667-11.221333l5.269333-9.472C444.693333 849.173333 439.616 829.994667 424.853333 821.397333zM285.866667 821.397333c-14.976-8.384-33.92-3.114667-42.282667 11.904l-5.290667 8.810667c-8.576 15.189333-3.498667 33.92 11.242667 42.282667 14.741333 8.810667 33.685333 3.52 42.069333-11.221333l5.504-9.472C305.706667 849.173333 300.416 829.994667 285.866667 821.397333zM348.885333 712.128c-14.741333-8.362667-33.472-3.285333-41.856 11.456l-5.738667 9.706667c-8.362667 14.528-3.306667 33.450667 11.456 41.834667 14.976 8.597333 33.92 3.541333 42.069333-11.008l5.525333-9.706667C368.682667 739.669333 363.861333 720.512 348.885333 712.128zM690.282667 602.666667c-14.549333-8.576-33.92-3.285333-42.282667 11.456l-5.312 9.472c-8.362667 14.976-3.498667 33.472 11.456 42.069333 14.570667 8.576 33.706667 3.285333 42.282667-11.221333l5.312-9.472C710.101333 630.208 704.810667 611.264 690.282667 602.666667zM563.861333 821.397333c-14.549333-8.384-33.706667-3.114667-42.304 11.904L516.266667 842.112c-8.362667 15.189333-3.093333 33.92 11.456 42.282667 14.976 8.810667 33.706667 3.52 42.282667-11.221333l5.269333-9.472C583.658667 849.173333 578.624 829.994667 563.861333 821.397333zM627.285333 712.128c-14.976-8.362667-33.92-3.285333-42.282667 11.456l-5.290667 9.706667c-8.810667 14.528-3.52 33.450667 11.456 41.834667 14.549333 8.597333 33.472 3.541333 41.856-11.008l5.738667-9.706667C646.890667 739.669333 641.813333 720.512 627.285333 712.128zM652.864 535.872c0-6.677333-5.482667-12.309333-12.288-12.309333l-76.48 0 72.298667-105.258667c1.429333-2.026667 2.602667-4.629333 2.602667-7.509333 0-6.656-5.653333-12.138667-12.437333-12.138667l-115.968 0c-4.629333 0-8.810667 2.453333-10.986667 6.656l-83.562667 162.816c-1.173333 2.026667-1.749333 4.032-1.749333 6.506667 0 6.784 5.504 12.288 12.16 12.288l76.608 0-34.688 139.648-7.978667 34.325333 29.077333-23.616 160.469333-193.152C651.712 541.802667 652.864 539.050667 652.864 535.872zM504.810667 680.576l25.728-103.061333c1.728-6.528-2.304-13.162667-8.96-14.613333-0.874667-0.298667-2.026667-0.576-2.901333-0.576l-72.298667 0 71.445333-139.392 85.589333 0L531.114667 529.066667c-4.032 5.525333-2.602667 13.013333 3.178667 16.938667 1.877333 1.429333 4.330667 2.176 6.656 2.176l73.728 0L504.810667 680.576zM898.346667 434.432 898.133333 434.432c-11.456-27.285333-27.989333-52.181333-48.661333-72.896-20.288-20.245333-44.288-36.8-71.146667-48.021333l-1.984-0.661333c-26.432-11.008-55.744-17.194667-86.144-17.194667l-7.509333 0c-10.133333-18.709333-22.677333-36.096-36.096-52.416l-0.448-0.448c-18.069333-21.141333-39.424-40.32-62.976-55.936l-1.322667-0.896c-24.661333-16.298667-51.541333-29.290667-80.64-37.888-27.733333-8.384-56.810667-12.778667-87.210667-12.778667-41.408 0-80.618667 8.384-116.736 23.338667-37.461333 15.424-71.402667 38.101333-99.114667 66.090667-28.202667 27.733333-50.901333 61.674667-66.517333 99.114667-14.549333 36.138667-22.912 75.562667-22.912 116.757333 0 40.96 8.384 80.597333 23.146667 116.522667 15.402667 37.674667 38.08 71.573333 66.282667 99.328 7.936 7.936 17.194667 16.32 27.306667 24.234667 9.685333 7.488 19.818667 14.549333 29.952 20.714667 14.549333 9.045333 33.685333 4.416 42.730667-10.133333 8.789333-14.549333 3.968-33.706667-10.154667-42.730667-8.789333-5.312-16.725333-10.581333-24.448-16.533333-6.826667-5.738667-14.314667-12.096-21.781333-19.605333-22.506667-22.464-40.533333-49.344-52.885333-78.826667-11.925333-28.437333-18.069333-59.925333-18.069333-92.970667s6.144-64.341333 18.069333-93.397333c12.330667-29.077333 30.378667-55.936 52.885333-78.848 22.890667-22.229333 49.322667-40.533333 78.848-52.864 28.629333-11.669333 60.330667-18.261333 93.376-18.261333 24.256 0 48.021333 3.733333 69.610667 10.346667 22.912 6.826667 44.501333 16.96 63.872 29.952l1.536 0.896c18.730667 12.330667 35.477333 27.306667 50.005333 44.501333l0.448 0.661333c14.549333 17.408 26.88 36.565333 36.565333 57.258667 5.290667 12.992 18.496 19.84 31.722667 18.282667l5.290667-0.874667 6.613333-0.448 1.088 0 4.416-0.234667 0.448 0 4.629333-0.192 0 0.192c22.272 0 43.392 4.416 62.570667 12.565333l1.322667 0.426667c19.392 7.936 36.8 20.288 51.562667 34.602667l0 0.192 0.448 0.448c14.976 14.976 26.88 32.597333 35.242667 52.416 7.68 19.157333 12.309333 40.298667 12.309333 62.336 0 22.250667-4.629333 43.413333-12.309333 62.549333l0-0.213333c-8.384 19.818667-20.714667 37.866667-35.690667 53.077333-10.154667 10.133333-22.037333 19.157333-34.602667 26.410667-12.544 7.04-25.984 12.586667-39.850667 16.341333-16.32 4.16-26.432 21.12-22.037333 37.632 3.754667 16.533333 20.714667 26.453333 37.461333 22.037333 19.626667-4.842667 38.336-12.565333 55.296-22.250667 17.386667-9.92 33.706667-22.250667 47.573333-36.330667 20.693333-20.714667 37.205333-45.376 48.896-73.130667 11.221333-26.88 16.96-55.722667 16.96-86.144C915.306667 489.941333 909.589333 461.098667 898.346667 434.432z" /></svg>