<?xml version="1.0" standalone="no"?><!DOCTYPE svg PUBLIC "-//W3C//DTD SVG 1.1//EN" "http://www.w3.org/Graphics/SVG/1.1/DTD/svg11.dtd"><svg class="icon" width="200px" height="200.00px" viewBox="0 0 1024 1024" version="1.1" xmlns="http://www.w3.org/2000/svg"><path fill="#ffffff" d="M237.418667 618.069333 237.418667 618.069333c-22.826667-23.296-41.194667-50.346667-53.290667-80.149333L183.68 537.92l0.448 0c-12.309333-29.333333-19.029333-61.333333-19.029333-94.698667 0-33.6 6.72-65.6 19.029333-94.698667l0.448-1.557333c12.074667-29.333333 30.442667-55.744 52.821333-78.592 22.826667-22.826667 50.154667-41.408 80.128-53.738667l1.792-0.896c28.437333-11.413333 60.010667-17.92 92.906667-17.92 24.853333 0 48.576 4.032 70.976 10.517333 23.274667 6.954667 45.226667 17.258667 64.917333 30.229333 19.712 12.992 37.632 28.650667 52.629333 46.357333l0 0 0 0.213333c14.997333 17.450667 27.541333 37.376 37.162667 58.88 5.802667 12.757333 19.477333 19.946667 32.448 18.154667l0 0.448 5.802667-0.896 6.016-0.896 1.578667 0 4.245333 0 0.234667 0 4.928-0.448 0 0.448c22.826667 0 44.330667 4.501333 63.552 12.544 20.138667 8.277333 38.272 20.608 53.738667 35.84 15.466667 15.424 27.776 34.026667 36.266667 53.717333 7.850667 19.477333 12.309333 40.96 12.309333 63.573333 0 22.378667-4.458667 43.904-12.309333 63.594667-8.490667 20.138667-20.821333 38.272-36.266667 53.738667-12.949333 12.970667-28.181333 23.722667-44.288 31.786667l0 0c-16.170667 7.616-33.173333 12.970667-51.733333 15.466667-17.237333 2.218667-29.354667 17.898667-27.114667 35.136 2.24 17.429333 17.92 29.312 34.944 27.285333 25.514667-3.328 49.706667-10.752 71.637333-21.482667l0-0.448c23.04-11.178667 43.648-25.493333 61.333333-43.413333 20.842667-20.608 37.610667-45.696 49.685333-73.877333 11.2-27.328 17.024-56.874667 17.024-87.786667 0-30.442667-5.802667-60.202667-17.024-87.317333-12.074667-28.202667-28.864-53.504-49.685333-74.304-21.056-21.034667-46.122667-38.058667-74.325333-49.706667-27.285333-11.178667-56.853333-17.472-87.744-17.472l0 0.448-0.448 0-5.376 0-1.792 0c-10.282667-19.477333-22.826667-37.141333-37.162667-53.738667l0 0c-19.242667-22.826667-41.194667-42.304-65.365333-58.218667-25.045333-16.554667-52.608-29.546667-81.92-38.037333-28.202667-8.746667-58.218667-13.44-88.874667-13.44-41.408 0-80.810667 8.277333-117.077333 23.296l-1.344 0.448c-38.058667 15.658667-72.533333 38.72-100.970667 67.157333-27.989333 27.754667-50.816 61.781333-66.496 99.392l-0.896 1.344c-14.762667 36.949333-23.488 77.013333-23.488 118.890667 0 41.856 8.725333 81.685333 23.488 118.656 16.149333 38.058667 38.976 72.32 67.392 100.736 12.309333 12.309333 32.234667 12.309333 44.544 0C249.941333 650.282667 249.941333 630.144 237.418667 618.069333L237.418667 618.069333zM311.402667 730.24 311.402667 730.24c-2.496 17.045333 9.344 32.810667 26.410667 35.285333 17.258667 2.624 33.109333-9.706667 35.584-26.773333l1.642667-11.2c2.538667-16.768-9.493333-32.618667-26.88-35.093333-17.066667-2.517333-32.938667 9.536-35.306667 26.410667L311.402667 730.24 311.402667 730.24zM435.84 728.170667 435.84 728.170667c-2.133333 17.344 9.877333 33.237333 26.773333 35.584 17.066667 2.474667 33.109333-9.706667 35.584-26.773333l1.642667-11.2c2.197333-17.045333-9.856-32.917333-27.072-35.221333-17.066667-2.496-32.768 9.685333-35.114667 26.56L435.84 728.170667 435.84 728.170667zM418.24 855.445333 418.24 855.445333c-2.325333 17.216 9.386667 33.152 26.773333 35.584 17.194667 2.304 33.258667-9.578667 35.413333-26.922667l1.664-10.901333c2.005333-17.152-9.706667-33.088-26.922667-35.413333-17.002667-2.176-32.810667 9.365333-35.413333 26.624L418.24 855.445333 418.24 855.445333zM453.610667 600.704 453.610667 600.704c-2.474667 17.386667 9.429333 33.450667 26.496 35.946667 17.216 2.325333 33.237333-9.898667 35.413333-26.901333l1.685333-10.901333c2.496-17.066667-9.578667-33.28-26.922667-35.413333-16.896-2.346667-32.810667 9.344-35.413333 26.922667L453.610667 600.704 453.610667 600.704zM565.098667 687.466667 565.098667 687.466667c-2.474667 17.386667 9.6 33.578667 26.474667 35.946667 17.237333 2.325333 33.237333-9.898667 35.584-26.773333l1.685333-10.901333c2.282667-17.194667-9.408-33.130667-26.922667-35.392-16.896-2.368-32.810667 9.344-35.584 26.773333L565.098667 687.466667 565.098667 687.466667z" /></svg>