<?xml version="1.0" standalone="no"?><!DOCTYPE svg PUBLIC "-//W3C//DTD SVG 1.1//EN" "http://www.w3.org/Graphics/SVG/1.1/DTD/svg11.dtd"><svg class="icon" width="200px" height="200.00px" viewBox="0 0 1024 1024" version="1.1" xmlns="http://www.w3.org/2000/svg"><path fill="#ffffff" d="M336.469333 594.218667c8.490667-14.997333 27.754667-20.138667 42.986667-11.413333 15.232 8.938667 19.946667 27.989333 11.648 42.986667l-134.314667 232.832c-9.194667 14.997333-28.224 20.138667-43.434667 11.178667-14.762667-8.490667-20.16-27.776-11.178667-42.986667L336.469333 594.218667 336.469333 594.218667zM237.077333 635.178667 237.077333 635.178667c-22.826667-23.296-41.194667-50.368-53.738667-80.149333l0 0c-12.096-29.354667-18.346667-61.354667-18.346667-94.72 0-33.813333 6.250667-65.578667 18.346667-94.698667l0.661333-1.536c12.309333-29.354667 30.677333-56.213333 53.056-78.592 22.848-22.848 50.154667-41.429333 80.362667-53.76l1.578667-0.896c28.672-11.413333 60.010667-17.898667 93.12-17.898667 24.618667 0 48.384 4.010667 71.210667 10.517333 23.04 6.933333 44.778667 17.237333 64.448 30.208 19.712 12.992 37.632 28.672 52.373333 46.357333l0.448 0-0.448 0c15.232 17.685333 27.776 37.610667 37.162667 59.114667 6.293333 12.757333 19.242667 19.925333 32.682667 18.133333l6.293333-0.448 5.802667-0.896 1.109333 0 4.48 0 0.448 0 4.906667-0.426667 0 0.426667c22.613333 0 43.882667 4.501333 63.381333 12.544 20.138667 8.298667 38.485333 20.629333 53.717333 35.84 15.658667 15.445333 27.754667 34.026667 36.245333 53.717333 7.850667 19.498667 12.544 40.981333 12.544 63.616 0 22.378667-4.693333 43.882667-12.544 63.552-8.490667 20.138667-20.586667 38.293333-36.245333 53.76-12.970667 12.949333-27.754667 23.722667-43.882667 31.786667L765.866667 690.730667c-15.68 7.594667-33.344 12.970667-51.477333 15.466667-17.472 2.218667-29.568 17.898667-27.328 35.114667 2.005333 17.450667 17.92 29.333333 34.922667 27.306667 25.514667-3.349333 49.706667-10.752 72.085333-21.482667L794.069333 746.666667c22.634667-11.178667 43.456-25.514667 60.693333-43.413333 21.034667-21.034667 38.058667-45.696 49.685333-73.898667 11.413333-27.306667 17.685333-57.088 17.685333-87.744 0-30.442667-6.272-60.458667-17.685333-87.317333-11.626667-28.202667-28.650667-53.525333-49.685333-74.56-20.821333-20.821333-46.357333-37.802667-74.304-49.450667-27.114667-11.178667-56.661333-17.472-87.338667-17.472l0 0-0.661333 0-5.376 0.448-1.792 0c-10.282667-19.477333-23.061333-37.632-37.162667-54.165333l0 0.448c-19.242667-22.826667-41.194667-42.325333-65.344-58.218667-25.088-16.576-52.394667-29.546667-81.728-38.058667-28.181333-8.725333-58.432-13.44-88.874667-13.44-41.386667 0-81.045333 8.298667-117.312 23.296l-1.344 0.448c-38.037333 15.68-72.512 38.741333-100.736 67.157333-28.202667 27.776-50.581333 61.781333-66.709333 99.413333l-0.682667 1.344c-14.976 36.714667-23.488 77.013333-23.488 118.869333s8.490667 81.728 23.488 118.677333L125.397333 578.773333c15.68 38.272 38.741333 72.512 67.392 100.736 12.074667 12.330667 32.256 12.330667 44.330667 0C249.621333 667.413333 249.621333 647.274667 237.077333 635.178667L237.077333 635.178667zM477.952 594.218667 477.952 594.218667l-134.762667 232.597333c-8.490667 15.210667-3.584 34.474667 11.648 42.986667 15.232 8.96 34.474667 3.818667 42.986667-11.178667l134.357333-232.832c8.938667-14.997333 3.562667-34.048-11.221333-42.986667C505.728 574.058667 486.485333 579.2 477.952 594.218667L477.952 594.218667zM619.029333 594.218667 619.029333 594.218667c8.938667-14.997333 28.181333-20.138667 42.986667-11.413333 14.976 8.938667 20.138667 27.989333 11.626667 42.986667l-134.570667 232.832c-8.704 14.997333-27.968 20.138667-42.965333 11.178667-14.997333-8.490667-19.925333-27.776-11.413333-42.986667L619.029333 594.218667 619.029333 594.218667z" /></svg>