<?xml version="1.0" standalone="no"?><!DOCTYPE svg PUBLIC "-//W3C//DTD SVG 1.1//EN" "http://www.w3.org/Graphics/SVG/1.1/DTD/svg11.dtd"><svg class="icon" width="200px" height="200.00px" viewBox="0 0 1024 1024" version="1.1" xmlns="http://www.w3.org/2000/svg"><path fill="#ffffff" d="M520.810667 554.026667c-14.976-8.576-33.941333-3.541333-42.282667 11.221333l-107.818667 173.226667c-8.384 14.954667-3.541333 33.92 11.434667 42.282667 14.976 8.810667 33.941333 3.754667 42.304-11.008l107.370667-173.461333C540.629333 581.546667 535.36 562.816 520.810667 554.026667zM381.589333 554.026667c-14.954667-8.576-33.92-3.541333-42.261333 11.221333l-107.370667 173.226667c-8.810667 14.954667-3.52 33.92 11.008 42.282667 14.976 8.810667 33.706667 3.754667 42.752-11.008l107.370667-173.461333C401.216 581.546667 396.565333 562.816 381.589333 554.026667zM659.584 554.026667c-14.549333-8.576-33.472-3.541333-42.282667 11.221333l-107.370667 173.226667c-8.384 14.954667-3.52 33.92 11.221333 42.282667 14.762667 8.810667 33.685333 3.754667 42.282667-11.008l107.584-173.461333C679.424 581.546667 674.325333 562.816 659.584 554.026667zM898.133333 427.562667c-11.456-27.733333-28.181333-52.650667-48.896-73.344-20.48-20.48-45.610667-37.226667-73.130667-48.682667-26.645333-11.008-55.722667-17.194667-85.909333-17.194667l-0.64 0-5.290667 0.448-1.770667 0c-10.133333-19.157333-22.677333-37.013333-36.565333-53.312l0 0.448c-18.944-22.464-40.512-41.642667-64.298667-57.28-24.682667-16.32-51.562667-29.077333-80.426667-37.44-27.754667-8.576-57.493333-13.205333-87.466667-13.205333-40.725333 0-79.722667 8.128-115.413333 22.912l-1.344 0.426667c-37.44 15.424-71.36 38.122667-99.114667 66.090667-27.754667 27.306667-49.770667 60.8-65.621333 97.792l-0.682667 1.322667c-14.741333 36.117333-23.104 75.776-23.104 116.949333 0 41.194667 8.362667 80.405333 23.104 116.757333l0-0.213333c15.445333 37.674667 38.122667 71.36 66.304 99.093333 11.904 12.138667 31.722667 12.138667 43.605333 0 12.330667-11.882667 12.330667-31.701333 0-43.584-22.464-22.912-40.490667-49.557333-52.842667-78.848-11.925333-28.885333-18.090667-60.373333-18.090667-93.184 0-33.258667 6.165333-64.512 18.090667-93.162667l0.64-1.536c12.096-28.885333 30.186667-55.317333 52.181333-77.333333 22.485333-22.464 49.344-40.768 79.082667-52.885333l1.557333-0.874667c28.181333-11.221333 59.029333-17.621333 91.605333-17.621333 24.234667 0 47.594667 3.968 70.058667 10.346667 22.677333 6.826667 44.053333 16.96 63.445333 29.738667 19.392 12.778667 36.992 28.181333 51.52 45.610667 14.976 17.386667 27.328 36.992 36.565333 58.154667 6.186667 12.544 18.965333 19.605333 32.170667 17.834667l6.186667-0.448 5.738667-0.896 5.930667 0 4.842667-0.426667 0 0.426667c22.250667 0 43.178667 4.437333 62.357333 12.352 19.818667 8.128 37.866667 20.266667 52.864 35.242667 15.424 15.168 27.306667 33.472 35.669333 52.842667 7.722667 19.178667 12.352 40.32 12.352 62.570667 0 22.016-4.629333 43.157333-12.352 62.528-8.362667 19.84-20.245333 37.674667-35.669333 52.885333-12.778667 12.778667-27.306667 23.36-43.178667 31.296l-0.426667 0c-15.445333 7.509333-32.832 12.778667-50.666667 15.210667-17.194667 2.176-29.056 17.621333-26.88 34.581333 1.984 17.173333 17.621333 28.842667 34.368 26.858667 25.088-3.285333 48.896-10.581333 70.912-21.141333l0-0.448c22.250667-11.008 42.730667-25.088 59.690667-42.709333 20.714667-20.714667 37.44-44.949333 48.896-72.682667 11.242667-26.901333 17.386667-56.170667 17.386667-86.336C915.52 483.541333 909.376 454.016 898.133333 427.562667zM234.112 828.8c-14.741333-8.384-33.472-3.306667-41.856 11.456l-5.738667 9.685333c-8.362667 14.549333-3.306667 33.472 11.456 41.834667 14.976 8.597333 33.898667 3.541333 42.069333-11.008l5.525333-9.685333C253.909333 856.32 249.088 837.184 234.112 828.8zM373.312 828.8c-14.570667-8.384-33.472-3.306667-42.282667 11.456l-5.269333 9.685333c-8.384 14.549333-3.562667 33.472 11.221333 41.834667 14.741333 8.597333 33.685333 3.541333 42.282667-11.008l5.504-9.685333C393.130667 856.32 388.053333 837.184 373.312 828.8zM512.512 828.8c-14.976-8.384-33.92-3.306667-42.282667 11.456l-5.290667 9.685333c-8.810667 14.549333-3.52 33.472 11.456 41.834667 14.549333 8.597333 33.472 3.541333 41.856-11.008l5.738667-9.685333C532.117333 856.32 527.04 837.184 512.512 828.8z" /></svg>