<?xml version="1.0" standalone="no"?><!DOCTYPE svg PUBLIC "-//W3C//DTD SVG 1.1//EN" "http://www.w3.org/Graphics/SVG/1.1/DTD/svg11.dtd"><svg class="icon" width="200px" height="200.00px" viewBox="0 0 1024 1024" version="1.1" xmlns="http://www.w3.org/2000/svg"><path fill="#ffffff" d="M417.408 203.114667c12.074667 12.778667 12.074667 32.448 0 44.992-12.544 12.074667-32.234667 12.074667-44.778667 0l-65.365333-65.813333c-12.309333-12.096-12.309333-32.256 0-44.330667 12.544-12.309333 32.256-12.309333 44.778667 0L417.408 203.114667 417.408 203.114667zM251.093333 725.845333 251.093333 725.845333c8.725333-14.784 28.202667-19.925333 42.986667-11.648 15.445333 8.938667 20.373333 28.181333 11.648 42.986667L171.392 990.485333c-8.746667 14.741333-28.010667 20.138667-42.986667 11.157333-15.018667-8.704-19.968-27.754667-11.648-42.965333L251.093333 725.845333 251.093333 725.845333zM392.554667 725.845333 392.554667 725.845333l-134.314667 232.832c-8.725333 15.210667-3.370667 34.24 11.413333 42.965333 14.997333 8.981333 34.474667 3.584 42.986667-11.157333l134.314667-233.301333c8.746667-14.784 3.584-34.048-11.413333-42.986667C420.565333 705.941333 401.301333 711.061333 392.554667 725.845333L392.554667 725.845333zM534.293333 725.845333 534.293333 725.845333c8.277333-14.784 27.776-19.925333 42.986667-11.648 14.762667 8.938667 20.16 28.181333 11.178667 42.986667l-134.314667 233.301333c-8.725333 14.741333-27.776 20.138667-42.986667 11.157333-15.018667-8.704-20.394667-27.754667-11.648-42.965333L534.293333 725.845333 534.293333 725.845333zM152.362667 766.613333 152.362667 766.613333c-23.274667-22.826667-41.642667-50.176-53.738667-80.170667L98.176 686.442667l0.448 0c-12.309333-29.098667-19.029333-60.885333-19.029333-94.464s6.698667-65.813333 19.029333-94.698667l0.448-1.557333c12.309333-29.333333 30.442667-56.213333 53.290667-78.592 22.826667-22.826667 49.685333-41.429333 80.149333-53.738667l1.344-0.661333c28.437333-11.648 60.010667-17.898667 92.906667-17.898667 24.853333 0 48.810667 3.562667 71.189333 10.282667 23.530667 6.954667 44.992 17.450667 65.152 30.229333 19.477333 13.205333 37.162667 28.885333 52.16 46.357333l0 0 0 0c14.997333 17.664 27.306667 37.589333 37.184 59.093333 5.802667 12.757333 19.456 20.16 32.448 18.368l6.016-0.917333 6.058667-0.448 0.874667 0 4.48-0.234667 0.896 0 4.906667-0.234667 0 0.234667c22.421333 0 43.882667 4.693333 63.146667 12.544 20.138667 8.277333 38.272 20.565333 53.738667 36.032 15.466667 15.210667 27.776 33.578667 36.266667 53.738667 8.064 19.264 12.309333 40.725333 12.309333 63.552 0 22.421333-4.245333 44.117333-12.309333 63.594667-8.490667 19.690667-20.821333 38.058667-36.266667 53.738667-12.949333 12.757333-28.010667 23.509333-44.096 31.765333l0 0c-16.106667 7.594667-33.792 12.992-51.946667 15.232-17.237333 2.24-29.333333 17.92-27.306667 35.157333 2.474667 17.258667 18.154667 29.333333 35.136 27.285333 25.536-3.328 49.92-10.752 71.872-21.461333l-0.256 0c23.296-11.413333 43.904-26.218667 61.354667-43.690667 21.056-20.821333 38.058667-46.101333 49.706667-74.304 11.178667-27.114667 17.237333-56.426667 17.237333-87.338667 0-30.869333-6.037333-60.416-17.237333-87.296-6.72-15.658667-14.762667-30.442667-24.192-43.882667 8.064-13.888 14.549333-28.416 19.712-43.434667 7.168-22.378667 10.965333-46.101333 10.965333-70.741333 0-63.125333-25.493333-120.448-66.944-161.834667-41.194667-41.429333-98.709333-66.944-161.6-66.944-42.112 0-81.514667 11.648-115.328 30.912l-2.432 1.792c-25.984 15.658667-49.28 36.693333-67.392 61.781333-27.093333-7.616-55.744-12.074667-85.525333-12.074667-40.96 0-80.810667 8.042667-117.077333 22.826667l-1.578667 0.661333c-37.802667 15.68-71.850667 38.72-100.522667 67.370667-28.181333 27.754667-50.581333 61.333333-66.709333 98.730667l-0.448 2.026667c-15.210667 36.266667-23.957333 76.778667-23.957333 118.656 0 41.621333 8.746667 81.92 23.957333 118.677333 15.658667 38.037333 38.506667 72.298667 67.136 100.714667 12.096 12.544 32.042667 12.544 44.8 0C164.437333 799.061333 164.437333 778.666667 152.362667 766.613333L152.362667 766.613333zM472.938667 318.4 472.938667 318.4c11.178667-12.970667 24.618667-23.722667 38.954667-32.234667l2.218667-1.344c24.192-14.314667 52.842667-22.378667 83.306667-22.378667 45.674667 0 87.296 18.794667 117.056 48.362667 30.229333 30.016 48.362667 71.637333 48.362667 117.312 0 17.92-2.453333 35.370667-7.829333 51.498667-1.792 4.48-3.349333 9.408-5.376 13.888-16.533333-12.778667-34.688-23.509333-54.165333-31.808-27.306667-11.178667-56.874667-17.237333-87.338667-17.237333l0 0.234667-0.874667 0-5.376 0L600.106667 444.693333c-10.517333-18.794667-22.826667-37.162667-37.162667-53.738667l0 0c-18.816-22.378667-41.194667-42.090667-65.365333-58.218667C489.514667 327.36 481.429333 322.901333 472.938667 318.4L472.938667 318.4zM883.52 459.456 883.52 459.456c-17.450667 0-31.338667-14.336-31.338667-31.573333 0-17.472 13.866667-31.552 31.338667-31.552l92.224 0c17.472 0 31.786667 14.101333 31.786667 31.552 0 17.237333-14.314667 31.573333-31.786667 31.573333L883.52 459.456 883.52 459.456zM822.186667 248.106667 822.186667 248.106667c-12.544 12.074667-32.704 12.074667-44.8 0-12.544-12.544-12.544-32.234667 0-44.778667l65.386667-65.386667c12.074667-12.309333 32.234667-12.309333 44.778667 0 12.074667 12.074667 12.074667 32.234667 0 44.330667L822.186667 248.106667 822.186667 248.106667zM628.778667 141.76 628.778667 141.76c0 17.258667-13.888 31.573333-31.338667 31.573333-17.706667 0-31.808-14.314667-31.808-31.573333L565.632 49.322667c0-17.472 14.101333-31.338667 31.808-31.338667 17.429333 0 31.338667 13.866667 31.338667 31.338667L628.778667 141.76 628.778667 141.76z" /></svg>