<?xml version="1.0" standalone="no"?><!DOCTYPE svg PUBLIC "-//W3C//DTD SVG 1.1//EN" "http://www.w3.org/Graphics/SVG/1.1/DTD/svg11.dtd"><svg class="icon" width="200px" height="200.00px" viewBox="0 0 1024 1024" version="1.1" xmlns="http://www.w3.org/2000/svg"><path fill="#ffffff" d="M554.88 706.368c8.490667-14.997333 27.776-20.138667 42.986667-11.648 14.741333 8.512 19.925333 28.010667 11.648 42.986667l-5.802667 9.856c-8.512 14.784-27.776 19.946667-42.56 11.2-15.232-8.512-20.586667-27.776-11.648-42.538667L554.88 706.368 554.88 706.368zM237.418667 635.178667 237.418667 635.178667c-22.826667-23.296-41.194667-50.346667-53.269333-80.149333L183.68 555.029333l0.448 0c-12.309333-29.333333-19.050667-61.333333-19.050667-94.677333 0-33.578667 6.72-65.578667 19.050667-94.698667l0.448-1.557333c12.074667-29.333333 30.442667-55.744 52.821333-78.592 22.826667-22.826667 50.176-41.408 80.149333-53.738667l1.792-0.896c28.437333-11.413333 60.010667-17.898667 92.906667-17.898667 24.853333 0 48.554667 4.010667 70.954667 10.517333 23.274667 6.933333 45.226667 17.237333 64.917333 30.208 19.712 12.992 37.632 28.650667 52.629333 46.357333l0 0 0 0.213333c14.997333 17.450667 27.541333 37.376 37.162667 58.901333 5.802667 12.736 19.477333 19.925333 32.448 18.133333l0 0.448 5.802667-0.896 6.016-0.896 1.578667 0 4.245333 0 0.234667 0 4.928-0.448 0 0.448c22.826667 0 44.330667 4.501333 63.552 12.544 20.138667 8.277333 38.272 20.608 53.738667 35.84 15.466667 15.445333 27.776 34.026667 36.266667 53.717333 7.850667 19.498667 12.309333 40.981333 12.309333 63.594667 0 22.378667-4.458667 43.882667-12.309333 63.552-8.490667 20.138667-20.821333 38.293333-36.266667 53.738667-12.949333 12.970667-28.181333 23.722667-44.288 31.786667l0 0c-16.170667 7.616-33.173333 12.970667-51.733333 15.466667-17.237333 2.218667-29.354667 17.92-27.114667 35.136 2.24 17.450667 17.92 29.312 34.944 27.306667 25.514667-3.349333 49.685333-10.773333 71.637333-21.482667l0-0.448c23.04-11.178667 43.648-25.514667 61.333333-43.434667 20.842667-20.608 37.610667-45.696 49.685333-73.877333 11.2-27.328 17.024-56.874667 17.024-87.744 0-30.464-5.802667-60.224-17.024-87.338667-12.074667-28.181333-28.864-53.504-49.685333-74.304-21.056-21.034667-46.122667-38.058667-74.325333-49.706667-27.285333-11.178667-56.853333-17.450667-87.744-17.450667l0 0.448-0.448 0-5.376 0-1.792 0c-10.282667-19.498667-22.826667-37.162667-37.162667-53.738667l0 0c-19.242667-22.848-41.194667-42.325333-65.365333-58.218667-25.045333-16.576-52.608-29.568-81.92-38.058667-28.202667-8.725333-58.218667-13.44-88.874667-13.44-41.408 0-80.810667 8.277333-117.077333 23.296l-1.344 0.448c-38.058667 15.68-72.533333 38.741333-100.949333 67.157333-27.989333 27.776-50.837333 61.781333-66.496 99.392l-0.896 1.344c-14.762667 36.949333-23.509333 77.034667-23.509333 118.890667s8.725333 81.706667 23.509333 118.656c16.149333 38.058667 38.976 72.32 67.392 100.736 12.309333 12.309333 32.234667 12.309333 44.544 0C249.962667 667.413333 249.962667 647.274667 237.418667 635.178667L237.418667 635.178667zM272.362667 706.368 272.362667 706.368c8.490667-14.997333 27.541333-20.138667 42.517333-11.648 15.232 8.512 20.138667 28.010667 11.648 42.986667l-5.589333 9.856c-8.32 14.784-27.541333 19.946667-42.773333 11.2-14.997333-8.512-20.138667-27.776-11.648-42.538667L272.362667 706.368 272.362667 706.368zM336.384 595.114667 336.384 595.114667c8.512-15.018667 27.776-20.373333 43.008-11.648 14.741333 8.725333 20.138667 28.010667 11.413333 42.986667l-5.610667 9.621333c-8.512 14.762667-27.754667 20.16-42.986667 11.413333-15.018667-8.725333-20.138667-27.52-11.2-42.752L336.384 595.114667 336.384 595.114667zM207.872 817.877333 207.872 817.877333c8.490667-15.232 27.754667-20.608 42.986667-12.096 14.784 8.746667 20.138667 28.224 11.413333 42.986667l-5.610667 9.642667c-8.490667 14.976-27.754667 20.373333-42.752 11.413333-14.976-8.512-20.138667-27.541333-11.413333-42.986667L207.872 817.877333 207.872 817.877333zM413.376 706.368 413.376 706.368c8.981333-14.997333 28.202667-20.138667 43.008-11.648 14.976 8.512 20.138667 28.010667 11.648 42.986667l-5.610667 9.856c-8.725333 14.784-27.989333 19.946667-42.986667 11.2-15.018667-8.512-19.925333-27.776-11.413333-42.538667L413.376 706.368 413.376 706.368zM477.653333 595.114667 477.653333 595.114667c8.725333-15.018667 27.776-20.373333 42.986667-11.648 14.997333 8.725333 20.352 28.010667 11.413333 42.986667l-5.376 9.621333c-8.96 14.762667-27.989333 20.16-43.008 11.413333-14.741333-8.725333-20.138667-27.52-11.626667-42.752L477.653333 595.114667 477.653333 595.114667zM349.12 817.877333 349.12 817.877333c8.725333-15.232 28.010667-20.608 42.986667-12.096 15.018667 8.746667 20.16 28.224 11.413333 42.986667l-5.354667 9.642667c-8.490667 14.976-28.010667 20.373333-42.986667 11.413333-14.784-8.512-20.16-27.541333-11.413333-42.986667L349.12 817.877333 349.12 817.877333zM618.901333 595.114667 618.901333 595.114667c8.490667-15.018667 28.202667-20.373333 43.008-11.648 14.741333 8.725333 20.117333 28.010667 11.626667 42.986667l-5.376 9.621333c-8.746667 14.762667-28.202667 20.16-43.008 11.413333-15.210667-8.725333-20.117333-27.52-11.626667-42.752L618.901333 595.114667 618.901333 595.114667zM490.389333 817.877333 490.389333 817.877333c8.725333-15.232 28.202667-20.608 42.986667-12.096 15.018667 8.746667 20.138667 28.224 11.648 42.986667l-5.376 9.642667c-8.725333 14.976-27.754667 20.373333-42.986667 11.413333-14.762667-8.512-20.138667-27.541333-11.648-42.986667L490.389333 817.877333 490.389333 817.877333z" /></svg>