<?xml version="1.0" standalone="no"?><!DOCTYPE svg PUBLIC "-//W3C//DTD SVG 1.1//EN" "http://www.w3.org/Graphics/SVG/1.1/DTD/svg11.dtd"><svg class="icon" width="200px" height="200.00px" viewBox="0 0 1024 1024" version="1.1" xmlns="http://www.w3.org/2000/svg"><path fill="#ffffff" d="M367.232 482.218667c-18.965333-4.992-38.272 6.72-43.114667 26.218667l-11.754667 46.997333c-4.864 19.456 6.570667 39.296 25.536 44.288 18.965333 4.992 38.272-6.741333 43.114667-26.218667l11.754667-46.997333C397.632 507.029333 386.218667 487.210667 367.232 482.218667zM568.341333 722.453333l-34.538667 0 24.426667-24.405333c4.010667-3.989333 4.010667-10.453333 0-14.442667-4.010667-3.968-10.410667-3.968-14.464 0l-24.384 24.405333L519.381333 673.493333c0-5.674667-4.565333-10.218667-10.218667-10.218667s-10.218667 4.565333-10.218667 10.218667l0 34.517333-24.426667-24.405333c-3.968-3.968-10.453333-3.968-14.421333 0-4.010667 3.989333-4.010667 10.453333 0 14.442667l24.405333 24.405333-34.517333 0c-5.653333 0-10.218667 4.565333-10.218667 10.218667 0 5.653333 4.565333 10.218667 10.218667 10.218667l34.496 0-24.405333 24.384c-3.989333 4.010667-3.989333 10.453333 0 14.464 1.984 1.962667 4.608 2.986667 7.232 2.986667 2.602667 0 5.205333-0.981333 7.210667-2.986667l24.426667-24.426667 0 34.538667c0 5.674667 4.586667 10.218667 10.218667 10.218667s10.218667-4.586667 10.218667-10.218667L519.381333 757.333333l24.384 24.426667c2.005333 1.962667 4.629333 2.986667 7.253333 2.986667s5.205333-0.981333 7.210667-2.986667c4.010667-4.010667 4.010667-10.453333 0-14.464l-24.426667-24.384 34.538667 0c5.674667 0 10.218667-4.586667 10.218667-10.218667S573.952 722.496 568.341333 722.453333zM322.538667 675.968c-18.965333-4.992-38.272 6.741333-43.136 26.218667l-11.733333 46.997333c-4.864 19.477333 6.570667 39.317333 25.514667 44.309333 18.965333 4.970667 38.293333-6.741333 43.136-26.218667l11.733333-46.997333C352.917333 700.8 341.482667 680.96 322.538667 675.968zM283.690667 843.072c-18.965333-4.970667-38.272 6.741333-43.136 26.218667l-11.733333 46.997333c-4.885333 19.456 6.570667 39.296 25.514667 44.288s38.293333-6.741333 43.136-26.218667l11.733333-47.018667C314.090667 867.882667 302.656 848.042667 283.690667 843.072zM750.869333 229.909333l-14.250667 0c-28.586667-117.461333-133.376-201.578667-255.573333-201.578667-125.397333 0-231.744 87.296-258.730667 206.357333-96.832 22.229333-168.277333 109.525333-168.277333 212.714667 0 105.258667 75.328 193.728 175.509333 214.421333l0-76.885333c-58.517333-18.965333-100.885333-73.706667-100.885333-137.514667 0-74.624 57.152-134.933333 130.176-142.869333l23.808 0c4.757333 0 7.936-3.157333 7.936-7.936l3.157333-25.386667c9.514667-95.232 90.474667-168.256 187.306667-168.256 95.232 0 176.192 73.024 187.285333 168.256l3.2 25.386667c0 4.778667 3.157333 7.936 7.914667 7.936l71.424 0c79.381333 0 144.448 65.088 144.448 142.869333 0 63.424-41.834667 117.888-99.797333 137.194667l0 77.034667c99.648-21.098667 174.421333-109.354667 174.421333-214.229333C969.962667 326.741333 871.552 229.909333 750.869333 229.909333zM760.618667 482.218667c-18.965333-4.992-38.250667 6.72-43.114667 26.218667l-11.754667 46.997333c-4.842667 19.456 6.592 39.296 25.536 44.288s38.293333-6.741333 43.114667-26.218667l11.754667-46.997333C791.04 507.029333 779.626667 487.210667 760.618667 482.218667zM715.925333 675.968c-18.965333-4.992-38.250667 6.741333-43.114667 26.218667l-11.754667 46.997333c-4.842667 19.477333 6.592 39.317333 25.536 44.309333 18.965333 4.970667 38.293333-6.741333 43.114667-26.218667l11.754667-46.997333C746.325333 700.8 734.869333 680.96 715.925333 675.968zM606.037333 526.656l-34.496 0 24.426667-24.405333c3.968-4.010667 3.968-10.453333 0-14.464-4.032-3.968-10.453333-3.968-14.464 0l-24.426667 24.426667 0-34.517333c0-5.674667-4.586667-10.218667-10.218667-10.218667s-10.218667 4.586667-10.218667 10.218667l0 34.517333-24.426667-24.426667c-3.968-3.968-10.453333-3.968-14.421333 0-4.010667 4.010667-4.010667 10.453333 0 14.464l24.405333 24.405333-34.517333 0c-5.653333 0-10.218667 4.565333-10.218667 10.218667 0 5.674667 4.586667 10.218667 10.218667 10.218667l34.496 0-24.405333 24.405333c-4.010667 3.989333-4.010667 10.453333 0 14.442667 1.984 1.984 4.586667 2.986667 7.210667 2.986667s5.226667-0.981333 7.232-2.986667l24.426667-24.405333 0 34.517333c0 5.674667 4.586667 10.218667 10.218667 10.218667s10.218667-4.565333 10.218667-10.218667l0-34.517333 24.426667 24.405333c2.005333 1.984 4.586667 2.986667 7.210667 2.986667s5.205333-0.981333 7.253333-2.986667c3.968-3.989333 3.968-10.453333 0-14.442667l-24.426667-24.405333 34.496 0c5.674667 0 10.24-4.586667 10.24-10.218667C616.298667 531.221333 611.712 526.677333 606.037333 526.656zM682.965333 843.072c-18.965333-4.970667-38.250667 6.741333-43.114667 26.218667l-11.754667 46.997333c-4.885333 19.456 6.592 39.296 25.536 44.288s38.250667-6.741333 43.114667-26.218667l11.754667-47.018667C713.365333 867.882667 701.909333 848.042667 682.965333 843.072zM509.824 916.032 475.306667 916.032l24.426667-24.405333c3.989333-3.989333 3.989333-10.453333 0-14.442667-4.010667-3.968-10.453333-3.968-14.464 0l-24.405333 24.426667 0-34.538667c0-5.674667-4.586667-10.218667-10.218667-10.218667-5.632 0-10.218667 4.586667-10.218667 10.218667l0 34.538667L416 877.205333c-3.989333-3.968-10.453333-3.968-14.421333 0-4.010667 3.989333-4.010667 10.453333 0 14.442667l24.405333 24.405333L391.466667 916.053333c-5.653333 0-10.218667 4.565333-10.218667 10.218667 0 5.653333 4.586667 10.218667 10.218667 10.218667l34.496 0-24.426667 24.405333c-3.989333 3.989333-3.989333 10.432 0 14.442667 2.005333 1.962667 4.608 2.986667 7.232 2.986667s5.226667-0.981333 7.232-2.986667l24.426667-24.426667 0 34.538667c0 5.674667 4.586667 10.218667 10.218667 10.218667 5.653333 0 10.218667-4.586667 10.218667-10.218667l0-34.538667 24.405333 24.426667c2.005333 1.962667 4.608 2.986667 7.232 2.986667s5.205333-0.981333 7.232-2.986667c3.989333-4.010667 3.989333-10.453333 0-14.442667l-24.426667-24.405333 34.517333 0c5.674667 0 10.218667-4.586667 10.218667-10.218667S515.477333 916.074667 509.824 916.032z" /></svg>