<?xml version="1.0" standalone="no"?><!DOCTYPE svg PUBLIC "-//W3C//DTD SVG 1.1//EN" "http://www.w3.org/Graphics/SVG/1.1/DTD/svg11.dtd"><svg class="icon" width="200px" height="200.00px" viewBox="0 0 1024 1024" version="1.1" xmlns="http://www.w3.org/2000/svg"><path fill="#ffffff" d="M136.789333 286.336c-17.472 0-31.786667-14.101333-31.786667-31.552 0-17.258667 14.314667-31.573333 31.786667-31.573333l122.218667 0c17.472 0 31.552 14.336 31.552 31.573333 0 17.450667-14.08 31.552-31.552 31.552L136.789333 286.336 136.789333 286.336zM385.493333 286.336 385.493333 286.336c-17.258667 0-31.552-14.101333-31.552-31.552 0-17.258667 14.314667-31.573333 31.552-31.573333l122.453333 0c17.258667 0 31.338667 14.336 31.338667 31.573333 0 17.450667-14.08 31.552-31.338667 31.552L385.493333 286.336 385.493333 286.336zM634.218667 286.336 634.218667 286.336c-17.450667 0-31.338667-14.101333-31.338667-31.552 0-17.258667 13.866667-31.573333 31.338667-31.573333l122.453333 0c17.258667 0 31.552 14.336 31.552 31.573333 0 17.450667-14.314667 31.552-31.552 31.552L634.218667 286.336 634.218667 286.336zM136.789333 629.333333 136.789333 629.333333c-17.472 0-31.786667-14.122667-31.786667-31.338667 0-17.962667 14.314667-31.829333 31.786667-31.829333l122.218667 0c17.472 0 31.552 13.866667 31.552 31.829333 0 17.216-14.08 31.338667-31.552 31.338667L136.789333 629.333333 136.789333 629.333333zM385.493333 629.333333 385.493333 629.333333c-17.258667 0-31.552-14.122667-31.552-31.338667 0-17.962667 14.314667-31.829333 31.552-31.829333l122.453333 0c17.258667 0 31.338667 13.866667 31.338667 31.829333 0 17.216-14.08 31.338667-31.338667 31.338667L385.493333 629.333333 385.493333 629.333333zM634.218667 629.333333 634.218667 629.333333c-17.450667 0-31.338667-14.122667-31.338667-31.338667 0-17.962667 13.866667-31.829333 31.338667-31.829333l122.453333 0c17.258667 0 31.552 13.866667 31.552 31.829333 0 17.216-14.314667 31.338667-31.552 31.338667L634.218667 629.333333 634.218667 629.333333zM267.754667 457.813333 267.754667 457.813333c-17.237333 0-31.552-14.101333-31.552-31.36 0-17.429333 14.336-31.765333 31.552-31.765333l122.432 0c17.045333 0 31.381333 14.336 31.381333 31.765333 0 17.258667-14.336 31.36-31.381333 31.36L267.754667 457.813333 267.754667 457.813333zM516.458667 457.813333 516.458667 457.813333c-17.429333 0-31.338667-14.101333-31.338667-31.36 0-17.429333 13.888-31.765333 31.338667-31.765333l122.218667 0c17.472 0 31.573333 14.336 31.573333 31.765333 0 17.258667-14.101333 31.36-31.573333 31.36L516.458667 457.813333 516.458667 457.813333zM765.44 457.813333 765.44 457.813333c-17.472 0-31.808-14.101333-31.808-31.36 0-17.429333 14.336-31.765333 31.808-31.765333l122.218667 0c17.450667 0 31.36 14.336 31.36 31.765333 0 17.258667-13.888 31.36-31.36 31.36L765.44 457.813333 765.44 457.813333zM267.754667 800.789333 267.754667 800.789333c-17.237333 0-31.552-14.08-31.552-31.338667 0-17.450667 14.336-31.338667 31.552-31.338667l122.432 0c17.045333 0 31.381333 13.866667 31.381333 31.338667 0 17.258667-14.336 31.338667-31.381333 31.338667L267.754667 800.789333 267.754667 800.789333zM516.458667 800.789333 516.458667 800.789333c-17.429333 0-31.338667-14.08-31.338667-31.338667 0-17.450667 13.888-31.338667 31.338667-31.338667l122.218667 0c17.472 0 31.573333 13.866667 31.573333 31.338667 0 17.258667-14.101333 31.338667-31.573333 31.338667L516.458667 800.789333 516.458667 800.789333zM765.44 800.789333 765.44 800.789333c-17.472 0-31.808-14.08-31.808-31.338667 0-17.450667 14.336-31.338667 31.808-31.338667l122.218667 0c17.450667 0 31.36 13.866667 31.36 31.338667 0 17.258667-13.888 31.338667-31.36 31.338667L765.44 800.789333 765.44 800.789333z" /></svg>