<?xml version="1.0" standalone="no"?><!DOCTYPE svg PUBLIC "-//W3C//DTD SVG 1.1//EN" "http://www.w3.org/Graphics/SVG/1.1/DTD/svg11.dtd"><svg class="icon" width="200px" height="200.00px" viewBox="0 0 1024 1024" version="1.1" xmlns="http://www.w3.org/2000/svg"><path fill="#ffffff" d="M243.733333 443.392c0 18.666667 17.066667 33.813333 38.144 33.813333s38.144-15.125333 38.144-33.813333-17.088-33.813333-38.144-33.813333S243.733333 424.704 243.733333 443.392zM431.616 214.293333c21.056 0 38.122667-15.125333 38.122667-33.792 0-18.666667-17.066667-33.813333-38.122667-33.813333-21.056 0-38.122667 15.125333-38.122667 33.813333C393.493333 199.146667 410.56 214.293333 431.616 214.293333zM431.616 393.365333c21.056 0 38.122667-15.146667 38.122667-33.813333 0-18.666667-17.066667-33.792-38.122667-33.792-21.056 0-38.122667 15.125333-38.122667 33.792C393.493333 378.218667 410.56 393.365333 431.616 393.365333zM192.362667 323.136c0-18.666667-17.088-33.813333-38.144-33.813333s-38.144 15.125333-38.144 33.813333 17.066667 33.813333 38.144 33.813333S192.362667 341.802667 192.362667 323.136zM268.608 214.293333c21.056 0 38.144-15.125333 38.144-33.792 0-18.666667-17.066667-33.813333-38.144-33.813333s-38.144 15.125333-38.144 33.813333C230.485333 199.146667 247.552 214.293333 268.608 214.293333zM261.162667 661.610667c-19.392 0-35.114667 13.930667-35.114667 31.125333s15.722667 31.104 35.114667 31.104c19.392 0 35.114667-13.909333 35.114667-31.104S280.554667 661.610667 261.162667 661.610667zM907.370667 522.666667c-2.624-6.506667-7.125333-12.266667-13.290667-17.344-14.506667-24.576-47.914667-44.736-91.370667-55.765333 78.293333-47.445333 119.829333-98.112 103.658667-137.536-3.456-8.405333-9.493333-15.850667-17.621333-22.464-29.674667-49.706667-119.872-85.866667-226.581333-85.866667-81.344 0-152.917333 21.056-195.541333 53.056 123.904-7.765333 220.074667 11.328 243.285333 55.36 35.050667 66.389333-108.672 163.968-320.917333 217.941333-81.194667 20.650667-160.576 31.850667-229.738667 34.197333C189.504 578.56 234.666667 586.026667 289.002667 586.730667c134.549333-1.322667 268.202667-27.861333 432.106667-93.888 20.288 7.168 34.581333 17.194667 41.130667 29.909333 25.877333 50.453333-80.298667 124.565333-237.12 165.568-59.989333 15.68-118.656 24.192-169.728 25.962667 28.437333 13.824 74.538667 19.370667 130.112 16.448 1.578667-0.085333 3.157333-0.170667 4.714667-0.256 33.621333-2.069333 70.549333-7.125333 109.162667-15.424-0.085333 0.213333-0.085333 0.426667-0.170667 0.618667-2.88 0.896-5.632 1.877333-8.426667 2.816 36.010667-8.256 53.205333-18.304 112.490667-25.813333 26.176 5.141333 44.586667 14.549333 51.498667 27.968 19.370667 37.824-60.245333 93.418667-177.834667 124.16-44.992 11.776-89.002667 18.154667-127.317333 19.477333 40.789333 19.861333 129.749333 17.237333 225.024-9.813333 120.298667-34.133333 204.885333-94.08 188.949333-133.888-2.005333-4.992-5.461333-9.429333-10.282667-13.312-13.077333-21.888-46.165333-39.125333-88.170667-45.589333C863.701333 617.472 923.285333 562.517333 907.370667 522.666667zM544.96 638.101333c0-17.194667-15.701333-31.125333-35.114667-31.125333-19.370667 0-35.093333 13.930667-35.093333 31.125333s15.701333 31.125333 35.093333 31.125333C529.258667 669.226667 544.96 655.296 544.96 638.101333zM406.229333 770.837333c-19.392 0-35.114667 13.930667-35.114667 31.125333s15.722667 31.125333 35.114667 31.125333 35.114667-13.930667 35.114667-31.125333S425.621333 770.837333 406.229333 770.837333z" /></svg>