<?xml version="1.0" standalone="no"?><!DOCTYPE svg PUBLIC "-//W3C//DTD SVG 1.1//EN" "http://www.w3.org/Graphics/SVG/1.1/DTD/svg11.dtd"><svg class="icon" width="200px" height="200.00px" viewBox="0 0 1024 1024" version="1.1" xmlns="http://www.w3.org/2000/svg"><path fill="#ffffff" d="M137.216 638.186667c1.408-0.661333 47.722667-33.450667 144.789333 50.453333 90.154667 90.56 100.373333-42.794667 219.669333-40.362667 99.84 2.026667 56.469333 71.616 199.701333 75.690667 81.514667 2.304 89.856-90.837333 174.72-90.837333 43.328 0 33.877333 73.024-1.344 75.349333-41.514667 1.578667-73.450667 89.450667-178.901333 89.450667-130.261333 0-137.386667-75.093333-198.101333-76.672-60.693333-1.6-86.229333 73.450667-162.944 72.874667-63.722667-0.490667-73.770667-80.832-182.912-83.84C106.432 681.408 133.333333 644.074667 137.216 638.186667zM137.216 436.608c0 0 54.784-40.490667 144.789333 50.474667 89.877333 90.837333 100.373333-42.794667 219.669333-40.384 99.84 2.048 63.253333 75.712 199.701333 75.712 81.536 0 89.856-90.837333 174.72-90.837333 43.328 0 33.877333 73.024-1.344 75.370667-41.514667 1.6-73.450667 89.493333-178.901333 89.493333-143.765333 0-137.386667-75.114667-198.101333-76.714667-60.693333-1.578667-86.250667 79.893333-162.944 78.293333-88.064-1.834667-79.872-99.072-202.88-97.472C99.968 466.922667 137.216 436.608 137.216 436.608zM137.216 235.050667c0 0 54.784-40.512 144.789333 50.453333 89.877333 90.837333 119.829333-40.362667 219.669333-40.362667s63.253333 75.690667 199.701333 75.690667c81.536 0 89.856-90.837333 174.72-90.837333 43.328 0 33.877333 73.024-1.344 75.370667-41.514667 1.6-73.450667 89.472-178.901333 89.472-143.765333 0-137.386667-75.093333-198.101333-76.693333-60.693333-1.6-86.250667 79.872-162.944 78.272-88.064-1.834667-79.872-99.050667-202.88-97.450667C99.968 265.344 137.216 235.050667 137.216 235.050667z" /></svg>