<?xml version="1.0" standalone="no"?><!DOCTYPE svg PUBLIC "-//W3C//DTD SVG 1.1//EN" "http://www.w3.org/Graphics/SVG/1.1/DTD/svg11.dtd"><svg class="icon" width="200px" height="200.00px" viewBox="0 0 1024 1024" version="1.1" xmlns="http://www.w3.org/2000/svg"><path fill="#ffffff" d="M634.88 876.330667c0 10.282667-8.490667 18.816-19.029333 18.816-10.282667 0-18.581333-8.512-18.581333-18.816l0-12.074667-10.304 6.037333c-8.917333 5.162667-20.586667 2.026667-25.962667-6.954667-4.906667-8.917333-1.792-20.586667 6.954667-25.728L578.24 832l-10.282667-6.250667c-8.746667-4.906667-11.882667-16.576-6.954667-25.749333 5.376-8.96 17.045333-11.882667 25.962667-6.933333l10.304 6.272 0-12.544c0-9.834667 8.298667-18.581333 18.816-18.581333 10.282667 0 18.794667 8.746667 18.794667 18.581333l0 12.544 10.752-6.272c8.746667-4.928 20.16-2.026667 25.301333 6.933333 5.162667 9.173333 2.474667 20.842667-6.912 25.749333L653.696 832l10.304 5.610667c9.386667 5.141333 12.074667 16.810667 6.912 25.728-5.12 8.981333-16.533333 12.117333-25.301333 6.954667l-10.752-6.037333L634.858667 876.330667 634.88 876.330667zM244.010667 597.632 244.010667 597.632c12.096 12.309333 12.096 32.234667 0 44.544-12.544 12.544-32.234667 12.544-44.778667 0-28.437333-28.416-51.498667-62.698667-67.178667-100.757333L132.053333 541.866667c-15.210667-37.162667-23.722667-77.034667-23.722667-119.104 0-41.877333 8.490667-81.962667 23.722667-118.656l0.682667-1.792c15.658667-37.376 38.485333-70.976 66.496-98.965333 28.650667-28.181333 62.677333-51.477333 100.757333-67.136l1.792-0.682667c36.032-14.997333 75.669333-22.826667 116.842667-22.826667 30.677333 0 60.906667 4.693333 89.109333 12.778667 29.098667 8.938667 56.874667 21.930667 81.728 38.058667 24.384 16.106667 46.336 35.797333 65.344 58.432l0-0.234667c14.122667 16.576 26.410667 34.922667 36.949333 53.973333l2.218667-0.234667 5.376 0 0.448 0 0-0.234667c30.677333 0 60.437333 6.058667 87.317333 17.237333 28.202667 12.074667 53.717333 29.098667 74.325333 50.133333 21.034667 21.034667 38.037333 45.888 49.685333 74.346667 11.178667 26.858667 17.429333 56.426667 17.429333 87.296 0 30.912-6.250667 60.224-17.429333 87.338667-11.648 28.181333-28.650667 53.504-49.685333 74.538667-17.472 17.450667-38.058667 32.234667-60.885333 43.413333l0 0c-21.930667 10.986667-46.122667 18.133333-71.850667 21.504-16.832 2.026667-32.938667-9.856-34.730667-27.093333-2.432-17.024 9.642667-32.917333 26.88-35.370667 18.346667-2.026667 35.818667-7.616 51.712-15.232l0 0 0.234667 0c16.128-8.042667 31.125333-19.029333 44.309333-31.786667 15.232-15.232 27.776-34.026667 35.84-53.717333 8.064-19.477333 12.544-40.96 12.544-63.594667 0-22.378667-4.48-43.882667-12.544-63.552-8.064-19.925333-20.608-38.272-35.84-53.738667-15.637333-15.210667-33.770667-27.754667-53.738667-36.032-19.221333-7.850667-40.725333-12.544-63.552-12.544l0 0-4.928 0-0.426667 0-4.501333 0.448-0.917333 0-6.250667 0.448-6.037333 0.661333c-13.205333 1.770667-26.88-5.354667-32.448-18.368-9.877333-21.248-22.165333-41.173333-37.162667-58.88l0 0 0-0.234667c-14.762667-17.450667-32.917333-33.130667-52.373333-46.314667C535.04 203.370667 513.088 192.853333 489.813333 185.92c-22.4-6.72-46.122667-10.304-71.189333-10.304-32.896 0-64.469333 6.506667-93.12 17.92l-1.344 0.661333c-29.994667 12.309333-57.514667 30.912-80.149333 53.738667-22.378667 22.613333-40.96 49.237333-53.290667 79.018667l-0.448 1.322667c-12.074667 29.12-18.794667 60.906667-18.794667 94.506667 0 33.557333 6.698667 65.578667 18.794667 94.464l0 0 0 0.213333C202.602667 547.456 221.162667 574.762667 244.010667 597.632L244.010667 597.632zM216.234667 825.749333 216.234667 825.749333C207.296 820.842667 204.16 809.173333 209.322667 800c5.141333-8.96 16.789333-11.882667 25.749333-6.933333l10.304 6.272 0-12.544c0-9.834667 8.490667-18.581333 18.794667-18.581333 10.752 0 19.029333 8.746667 19.029333 18.581333l0 12.544 10.282667-6.272c9.194667-4.928 20.394667-2.026667 25.749333 6.933333 5.397333 9.173333 2.026667 20.842667-6.698667 25.749333L302.208 832l10.282667 5.610667c8.725333 5.141333 12.096 16.810667 6.698667 25.728-5.354667 8.981333-16.554667 12.117333-25.749333 6.954667l-10.282667-6.037333 0 12.074667c0 10.282667-8.277333 18.816-19.029333 18.816-10.282667 0-18.794667-8.512-18.794667-18.816l0-12.074667-10.304 6.037333c-8.96 5.162667-20.608 2.026667-25.749333-6.954667-5.162667-8.917333-2.026667-20.586667 6.933333-25.728L226.538667 832 216.234667 825.749333 216.234667 825.749333zM315.2 651.584 315.2 651.584l10.282667 5.802667-10.282667 6.272c-8.96 4.906667-12.096 16.554667-6.698667 25.728 4.928 8.96 16.554667 12.330667 25.514667 6.933333l10.282667-6.250667 0 12.544c0 10.282667 8.490667 18.56 19.029333 18.56 10.517333 0 19.029333-8.277333 19.029333-18.56l0-12.544 10.325333 6.250667c8.704 5.397333 20.352 2.026667 25.514667-6.933333 5.141333-9.173333 2.24-20.821333-6.72-25.728l-10.517333-6.272 10.517333-5.802667c8.96-5.162667 11.861333-16.576 6.72-26.005333-5.162667-8.490667-16.810667-11.84-25.514667-6.698667l-10.325333 6.058667 0-11.904c0-10.496-8.490667-18.794667-19.029333-18.794667-10.538667 0-19.029333 8.298667-19.029333 18.794667l0 11.904-10.282667-6.058667c-8.96-5.12-20.586667-1.792-25.514667 6.698667C303.104 635.008 306.24 646.421333 315.2 651.584L315.2 651.584zM557.866667 702.634667 557.866667 702.634667l0-12.544 10.538667 6.250667c9.173333 5.397333 20.586667 2.026667 25.728-6.933333 4.885333-9.173333 2.026667-20.821333-7.189333-25.728l-10.282667-6.272 10.282667-5.802667c9.216-5.162667 12.074667-16.576 7.189333-26.005333-5.141333-8.490667-16.554667-11.84-25.728-6.698667l-10.538667 6.058667 0-11.904c0-10.496-8.490667-18.794667-18.816-18.794667-10.282667 0-18.794667 8.298667-18.794667 18.794667l0 11.904-10.282667-6.058667c-8.96-5.12-20.608-1.792-25.536 6.698667-5.354667 9.408-2.453333 20.842667 6.72 26.005333l10.304 5.802667-10.304 6.272c-9.173333 4.906667-12.074667 16.554667-6.72 25.728 4.928 8.96 16.576 12.330667 25.536 6.933333l10.282667-6.250667 0 12.544c0 10.282667 8.512 18.56 18.794667 18.56C549.376 721.194667 557.866667 712.917333 557.866667 702.634667L557.866667 702.634667zM458.922667 876.330667 458.922667 876.330667c0 10.282667-8.277333 18.816-18.794667 18.816s-18.794667-8.512-18.794667-18.816l0-12.074667-10.325333 6.037333c-9.173333 5.162667-20.586667 2.026667-25.749333-6.954667-5.141333-8.917333-2.026667-20.586667 6.698667-25.728L402.496 832l-10.538667-6.250667c-8.725333-4.906667-11.84-16.576-6.698667-25.749333 5.162667-8.96 16.576-11.882667 25.749333-6.933333l10.325333 6.272 0-12.544c0-9.834667 8.277333-18.581333 18.794667-18.581333s18.794667 8.746667 18.794667 18.581333l0 12.544 10.752-6.272c8.96-4.928 20.586667-2.026667 25.514667 6.933333 5.397333 9.173333 1.792 20.842667-6.954667 25.749333L477.738667 832l10.496 5.610667c8.746667 5.141333 12.352 16.810667 6.954667 25.728-4.928 8.981333-16.554667 12.117333-25.514667 6.954667l-10.752-6.037333L458.922667 876.330667 458.922667 876.330667z" /></svg>