<?xml version="1.0" standalone="no"?><!DOCTYPE svg PUBLIC "-//W3C//DTD SVG 1.1//EN" "http://www.w3.org/Graphics/SVG/1.1/DTD/svg11.dtd"><svg class="icon" width="200px" height="200.00px" viewBox="0 0 1024 1024" version="1.1" xmlns="http://www.w3.org/2000/svg"><path fill="#ffffff" d="M931.072 293.098667c0 16.106667-13.013333 29.141333-29.162667 29.141333L803.413333 322.24l69.610667 69.632c11.370667 11.349333 11.370667 29.802667 0 41.194667-5.738667 5.696-13.098667 8.490667-20.586667 8.490667-7.509333 0-14.912-2.88-20.608-8.490667l-69.610667-69.610667 0 98.474667c0 16.085333-13.056 29.141333-29.162667 29.141333-16.085333 0-29.141333-12.992-29.141333-29.141333l0-98.474667L634.261333 433.066667c-5.717333 5.696-13.12 8.490667-20.629333 8.490667-7.466667 0-14.890667-2.88-20.586667-8.490667-11.370667-11.370667-11.370667-29.824 0-41.194667l69.632-69.632-98.432 0c-16.106667 0-29.141333-12.992-29.141333-29.141333s13.034667-29.141333 29.141333-29.141333l98.474667 0-69.610667-69.632c-11.370667-11.349333-11.370667-29.802667 0-41.194667 11.306667-11.285333 29.802667-11.285333 41.152 0l69.653333 69.632L703.914667 124.288c0-16.106667 13.056-29.162667 29.141333-29.162667 16.106667 0 29.162667 12.992 29.162667 29.162667l0 98.474667 69.610667-69.632c11.434667-11.285333 29.781333-11.285333 41.194667 0 11.370667 11.370667 11.370667 29.824 0 41.194667l-69.610667 69.632 98.474667 0C917.973333 264.021333 931.072 276.992 931.072 293.098667L931.072 293.098667zM342.442667 610.944c0 10.176-8.192 18.368-18.368 18.368l-62.037333 0 43.861333 43.882667c7.168 7.146667 7.168 18.794667 0 25.962667-3.626667 3.584-8.277333 5.333333-12.970667 5.333333s-9.386667-1.792-12.970667-5.333333l-43.861333-43.882667 0 62.037333c0 10.176-8.234667 18.368-18.368 18.368s-18.368-8.192-18.368-18.368l0-62.037333-43.904 43.882667c-3.584 3.584-8.277333 5.333333-12.970667 5.333333s-9.386667-1.792-12.970667-5.333333c-7.168-7.168-7.168-18.816 0-25.962667l43.882667-43.882667L111.317333 629.312c-10.154667 0-18.368-8.192-18.368-18.368 0-10.176 8.234667-18.346667 18.368-18.346667l62.037333 0L129.493333 548.714667c-7.168-7.168-7.168-18.794667 0-25.962667 7.125333-7.125333 18.794667-7.125333 25.92 0l43.904 43.882667 0-62.058667c0-10.154667 8.234667-18.368 18.368-18.368s18.368 8.192 18.368 18.368l0 62.058667 43.861333-43.882667c7.210667-7.125333 18.752-7.125333 25.962667 0 7.168 7.168 7.168 18.794667 0 25.962667l-43.861333 43.882667 62.037333 0C334.208 592.597333 342.442667 600.810667 342.442667 610.944L342.442667 610.944zM486.954667 368.512c0 9.088-7.338667 16.448-16.448 16.448L414.933333 384.96l39.296 39.274667c6.4 6.421333 6.4 16.832 0 23.232-3.242667 3.2-7.424 4.8-11.626667 4.8-4.224 0-8.426667-1.6-11.626667-4.8l-39.274667-39.274667 0 55.552c0 9.088-7.381333 16.448-16.448 16.448-9.088 0-16.448-7.338667-16.448-16.448l0-55.552-39.317333 39.274667c-3.2 3.2-7.402667 4.8-11.605333 4.8-4.224 0-8.426667-1.6-11.626667-4.8-6.421333-6.4-6.421333-16.810667 0-23.232l39.274667-39.274667-55.530667 0c-9.088 0-16.448-7.338667-16.448-16.448 0-9.109333 7.381333-16.448 16.448-16.448l55.552 0-39.274667-39.274667c-6.421333-6.421333-6.421333-16.832 0-23.253333 6.4-6.378667 16.832-6.378667 23.210667 0l39.317333 39.274667L358.805333 273.28c0-9.088 7.381333-16.448 16.448-16.448 9.066667 0 16.448 7.338667 16.448 16.448l0 55.552 39.274667-39.274667c6.442667-6.378667 16.789333-6.378667 23.253333 0 6.4 6.421333 6.4 16.832 0 23.253333l-39.296 39.274667 55.552 0C479.573333 352.106667 486.954667 359.445333 486.954667 368.512L486.954667 368.512zM560.32 800.896c0 10.410667-8.426667 18.858667-18.858667 18.858667l-63.658667 0 44.992 44.992c7.36 7.36 7.36 19.264 0 26.624-3.712 3.690667-8.469333 5.482667-13.312 5.482667s-9.642667-1.834667-13.312-5.482667l-44.992-44.992 0 63.637333c0 10.410667-8.448 18.858667-18.858667 18.858667s-18.837333-8.405333-18.837333-18.858667l0-63.637333-45.034667 44.992c-3.669333 3.690667-8.469333 5.482667-13.312 5.482667s-9.642667-1.834667-13.312-5.482667c-7.36-7.36-7.36-19.264 0-26.624l44.992-44.992-63.616 0c-10.410667 0-18.858667-8.405333-18.858667-18.858667 0-10.432 8.448-18.837333 18.858667-18.837333l63.658667 0-44.992-44.992c-7.36-7.338667-7.36-19.285333 0-26.624 7.317333-7.317333 19.264-7.317333 26.581333 0l45.034667 44.992 0-63.658667c0-10.410667 8.448-18.837333 18.837333-18.837333s18.858667 8.405333 18.858667 18.837333l0 63.658667 44.992-44.992c7.381333-7.317333 19.221333-7.317333 26.624 0 7.36 7.338667 7.36 19.285333 0 26.624l-44.992 44.992 63.658667 0C551.850667 782.101333 560.32 790.506667 560.32 800.896L560.32 800.896zM786.965333 739.541333c0 6.72-5.44 12.16-12.16 12.16l-41.130667 0 29.056 29.056c4.757333 4.757333 4.757333 12.458667 0 17.216-2.389333 2.368-5.482667 3.541333-8.597333 3.541333-3.114667 0-6.229333-1.216-8.597333-3.541333l-29.034667-29.056 0 41.109333c0 6.72-5.461333 12.181333-12.181333 12.181333s-12.16-5.44-12.16-12.181333l0-41.109333-29.098667 29.056c-2.368 2.368-5.461333 3.541333-8.576 3.541333s-6.229333-1.216-8.597333-3.541333c-4.736-4.757333-4.736-12.458667 0-17.216l29.056-29.056L633.813333 751.701333c-6.72 0-12.16-5.44-12.16-12.16 0-6.741333 5.44-12.16 12.16-12.16l41.109333 0-29.056-29.056c-4.757333-4.757333-4.757333-12.458667 0-17.216 4.714667-4.714667 12.458667-4.714667 17.173333 0l29.098667 29.056 0-41.109333c0-6.72 5.44-12.181333 12.16-12.181333s12.181333 5.44 12.181333 12.181333l0 41.109333 29.034667-29.056c4.8-4.714667 12.437333-4.714667 17.216 0 4.757333 4.757333 4.757333 12.458667 0 17.216l-29.056 29.056 41.130667 0C781.525333 727.402667 786.965333 732.821333 786.965333 739.541333L786.965333 739.541333z" /></svg>