<?xml version="1.0" standalone="no"?><!DOCTYPE svg PUBLIC "-//W3C//DTD SVG 1.1//EN" "http://www.w3.org/Graphics/SVG/1.1/DTD/svg11.dtd"><svg class="icon" width="200px" height="200.00px" viewBox="0 0 1024 1024" version="1.1" xmlns="http://www.w3.org/2000/svg"><path fill="#ffffff" d="M537.706667 835.050667c0 7.402667-6.101333 13.525333-13.674667 13.525333-7.402667 0-13.354667-6.122667-13.354667-13.525333l0-8.704-7.402667 4.352c-6.421333 3.712-14.805333 1.429333-18.666667-4.970667-3.541333-6.442667-1.28-14.805333 4.992-18.517333l7.402667-4.010667-7.402667-4.501333c-6.272-3.541333-8.533333-11.925333-4.992-18.496 3.882667-6.464 12.245333-8.533333 18.666667-4.992l7.402667 4.501333 0-9.024c0-7.061333 5.952-13.354667 13.525333-13.354667 7.402667 0 13.504 6.293333 13.504 13.354667l0 9.024 7.744-4.501333c6.272-3.541333 14.485333-1.450667 18.176 4.992 3.712 6.592 1.792 14.954667-4.970667 18.496l-7.402667 4.501333 7.402667 4.010667c6.762667 3.712 8.682667 12.074667 4.970667 18.517333-3.690667 6.421333-11.904 8.682667-18.176 4.970667l-7.744-4.352L537.706667 835.050667 537.706667 835.050667zM237.546667 611.733333 237.546667 611.733333c12.096 12.309333 12.096 32.234667 0 44.544-12.544 12.544-32.234667 12.544-44.778667 0-28.437333-28.437333-51.498667-62.677333-67.178667-100.778667l0 0.469333c-15.210667-37.162667-23.722667-77.013333-23.722667-119.104 0-41.877333 8.490667-81.941333 23.722667-118.656l0.682667-1.792c15.658667-37.397333 38.485333-70.976 66.496-98.965333 28.650667-28.202667 62.677333-51.498667 100.757333-67.136l1.792-0.682667c36.032-14.997333 75.669333-22.826667 116.842667-22.826667 30.677333 0 60.906667 4.693333 89.109333 12.778667 29.098667 8.938667 56.874667 21.930667 81.728 38.037333 24.384 16.128 46.336 35.818667 65.344 58.432l0-0.234667c14.122667 16.576 26.410667 34.922667 36.949333 53.973333l2.218667-0.256 5.376 0 0.448 0 0-0.213333c30.677333 0 60.437333 6.037333 87.317333 17.237333 28.202667 12.074667 53.717333 29.077333 74.325333 50.154667 21.034667 21.034667 38.037333 45.888 49.685333 74.325333 11.178667 26.88 17.429333 56.426667 17.429333 87.296 0 30.890667-6.250667 60.224-17.429333 87.317333-11.648 28.202667-28.650667 53.504-49.685333 74.56-17.472 17.472-38.058667 32.234667-60.885333 43.413333l0 0c-21.930667 10.986667-46.122667 18.154667-71.850667 21.504-16.832 2.026667-32.938667-9.856-34.730667-27.114667-2.432-17.002667 9.642667-32.874667 26.88-35.370667 18.346667-2.005333 35.818667-7.594667 51.712-15.210667l0 0 0.234667 0c16.128-8.042667 31.125333-19.050667 44.309333-31.786667 15.232-15.232 27.776-34.048 35.84-53.717333 8.064-19.498667 12.544-40.981333 12.544-63.594667 0-22.378667-4.48-43.882667-12.544-63.552-8.064-19.925333-20.608-38.293333-35.84-53.738667-15.637333-15.232-33.770667-27.776-53.738667-36.032-19.221333-7.829333-40.725333-12.544-63.552-12.544l0 0L688.426667 352.469333l-0.426667 0-4.501333 0.448-0.917333 0-6.250667 0.448-6.037333 0.661333c-13.205333 1.792-26.88-5.376-32.448-18.368-9.877333-21.248-22.165333-41.173333-37.162667-58.858667l0 0 0-0.234667c-14.762667-17.450667-32.917333-33.130667-52.373333-46.336-19.712-12.778667-41.664-23.296-64.938667-30.229333-22.4-6.698667-46.122667-10.304-71.189333-10.304-32.896 0-64.469333 6.528-93.12 17.941333l-1.344 0.661333c-29.994667 12.288-57.514667 30.890667-80.149333 53.738667-22.378667 22.613333-40.96 49.237333-53.290667 79.018667L183.808 342.4c-12.074667 29.098667-18.794667 60.906667-18.794667 94.485333s6.698667 65.6 18.794667 94.485333l0 0 0 0.213333C196.138667 561.557333 214.698667 588.885333 237.546667 611.733333L237.546667 611.733333zM459.157333 712.874667 459.157333 712.874667l0-12.544 10.517333 6.250667c9.173333 5.397333 20.586667 2.048 25.749333-6.933333 4.885333-9.173333 2.005333-20.821333-7.168-25.728l-10.282667-6.272 10.282667-5.802667c9.194667-5.162667 12.074667-16.576 7.168-25.984-5.162667-8.512-16.576-11.861333-25.749333-6.72l-10.517333 6.058667 0-11.882667c0-10.517333-8.490667-18.816-18.816-18.816-10.282667 0-18.794667 8.298667-18.794667 18.816l0 11.882667-10.304-6.058667c-8.96-5.12-20.608-1.792-25.536 6.72-5.354667 9.386667-2.453333 20.821333 6.72 25.984l10.304 5.802667-10.304 6.272c-9.173333 4.906667-12.074667 16.554667-6.72 25.728 4.928 8.981333 16.576 12.330667 25.536 6.933333l10.304-6.250667 0 12.544c0 10.282667 8.490667 18.581333 18.794667 18.581333C450.666667 731.456 459.157333 723.157333 459.157333 712.874667L459.157333 712.874667zM357.781333 880.832 357.781333 880.832c0 8.96-7.210667 16.362667-16.362667 16.362667s-16.362667-7.402667-16.362667-16.362667l0-10.538667-8.981333 5.248c-7.978667 4.501333-17.92 1.770667-22.4-6.037333-4.458667-7.765333-1.770667-17.92 5.845333-22.4l9.152-4.885333-9.152-5.44c-7.594667-4.288-10.304-14.442667-5.845333-22.421333 4.48-7.786667 14.421333-10.325333 22.4-6.037333l8.981333 5.44 0-10.901333c0-8.576 7.210667-16.170667 16.362667-16.170667s16.362667 7.573333 16.362667 16.170667l0 10.901333 9.344-5.44c7.808-4.288 17.92-1.749333 22.208 6.037333 4.693333 7.978667 1.557333 18.133333-6.037333 22.421333l-9.152 5.44 9.152 4.885333c7.594667 4.48 10.730667 14.634667 6.037333 22.4-4.288 7.808-14.4 10.538667-22.208 6.037333l-9.344-5.248L357.781333 880.832 357.781333 880.832z" /></svg>