<?xml version="1.0" standalone="no"?><!DOCTYPE svg PUBLIC "-//W3C//DTD SVG 1.1//EN" "http://www.w3.org/Graphics/SVG/1.1/DTD/svg11.dtd"><svg class="icon" width="200px" height="200.00px" viewBox="0 0 1024 1024" version="1.1" xmlns="http://www.w3.org/2000/svg"><path fill="#ffffff" d="M605.973333 431.637333l102.805333 0c14.016 0 25.514667 11.477333 25.514667 25.877333 0 8.405333-4.010667 16.042667-10.752 20.608l-428.8 341.44-68.330667 31.658667 30.634667-65.216 165.525333-302.976L324.693333 483.029333c-14.037333 0-25.706667-11.306667-25.706667-25.514667 0-6.570667 2.197333-12.032 5.824-16.405333L484.906667 183.872c4.736-7.082667 12.757333-10.752 20.8-10.752L505.706667 172.778667l266.154667 0c14.208 0 25.706667 11.477333 25.706667 25.514667 0 7.317333-2.752 13.504-7.104 18.218667L605.973333 431.637333 605.973333 431.637333zM635.114667 483.050667 635.114667 483.050667 550.186667 483.050667l0-0.384c-5.824 0-11.669333-1.813333-16.426667-5.994667-10.944-9.130667-12.224-25.344-2.901333-35.925333l185.194667-216.554667-196.864 0-145.472 207.466667 92.224 0 0 0c4.010667 0 8.192 0.896 12.010667 2.901333 12.416 6.933333 16.981333 22.613333 10.581333 35.008l-126.144 230.976L635.114667 483.050667 635.114667 483.050667z" /></svg>