<?xml version="1.0" standalone="no"?><!DOCTYPE svg PUBLIC "-//W3C//DTD SVG 1.1//EN" "http://www.w3.org/Graphics/SVG/1.1/DTD/svg11.dtd"><svg class="icon" width="200px" height="200.00px" viewBox="0 0 1024 1024" version="1.1" xmlns="http://www.w3.org/2000/svg"><path fill="#ffffff" d="M879.616 275.178667c0-95.253333-171.733333-144.896-340.8-144.896-169.045333 0-339.434667 49.642667-339.434667 144.896 0 17.429333 5.354667 33.536 16.106667 48.298667-48.32 26.858667-60.373333 59.050667-60.373333 83.178667 0 25.493333 13.418667 48.32 37.568 67.093333-40.256 22.805333-48.32 51.008-48.32 68.437333 0 73.770667 123.434667 107.306667 238.826667 107.306667 114.048 0 237.482667-33.536 237.482667-107.306667 0-6.698667-1.344-13.418667-4.010667-21.482667 85.845333-20.117333 150.250667-59.029333 150.250667-114.048 0-6.698667-1.344-13.418667-2.666667-20.117333C832.661333 362.389333 879.616 324.842667 879.616 275.178667zM538.837333 357.013333c-178.432 0-276.373333-53.674667-276.373333-81.834667s97.941333-81.834667 276.373333-81.834667c179.797333 0 277.76 53.674667 277.76 81.834667S718.634667 357.013333 538.837333 357.013333zM702.528 406.677333c0 20.117333-81.834667 68.437333-241.493333 68.437333s-242.858667-48.32-242.858667-68.437333c0-6.698667 14.762667-24.149333 53.696-38.890667 64.405333 34.88 166.357333 52.309333 266.986667 52.309333 56.384 0 112.704-5.354667 163.690667-16.106667L702.549333 406.677333zM269.162667 511.338667c54.997333 17.429333 123.413333 26.837333 191.850667 26.837333 29.525333 0 59.050667-1.344 87.210667-5.376l9.386667 8.042667c-5.376 12.074667-64.405333 44.288-174.421333 44.288-111.36 0-171.754667-32.213333-175.765333-42.944 1.344-2.688 14.762667-17.429333 57.685333-29.525333L269.162667 511.338667zM455.637333 661.589333c-14.741333 0-28.16 12.074667-30.848 26.837333-9.386667 8.042667-44.266667 21.461333-99.264 21.461333-44.288 0-76.48-9.365333-91.242667-16.085333 10.730667-10.730667 12.074667-28.16 4.010667-40.256-10.730667-14.741333-29.504-18.794667-44.266667-9.386667-25.472 17.429333-29.525333 36.224-29.525333 49.642667 0 54.997333 80.490667 79.168 161.024 79.168 80.469333 0 162.325333-24.170667 162.325333-79.168C487.850667 676.330667 474.432 661.589333 455.637333 661.589333zM435.52 794.410667c-14.741333 0-26.837333 10.730667-30.848 24.149333-6.698667 4.010667-29.525333 12.074667-65.728 12.074667-34.901333 0-57.706667-8.064-65.749333-12.074667-4.010667-13.418667-16.106667-24.149333-30.848-24.149333-17.450667 0-30.869333 14.741333-30.869333 32.213333 0 49.621333 68.437333 67.093333 127.488 67.093333 59.029333 0 128.789333-17.450667 128.789333-67.093333C467.733333 809.173333 452.970667 794.410667 435.52 794.410667z" /></svg>