<?xml version="1.0" standalone="no"?><!DOCTYPE svg PUBLIC "-//W3C//DTD SVG 1.1//EN" "http://www.w3.org/Graphics/SVG/1.1/DTD/svg11.dtd"><svg class="icon" width="200px" height="200.00px" viewBox="0 0 1024 1024" version="1.1" xmlns="http://www.w3.org/2000/svg"><path fill="#ffffff" d="M100.010667 410.944c62.442667-0.277333 365.461333-0.512 415.68 0 72.874667-19.349333 140.138667-69.952 126.122667-188.629333-14.442667-42.709333-55.808-131.498667-182.186667-113.173333-92.224 24.448-144.512 141.312-88.725333 226.368 3.093333 4.714667 4.885333 11.946667 0 14.165333-91.84 1.557333-183.722667-1.578667-275.562667 0C59.541333 361.834667 76.288 405.802667 100.010667 410.944zM506.346667 170.432c47.146667 7.36 84.864 63.210667 74.752 117.888-28.416 60.394667-99.584 83.498667-158.826667 23.594667C374.229333 209.536 474.538667 160.981333 506.346667 170.432zM819.285333 245.888c-140.778667-6.101333-203.242667 124.074667-149.461333 221.653333 1.962667 3.605333 7.829333 10.218667 9.344 14.165333L95.36 481.706667c-14.592 6.677333-34.453333 40.469333 0 61.290667 159.978667 0.789333 664.896 0.938667 742.592-4.714667C1030.826667 455.061333 939.008 250.901333 819.285333 245.888zM814.613333 481.685333c-66.688 1.728-125.12-55.658667-93.418667-122.624 56.661333-92.224 134.037333-43.370667 158.762667 0C904.917333 419.904 866.005333 465.834667 814.613333 481.685333zM613.781333 618.432c-133.44-2.56-370.304-1.770667-513.770667-4.693333-21.738667 1.685333-40.533333 44.629333-4.672 61.312l359.616 0c1.557333 3.114667-1.173333 5.077333-4.672 9.408-55.36 97.962667 2.346667 209.045333 93.397333 231.082667 121.877333 17.258667 203.264-95.189333 177.472-188.650667C709.781333 675.626667 674.090667 642.901333 613.781333 618.432zM590.421333 854.250667c-90.666667 12.053333-126.890667-78.677333-88.746667-141.482667 53.738667-57.365333 99.669333-44.16 140.138667-4.736C685.717333 755.605333 663.850667 831.232 590.421333 854.250667z" /></svg>