<svg xmlns="http://www.w3.org/2000/svg" xmlns:xlink="http://www.w3.org/1999/xlink" viewBox="0 0 478 307.5"><defs><style>.cls-1{fill:#fafbfd;}.cls-2{fill:#ebf4fb;}.cls-12,.cls-3{fill:#fff;}.cls-4{fill:#f2f5f8;}.cls-10,.cls-11,.cls-14,.cls-15,.cls-22,.cls-26,.cls-27,.cls-5,.cls-7,.cls-9{fill:none;}.cls-12,.cls-19,.cls-5{stroke:#a5b1bd;}.cls-10,.cls-11,.cls-12,.cls-14,.cls-15,.cls-16,.cls-17,.cls-18,.cls-19,.cls-22,.cls-26,.cls-27,.cls-5,.cls-7,.cls-9{stroke-miterlimit:10;}.cls-10,.cls-12,.cls-14,.cls-15,.cls-16,.cls-17,.cls-18,.cls-19,.cls-22,.cls-26,.cls-27,.cls-5,.cls-7,.cls-9{stroke-width:2px;}.cls-6{fill:#f1f5f8;}.cls-7{stroke:#b1b9c4;}.cls-8{fill:#f2f4f8;}.cls-9{stroke:#a7b0ba;}.cls-10,.cls-22{stroke:#d4d9df;}.cls-10,.cls-14,.cls-27{stroke-linecap:round;}.cls-11{stroke:#000;}.cls-13,.cls-19{fill:#f3f7fa;}.cls-14{stroke:#d7d8da;}.cls-15{stroke:#a8b0bb;}.cls-16{stroke:#a5b3c0;fill:url(#lg);}.cls-17,.cls-18{stroke:#a7b0b9;}.cls-17{fill:url(#lg2);}.cls-18{fill:url(#lg3);}.cls-20{fill:#fdfdfd;}.cls-21{fill:#f5f9fc;}.cls-23{fill:#f6fafb;}.cls-24{fill:#f6f7fb;}.cls-25{fill:#f9f8fd;}.cls-26{stroke:#d5dade;}.cls-27{stroke:#d4d8db;}</style><linearGradient id="lg" x1="371.5" y1="102.5" x2="371.5" y2="122.5" gradientUnits="userSpaceOnUse"><stop offset="0" stop-color="#fafbfd"/><stop offset="1" stop-color="#f0f5f9"/></linearGradient><linearGradient id="lg2" y1="108.5" y2="108.5" xlink:href="#lg"/><linearGradient id="lg3" y1="114.5" y2="114.5" xlink:href="#lg"/></defs><title>empty-hill</title><g id="图层_2" data-name="图层 2"><g id="图层_2-2" data-name="图层 2"><path class="cls-1" d="M477,238q0,10.37-.87,20.53C420,258,107,258,1.88,258.55Q1,248.39,1,238C1,106.56,107.56,0,239,0S477,106.56,477,238Z"/></g><g id="图层_7" data-name="图层 7"><circle class="cls-2" cx="150.5" cy="155.5" r="82"/></g><g id="图层_6" data-name="图层 6"><polygon class="cls-3" points="245.5 105.5 151.5 199.5 151.5 258.5 397.5 258.5 245.5 105.5"/><polygon class="cls-4" points="245.5 105.5 245.5 212.5 268.5 235.5 268.5 258.5 397.5 258.5 245.5 105.5"/><polyline class="cls-5" points="397.5 258.5 245.5 105.5 151.5 199.5"/><polygon class="cls-3" points="40.5 258.5 40.5 226.5 113.5 153.5 186.5 226.5 186.5 258.5 40.5 258.5"/><polygon class="cls-6" points="128.5 258.5 128.5 226.5 113.5 212.5 113.5 153.5 186.5 226.5 186.5 258.5 128.5 258.5"/><polyline class="cls-7" points="40.5 226.5 113.5 153.5 186.5 226.5"/><path class="cls-5" d="M151.5,199.5"/><polygon class="cls-8" points="333.5 129.5 282.5 180.5 333.5 230.5 333.5 258.5 440.5 258.5 440.5 236.5 333.5 129.5"/><polygon class="cls-3" points="333.5 129.5 282.5 180.5 333.5 230.5 333.5 129.5"/><polyline class="cls-9" points="282.5 180.5 333.5 129.5 440.5 236.5"/><line class="cls-10" x1="349.5" y1="169.5" x2="365.5" y2="185.5"/><line class="cls-10" x1="368.58" y1="209.58" x2="372.5" y2="213.5"/><line class="cls-10" x1="354.5" y1="195.5" x2="364.75" y2="205.75"/><line class="cls-10" x1="276" y1="160" x2="279.5" y2="163.5"/><path class="cls-10" d="M276,160"/><path class="cls-10" d="M272.67,156.67"/><line class="cls-10" x1="259.5" y1="143.5" x2="272.67" y2="156.67"/></g><g id="图层_3" data-name="图层 3"><line class="cls-5" x1="333.87" y1="259" x2="478" y2="259"/><path class="cls-11" d="M333.87,259"/><path class="cls-11" d="M314.25,259"/><line class="cls-5" y1="258" x2="314.25" y2="258"/><line class="cls-5" x1="430.33" y1="274.5" x2="443.5" y2="274.5"/><path class="cls-5" d="M430.33,274.5"/><path class="cls-5" d="M407.5,274.5"/><line class="cls-5" x1="379.5" y1="274.5" x2="407.5" y2="274.5"/><path class="cls-5" d="M379.5,274.5"/><path class="cls-5" d="M306.17,274.5"/><line class="cls-5" x1="300.5" y1="274.5" x2="306.17" y2="274.5"/><path class="cls-5" d="M300.5,274.5"/><path class="cls-5" d="M292,274.5"/><line class="cls-5" x1="264.5" y1="274.5" x2="292" y2="274.5"/><path class="cls-5" d="M264.5,274.5"/><path class="cls-5" d="M236.83,274.5"/><line class="cls-5" x1="194.67" y1="274.5" x2="236.83" y2="274.5"/><path class="cls-5" d="M194.67,274.5"/><path class="cls-5" d="M155.33,274.5"/><line class="cls-5" x1="127.67" y1="274.5" x2="155.33" y2="274.5"/><path class="cls-5" d="M127.67,274.5"/><path class="cls-5" d="M83.33,274.5"/><line class="cls-5" x1="70.5" y1="274.5" x2="83.33" y2="274.5"/><path class="cls-5" d="M70.5,274.5"/><path class="cls-5" d="M59,274.5"/><line class="cls-5" x1="23.5" y1="274.5" x2="59" y2="274.5"/><line class="cls-5" x1="458.63" y1="290.5" x2="464.5" y2="290.5"/><path class="cls-5" d="M458.63,290.5"/><path class="cls-5" d="M449.87,290.5"/><line class="cls-5" x1="394.13" y1="290.5" x2="449.87" y2="290.5"/><path class="cls-5" d="M394.13,290.5"/><path class="cls-5" d="M385.38,290.5"/><line class="cls-5" x1="365.25" y1="290.5" x2="385.38" y2="290.5"/><path class="cls-5" d="M365.25,290.5"/><path class="cls-5" d="M330.75,290.5"/><line class="cls-5" x1="255.38" y1="290.5" x2="330.75" y2="290.5"/><path class="cls-5" d="M255.38,290.5"/><path class="cls-5" d="M246.25,290.5"/><line class="cls-5" x1="233.25" y1="290.5" x2="246.25" y2="290.5"/><path class="cls-5" d="M233.25,290.5"/><path class="cls-5" d="M215.75,290.5"/><line class="cls-5" x1="209.63" y1="290.5" x2="215.75" y2="290.5"/><path class="cls-5" d="M209.63,290.5"/><path class="cls-5" d="M200.75,290.5"/><line class="cls-5" x1="144.87" y1="290.5" x2="200.75" y2="290.5"/><path class="cls-5" d="M144.87,290.5"/><path class="cls-5" d="M107.25,290.5"/><line class="cls-5" x1="51" y1="290.5" x2="107.25" y2="290.5"/><path class="cls-5" d="M51,290.5"/><path class="cls-5" d="M30.25,290.5"/><line class="cls-5" x1="16.5" y1="290.5" x2="30.25" y2="290.5"/><line class="cls-5" x1="405.94" y1="306.5" x2="438.5" y2="306.5"/><path class="cls-5" d="M405.94,306.5"/><path class="cls-5" d="M361.17,306.5"/><line class="cls-5" x1="348.83" y1="306.5" x2="361.17" y2="306.5"/><path class="cls-5" d="M348.83,306.5"/><path class="cls-5" d="M340,306.5"/><line class="cls-5" x1="305.17" y1="306.5" x2="340" y2="306.5"/><path class="cls-5" d="M305.17,306.5"/><path class="cls-5" d="M282.17,306.5"/><line class="cls-5" x1="226.67" y1="306.5" x2="282.17" y2="306.5"/><path class="cls-5" d="M226.67,306.5"/><path class="cls-5" d="M195.67,306.5"/><line class="cls-5" x1="168.83" y1="306.5" x2="195.67" y2="306.5"/><path class="cls-5" d="M168.83,306.5"/><path class="cls-5" d="M150.33,306.5"/><line class="cls-5" x1="137.17" y1="306.5" x2="150.33" y2="306.5"/><path class="cls-5" d="M137.17,306.5"/><path class="cls-5" d="M126.06,306.5"/><line class="cls-5" x1="91.67" y1="306.5" x2="126.06" y2="306.5"/><path class="cls-5" d="M91.67,306.5"/><path class="cls-5" d="M68.83,306.5"/><line class="cls-5" x1="40.5" y1="306.5" x2="68.83" y2="306.5"/></g><g id="图层_4" data-name="图层 4"><path class="cls-12" d="M409.5,52.5c0,20.43-33,56-38,59-5-3-36-38.57-36-59a37,37,0,0,1,74,0Z"/><path class="cls-13" d="M410,52c0,14.83-17.05,37-28.5,49.5-5,0-14,0-19.76.22L359.5,99.5c3,0,11,0,15.52-.21,11.9-13.91,26.48-34.94,26.48-45.79,0-20.43-14-31-28.5-38.5A37,37,0,0,1,410,52Z"/><path class="cls-5" d="M409.5,52.5c0,20.43-33,56-38,59-5-3-36-38.57-36-59a37,37,0,0,1,74,0Z"/><path class="cls-14" d="M386.5,30.5c4,2,7,7,8,10"/><line class="cls-15" x1="335.55" y1="50.66" x2="409.45" y2="50.66"/><line class="cls-15" x1="339.55" y1="66.66" x2="405.45" y2="66.66"/><path class="cls-16" d="M377.46,122.5h-12s-3-1-3-3v-17h18v17.13C380.5,121.5,377.46,122.5,377.46,122.5Z"/><line class="cls-17" x1="362.5" y1="108.5" x2="380.5" y2="108.5"/><line class="cls-18" x1="362.5" y1="114.5" x2="380.5" y2="114.5"/></g><g id="图层_5" data-name="图层 5"><path class="cls-19" d="M128.5,200.5l-14,42a15.89,15.89,0,0,0,14,8,19.06,19.06,0,0,0,15-7Z"/><line class="cls-5" x1="128.5" y1="232.5" x2="128.5" y2="257.5"/><line class="cls-5" x1="128.5" y1="240.38" x2="133.5" y2="235.5"/><line class="cls-5" x1="128.5" y1="245.75" x2="121.5" y2="239.5"/><path class="cls-19" d="M226.5,200.5l-14,42a15.89,15.89,0,0,0,14,8,19.06,19.06,0,0,0,15-7Z"/><line class="cls-5" x1="226.5" y1="232.5" x2="226.5" y2="257.5"/><line class="cls-5" x1="226.5" y1="240.38" x2="231.5" y2="235.5"/><line class="cls-5" x1="226.5" y1="245.75" x2="219.5" y2="239.5"/><path class="cls-19" d="M268.46,195.5l-15.23,45.68a17.28,17.28,0,0,0,15.23,8.7,20.73,20.73,0,0,0,16.32-7.61Z"/><line class="cls-5" x1="268.46" y1="230.31" x2="268.46" y2="257.5"/><line class="cls-5" x1="268.46" y1="238.87" x2="273.89" y2="233.57"/><line class="cls-5" x1="268.46" y1="244.72" x2="260.84" y2="237.92"/><path class="cls-19" d="M440.57,208.5l-12,36.11a13.66,13.66,0,0,0,12,6.88,16.38,16.38,0,0,0,12.89-6Z"/><line class="cls-5" x1="440.57" y1="237.01" x2="440.57" y2="258.5"/><path class="cls-5" d="M444.87,238.59"/><path class="cls-5" d="M440.57,242.78"/><line class="cls-5" x1="440.57" y1="247.4" x2="434.55" y2="242.03"/><path class="cls-19" d="M400.33,181.5l-18.67,59s5.33,9.67,18.67,9.67,20-8.33,20-8.33Z"/><line class="cls-5" x1="400.33" y1="225.17" x2="400.33" y2="258.5"/><line class="cls-5" x1="400.33" y1="234.67" x2="407" y2="228.17"/><line class="cls-5" x1="400.33" y1="241.83" x2="391" y2="233.5"/><path class="cls-19" d="M186.56,207.5l-12.28,36.84a13.94,13.94,0,0,0,12.28,7,16.72,16.72,0,0,0,13.16-6.14Z"/><line class="cls-5" x1="186.56" y1="235.57" x2="186.56" y2="257.5"/><path class="cls-5" d="M190.95,238.2"/><path class="cls-5" d="M186.56,242.48"/><line class="cls-5" x1="186.56" y1="247.19" x2="180.42" y2="241.71"/><path class="cls-19" d="M40.55,206.5,28,244.08a14.21,14.21,0,0,0,12.53,7.16A17,17,0,0,0,54,245Z"/><line class="cls-5" x1="40.55" y1="235.13" x2="40.55" y2="257.5"/><line class="cls-5" x1="40.55" y1="242.18" x2="45.03" y2="237.82"/><line class="cls-5" x1="40.55" y1="246.99" x2="34.29" y2="241.39"/></g><g id="图层_8" data-name="图层 8"><path class="cls-20" d="M83.5,156.5a6,6,0,0,0-3.15.9A9.49,9.49,0,0,0,61.5,159c0,.27,0,.53,0,.79A4.49,4.49,0,1,0,60,168.5H83.5a6,6,0,0,0,0-12Z"/><path class="cls-21" d="M83.5,156.5a6,6,0,0,0-3.15.9A9.49,9.49,0,0,0,71,149.5c-2.53,0-5,2.32-7,4.73,6.54-3.73,14.54.27,14.54,6.27,6-2,10,2,9,6a5.2,5.2,0,0,0,2-4A6,6,0,0,0,83.5,156.5Z"/><path class="cls-22" d="M83.5,156.5a6,6,0,0,0-3.15.9A9.49,9.49,0,0,0,61.5,159c0,.27,0,.53,0,.79A4.49,4.49,0,1,0,60,168.5H83.5a6,6,0,0,0,0-12Z"/><path class="cls-20" d="M219.5,95.5a7,7,0,0,0-3.07.72A12,12,0,0,0,192.5,97.5s0,.06,0,.09a6,6,0,1,0-1,11.91h28a7,7,0,0,0,0-14Z"/><path class="cls-23" d="M219.5,95.5a7,7,0,0,0-3.07.72A12,12,0,0,0,204.5,85.5c-1.85,0-7.91,1.88-8.39,4.58,10.39-4.58,17.39,2.42,18.47,9.41,4.92-3,11.92,1,9.92,8C229.5,100.5,223.37,95.5,219.5,95.5Z"/><path class="cls-22" d="M219.5,95.5a7,7,0,0,0-3.07.72A12,12,0,0,0,192.5,97.5s0,.06,0,.09a6,6,0,1,0-1,11.91h28a7,7,0,0,0,0-14Z"/><path class="cls-20" d="M295.5,46.5a10,10,0,0,0-2.58.35,15.49,15.49,0,0,0-30.35,2.8A8.5,8.5,0,1,0,261,66.5h34.5a10,10,0,0,0,0-20Z"/><path class="cls-24" d="M295.5,46.5a10,10,0,0,0-2.58.35A15.49,15.49,0,0,0,278,35.5c-3.21,0-7.18,2-9.65,3.64C276.5,36.5,288.5,41.5,290.5,50.5c7-2,14,2,13,12C309.5,53.5,301,46.5,295.5,46.5Z"/><path class="cls-22" d="M295.5,46.5a10,10,0,0,0-2.58.35,15.49,15.49,0,0,0-30.35,2.8A8.5,8.5,0,1,0,261,66.5h34.5a10,10,0,0,0,0-20Z"/><path class="cls-20" d="M455,99.5a8.45,8.45,0,0,0-3.88.94,13,13,0,0,0-25.58,2.14,7,7,0,1,0-1,13.91H455a8.5,8.5,0,0,0,0-17Z"/><path class="cls-25" d="M455,99.5a8.45,8.45,0,0,0-3.88.94A13,13,0,0,0,438.5,90.5c-2.3,0-3.87.6-7,3,8-2,17,4,18,11,5-2,11,1,11,9,2-2,3-3,3-5.5A8.5,8.5,0,0,0,455,99.5Z"/><path class="cls-26" d="M455,99.5a8.45,8.45,0,0,0-3.88.94,13,13,0,0,0-25.58,2.14,7,7,0,1,0-1,13.91H455a8.5,8.5,0,0,0,0-17Z"/></g><g id="图层_10" data-name="图层 10"><line class="cls-26" x1="293.83" y1="74.5" x2="299.5" y2="74.5"/><path class="cls-26" d="M293.83,74.5"/><path class="cls-26" d="M287.42,74.5"/><line class="cls-26" x1="269.5" y1="74.5" x2="287.42" y2="74.5"/><line class="cls-26" x1="452.33" y1="124.5" x2="459.5" y2="124.5"/><path class="cls-26" d="M452.33,124.5"/><path class="cls-26" d="M447.17,124.5"/><line class="cls-26" x1="428.5" y1="124.5" x2="447.17" y2="124.5"/><line class="cls-26" x1="78.5" y1="104.5" x2="97.5" y2="104.5"/><line class="cls-26" x1="69.5" y1="111.5" x2="92.5" y2="111.5"/></g><g id="图层_11" data-name="图层 11"><path class="cls-27" d="M148.5,97.5c3.44,0,9.5,5.5,9.5,7.5,0-2,6.45-7.5,9.5-7.5"/><path class="cls-27" d="M409.5,146.5c3.44,0,6.5,4.5,6.5,6.5,0-2,3.45-6.5,6.5-6.5"/><path class="cls-27" d="M300.5,103.5c3.44,0,9.5,5.5,9.5,7.5,0-2,6.45-7.5,9.5-7.5"/><path class="cls-27" d="M118.5,132.5c3.44,0,7.5,4.5,7.5,6.5,0-2,3.45-6.5,6.5-6.5"/><path class="cls-27" d="M164.5,151.5c3.44,0,7.5,4.5,7.5,6.5,0-2,4.45-6.5,7.5-6.5"/></g></g></svg>