<svg xmlns="http://www.w3.org/2000/svg" xmlns:xlink="http://www.w3.org/1999/xlink" viewBox="0 0 380.61 377.51"><defs><style>.cls-1,.cls-14,.cls-4,.cls-5{fill:none;}.cls-2{fill:#f2f2f2;}.cls-3{fill:#ffb450;}.cls-4,.cls-5{stroke:#ffb450;}.cls-14,.cls-4,.cls-5{stroke-miterlimit:10;}.cls-14,.cls-5{stroke-linecap:round;}.cls-6{fill:#ff9800;}.cls-7{clip-path:url(#clip-path);}.cls-8{fill:#fbbc05;}.cls-9{fill:#ea4335;}.cls-10{fill:#34a853;}.cls-11{fill:#4285f4;}.cls-12{fill:#2319dc;}.cls-13{fill:#008373;}.cls-14{stroke:#d6d6d6;stroke-width:6px;}</style><clipPath id="clip-path"><path class="cls-1" d="M179.15,199.73H160.61v7.69h10.67c-1.12,5.49-6.23,8.35-12.78,7.56a10.56,10.56,0,0,1-8.27-5.82c-4.28-8.89,2-17.56,10.38-17.56a11.5,11.5,0,0,1,7.33,2.62l5.79-5.79a20.06,20.06,0,0,0-19.82-3.89,18.78,18.78,0,0,0-12.09,12.06c-4.52,13.93,5.59,26.65,18.8,26.65,9.95,0,19-7.24,19-19.9A16.51,16.51,0,0,0,179.15,199.73Z"/></clipPath></defs><title>step-three</title><g id="图层_2" data-name="图层 2"><g id="图层_4" data-name="图层 4"><ellipse class="cls-2" cx="190.36" cy="362.25" rx="153.75" ry="15.25"/></g><g id="图层_3" data-name="图层 3"><path class="cls-3" d="M7.21,25.46l1.52,3.08a.67.67,0,0,0,.51.37l3.4.49A.67.67,0,0,1,13,30.55L10.55,33a.67.67,0,0,0-.19.6l.58,3.39a.67.67,0,0,1-1,.71l-3-1.6a.67.67,0,0,0-.63,0l-3,1.6a.67.67,0,0,1-1-.71l.58-3.39a.67.67,0,0,0-.19-.6L.2,30.55a.67.67,0,0,1,.37-1.15L4,28.91a.67.67,0,0,0,.51-.37L6,25.46A.67.67,0,0,1,7.21,25.46Z"/><circle class="cls-3" cx="73.11" cy="8.5" r="3"/><circle class="cls-4" cx="109.11" cy="25.5" r="5"/><polygon class="cls-4" points="191.61 16.5 186.76 18.9 182.26 15.9 182.61 10.5 187.46 8.1 191.96 11.1 191.61 16.5"/><polygon class="cls-3" points="248.94 45.67 245.15 47.9 241.32 45.74 241.28 41.33 245.07 39.1 248.9 41.26 248.94 45.67"/><polygon class="cls-3" points="277.11 26.1 273.3 32.7 277.11 33.5 277.11 26.1"/><polygon class="cls-3" points="319.7 70.97 303.52 68.03 304.34 65.08 319.7 70.97"/><path class="cls-3" d="M318.67,42.94s-1.56.56-3.06,1c-1.5-.44-3.06-1-3.06-1l1,3.06-1,3.06,3.06-1,3.06,1-1-3.06Z"/><path class="cls-3" d="M276.61,55.67s-.71,1.5-1.46,2.87c-1.37.75-2.87,1.46-2.87,1.46l2.87,1.46,1.46,2.87,1.46-2.87L280.94,60l-2.87-1.46Z"/><polygon class="cls-3" points="25.11 59.5 37.11 50.5 34.11 59.5 25.11 59.5"/><circle class="cls-3" cx="30.61" cy="89" r="1.5"/><circle class="cls-3" cx="343.61" cy="94" r="1.5"/><circle class="cls-3" cx="324.11" cy="23.5" r="3"/><path class="cls-3" d="M149.11,24.5c0,2,3,10,6,10-3,0-6,9-6,11,0-2-3-11-6-11C146.11,34.5,149.11,26.5,149.11,24.5Z"/><path class="cls-4" d="M58,57.81c1.06,1.06,6.89,3.71,8.49,2.12-1.59,1.59,1.59,8,2.65,9-1.06-1.06-7.42-4.24-9-2.65C61.75,64.7,59.1,58.87,58,57.81Z"/><path class="cls-5" d="M374.11,3.5h6m-3,3V.5"/></g><g id="图层_5" data-name="图层 5"><path class="cls-1" d="M165,196.44h20.5v20.5H165Z"/><path class="cls-6" d="M190.11,94.5a110,110,0,1,0,110,110A110,110,0,0,0,190.11,94.5Zm0,210a100,100,0,1,1,100-100A100,100,0,0,1,190.11,304.5Z"/><polygon class="cls-6" points="271.2 282.34 268.73 279.87 264.48 284.12 266.95 286.59 267.19 289.65 304.08 326.54 311.15 319.47 274.26 282.58 271.2 282.34"/></g><g id="图层_6" data-name="图层 6"><g class="cls-7"><path class="cls-8" d="M140.11,214.82V192.61l14.52,11.1Z"/></g><g class="cls-7"><path class="cls-9" d="M140.11,192.9,154.63,204l6-5.21,20.5-3.33v-12h-41Z"/></g><g class="cls-7"><path class="cls-10" d="M140.11,215.1l25.63-19.65,6.75.85,8.63-12.81v41h-41Z"/></g><g class="cls-7"><path class="cls-11" d="M181.11,224.22l-26.48-20.5-3.42-2.56,29.9-8.54Z"/></g><g id="图层_2-2" data-name="图层 2"><g id="Layer_1" data-name="Layer 1"><g id="g2225"><path id="path2227" class="cls-12" d="M231.06,238.64c2.79-1.74,1.07-5.22.69-6-.59-1.17-2.79-2.78-4.66-1.92-2.39,1.11-1.47,4.79-1.47,4.79.26,1.76,2.63,4.86,5.44,3.12m3.43-8.11c1.67-.6,2.32-3,1.46-5.38s-2.89-3.82-4.56-3.21-2.34,3-1.48,5.39,2.9,3.81,4.58,3.21m7.31-2.31c2.34-.51,2.92-3.42,2.55-5.33a4.33,4.33,0,0,0-4.27-3.28c-1.71.21-2.79,3.46-2.37,5.18.51,2.11,1.75,3.94,4.09,3.43m10-.15c-.31-.86-2-3.22-4.64-2.26s-2.14,3.57-1.51,5.31,1.57,3.93,4.87,2.66,1.6-4.82,1.29-5.7m-.64,8.82a32.61,32.61,0,0,1-7.48-3.6c-4.27-3.28-7.55-.14-8.06,2.49a19.21,19.21,0,0,1-2.19,5.2c-.15.47-3.3,4-1.06,7.48s5.26,2.35,5.26,2.35a18.1,18.1,0,0,0,4.7-2.1,10.8,10.8,0,0,1,4.87-1.58s6.79-.15,7-4.65-3.07-5.6-3.07-5.6"/></g></g></g><g id="图层_2-3" data-name="图层 2"><g id="svg2"><g id="layer1"><path id="path2998" class="cls-13" d="M216.11,158.61l7.91,2.78v28.08L235.27,183l-5.51-2.59-3.48-8.66L244,178v9L224.08,198.5l-8-4.43Z"/></g></g></g></g><g id="图层_7" data-name="图层 7"><path class="cls-14" d="M134.11,256.5c4,8,14,16,21,18"/></g></g></svg>