<svg xmlns="http://www.w3.org/2000/svg" viewBox="0 0 380.61 377.51"><defs><style>.cls-1{fill:#f2f2f2;}.cls-2{fill:#67b8ef;}.cls-3,.cls-4{fill:none;stroke:#67b8ef;stroke-miterlimit:10;}.cls-4{stroke-linecap:round;}.cls-5{fill:#2196f3;}.cls-6{fill:#e2e2e2;}</style></defs><title>step-three</title><g id="图层_2" data-name="图层 2"><g id="图层_4" data-name="图层 4"><ellipse class="cls-1" cx="190.36" cy="362.25" rx="153.75" ry="15.25"/></g><g id="图层_3" data-name="图层 3"><path class="cls-2" d="M7.21,25.46l1.52,3.08a.67.67,0,0,0,.51.37l3.4.49A.67.67,0,0,1,13,30.55L10.55,33a.67.67,0,0,0-.19.6l.58,3.39a.67.67,0,0,1-1,.71l-3-1.6a.67.67,0,0,0-.63,0l-3,1.6a.67.67,0,0,1-1-.71l.58-3.39a.67.67,0,0,0-.19-.6L.2,30.55a.67.67,0,0,1,.37-1.15L4,28.91a.67.67,0,0,0,.51-.37L6,25.46A.67.67,0,0,1,7.21,25.46Z"/><circle class="cls-2" cx="73.11" cy="8.5" r="3"/><circle class="cls-3" cx="109.11" cy="25.5" r="5"/><polygon class="cls-3" points="191.61 16.5 186.76 18.9 182.26 15.9 182.61 10.5 187.46 8.1 191.96 11.1 191.61 16.5"/><polygon class="cls-2" points="248.94 45.67 245.15 47.9 241.32 45.74 241.28 41.33 245.07 39.1 248.9 41.26 248.94 45.67"/><polygon class="cls-2" points="277.11 26.1 273.3 32.7 277.11 33.5 277.11 26.1"/><polygon class="cls-2" points="319.7 70.97 303.52 68.03 304.34 65.08 319.7 70.97"/><path class="cls-2" d="M318.67,42.94s-1.56.56-3.06,1c-1.5-.44-3.06-1-3.06-1l1,3.06-1,3.06,3.06-1,3.06,1-1-3.06Z"/><path class="cls-2" d="M276.61,55.67s-.71,1.5-1.46,2.87c-1.37.75-2.87,1.46-2.87,1.46l2.87,1.46,1.46,2.87,1.46-2.87L280.94,60l-2.87-1.46Z"/><polygon class="cls-2" points="25.11 59.5 37.11 50.5 34.11 59.5 25.11 59.5"/><circle class="cls-2" cx="30.61" cy="89" r="1.5"/><circle class="cls-2" cx="343.61" cy="94" r="1.5"/><circle class="cls-2" cx="324.11" cy="23.5" r="3"/><path class="cls-2" d="M149.11,24.5c0,2,3,10,6,10-3,0-6,9-6,11,0-2-3-11-6-11C146.11,34.5,149.11,26.5,149.11,24.5Z"/><path class="cls-3" d="M58,57.81c1.06,1.06,6.89,3.71,8.49,2.12-1.59,1.59,1.59,8,2.65,9-1.06-1.06-7.42-4.24-9-2.65C61.75,64.7,59.1,58.87,58,57.81Z"/><path class="cls-4" d="M374.11,3.5h6m-3,3V.5"/></g><g id="图层_5" data-name="图层 5"><path class="cls-5" d="M129.11,138.5a20.14,20.14,0,0,0-2.29.14,31,31,0,0,0-60.56,5.81,17.49,17.49,0,1,0-5.65,34h68.5a20,20,0,0,0,0-40Z"/></g><g id="图层_6" data-name="图层 6"><circle class="cls-5" cx="302.11" cy="177.5" r="23"/><rect class="cls-6" x="256.11" y="210.5" width="94" height="14" rx="7" ry="7"/><polygon class="cls-5" points="125.31 205.5 114.91 205.5 109.72 214.5 114.91 223.5 125.31 223.5 130.5 214.5 125.31 205.5"/><rect class="cls-6" x="99.11" y="226.5" width="43" height="7" rx="3.5" ry="3.5"/><polygon class="cls-5" points="97.61 275.11 83.11 300.22 112.11 300.22 97.61 275.11"/><rect class="cls-6" x="66.11" y="307.5" width="66" height="9" rx="4.5" ry="4.5"/><polygon class="cls-5" points="245.11 252.87 251.47 265.75 265.68 267.82 255.4 277.84 257.82 292 245.11 285.31 232.4 292 234.83 277.84 224.54 267.82 238.75 265.75 245.11 252.87"/><rect class="cls-6" x="211.11" y="300.5" width="72" height="11" rx="5.5" ry="5.5"/></g></g></svg>