<svg xmlns="http://www.w3.org/2000/svg" viewBox="0 0 380.61 377.51"><defs><style>.cls-1{fill:#f2f2f2;}.cls-2{fill:#ea73a1;}.cls-3,.cls-4{fill:none;stroke:#ea73a1;stroke-miterlimit:10;}.cls-4{stroke-linecap:round;}.cls-5{fill:#e91e63;}</style></defs><title>step-four</title><g id="图层_2" data-name="图层 2"><g id="图层_4" data-name="图层 4"><ellipse class="cls-1" cx="190.36" cy="362.25" rx="153.75" ry="15.25"/></g><g id="图层_3" data-name="图层 3"><path class="cls-2" d="M7.21,25.46l1.52,3.08a.67.67,0,0,0,.51.37l3.4.49A.67.67,0,0,1,13,30.55L10.55,33a.67.67,0,0,0-.19.6l.58,3.39a.67.67,0,0,1-1,.71l-3-1.6a.67.67,0,0,0-.63,0l-3,1.6a.67.67,0,0,1-1-.71l.58-3.39a.67.67,0,0,0-.19-.6L.2,30.55a.67.67,0,0,1,.37-1.15L4,28.91a.67.67,0,0,0,.51-.37L6,25.46A.67.67,0,0,1,7.21,25.46Z"/><circle class="cls-2" cx="73.11" cy="8.5" r="3"/><circle class="cls-3" cx="109.11" cy="25.5" r="5"/><polygon class="cls-3" points="191.61 16.5 186.76 18.9 182.26 15.9 182.61 10.5 187.46 8.1 191.96 11.1 191.61 16.5"/><polygon class="cls-2" points="248.94 45.67 245.15 47.9 241.32 45.74 241.28 41.33 245.07 39.1 248.9 41.26 248.94 45.67"/><polygon class="cls-2" points="277.11 26.1 273.3 32.7 277.11 33.5 277.11 26.1"/><polygon class="cls-2" points="319.7 70.97 303.52 68.03 304.34 65.08 319.7 70.97"/><path class="cls-2" d="M318.67,42.94s-1.56.56-3.06,1c-1.5-.44-3.06-1-3.06-1l1,3.06-1,3.06,3.06-1,3.06,1-1-3.06Z"/><path class="cls-2" d="M276.61,55.67s-.71,1.5-1.46,2.87c-1.37.75-2.87,1.46-2.87,1.46l2.87,1.46,1.46,2.87,1.46-2.87L280.94,60l-2.87-1.46Z"/><polygon class="cls-2" points="25.11 59.5 37.11 50.5 34.11 59.5 25.11 59.5"/><circle class="cls-2" cx="30.61" cy="89" r="1.5"/><circle class="cls-2" cx="343.61" cy="94" r="1.5"/><circle class="cls-2" cx="324.11" cy="23.5" r="3"/><path class="cls-2" d="M149.11,24.5c0,2,3,10,6,10-3,0-6,9-6,11,0-2-3-11-6-11C146.11,34.5,149.11,26.5,149.11,24.5Z"/><path class="cls-3" d="M58,57.81c1.06,1.06,6.89,3.71,8.49,2.12-1.59,1.59,1.59,8,2.65,9-1.06-1.06-7.42-4.24-9-2.65C61.75,64.7,59.1,58.87,58,57.81Z"/><path class="cls-4" d="M374.11,3.5h6m-3,3V.5"/></g><g id="图层_6" data-name="图层 6"><path class="cls-5" d="M286.11,117.45a27.4,27.4,0,0,0-27.32-27.32H122a27.3,27.3,0,0,0-27.21,27.32L94.7,336l95.7-41,95.7,41Z"/></g></g></svg>