<svg xmlns="http://www.w3.org/2000/svg" viewBox="0 0 130.71 127.57"><defs><style>.cls-1{fill:#f0f5f7;}.cls-2{fill:#88ecfd;}.cls-3{fill:#ff6e7c;}.cls-4{fill:#e56470;}.cls-5{fill:#fee785;}</style></defs><ellipse class="cls-1" cx="51.5" cy="120.43" rx="51.5" ry="7.14"/><polygon class="cls-2" points="93.88 122.22 16.65 92.18 53.47 0 130.71 30.04 93.88 122.22"/><polygon class="cls-3" points="93.5 117.93 2.5 117.93 3.5 8.93 94.5 8.93 93.5 117.93"/><rect class="cls-4" x="16" y="16.43" width="66" height="14"/><rect class="cls-4" x="16" y="37.43" width="12" height="13"/><rect class="cls-4" x="16" y="57.43" width="12" height="13"/><rect class="cls-4" x="16" y="77.43" width="12" height="13"/><rect class="cls-4" x="16" y="97.43" width="12" height="13"/><rect class="cls-4" x="36" y="42.43" width="46" height="4"/><rect class="cls-4" x="36" y="62.43" width="46" height="4"/><rect class="cls-4" x="36" y="82.43" width="46" height="4"/><rect class="cls-4" x="36" y="102.43" width="46" height="4"/><polygon class="cls-5" points="73 8.43 73 40.43 80 32.43 87 40.43 87 8.43 73 8.43"/></svg>