<svg xmlns="http://www.w3.org/2000/svg" viewBox="0 0 272 141"><defs><style>.cls-1{fill:#f9de6b;opacity:0.3;}.cls-2{fill:#f7b940;}.cls-3{fill:#ffd36e;}.cls-4{fill:#6e5532;}.cls-5{fill:#ffcd57;}.cls-6{fill:#fec548;}</style></defs><polygon class="cls-1" points="0 119 22 137 65 120 106 141 195 119 0 119"/><polygon class="cls-2" points="0 119 35 80 62 119 0 119"/><polygon class="cls-2" points="120 0 26 119 195 119 120 0"/><polygon class="cls-3" points="22 119 35 80 62 119 22 119"/><polygon class="cls-3" points="88 119 195 119 120 0 88 119"/><path class="cls-4" d="M163.72,40a4.52,4.52,0,1,0-2.81,5.74l.09,0A9,9,0,0,0,177,40Z"/><path class="cls-4" d="M172,34s-4,5-7,7c1,1,9,1,10,0C175,39,172,34,172,34Z"/><polygon class="cls-4" points="152 43 156 44 156 42 152 43"/><circle class="cls-4" cx="183" cy="44" r="1"/><circle class="cls-4" cx="190" cy="44" r="1"/><circle class="cls-4" cx="197" cy="44" r="1"/><path class="cls-5" d="M272,106c0-10-13-42-28-42-19,0-29,33-29,42Z"/><path class="cls-6" d="M244,64c17,0,28,35,28,42H259S257,75,244,64Z"/></svg>
