<svg xmlns="http://www.w3.org/2000/svg" viewBox="0 0 999 403.63"><defs><style>.cls-1{fill:#fff;}</style></defs><path id="path2998" class="cls-1" d="M0,0,80.63,28.36V312.17l113.57-65.56-55.68-26.12-35.13-87.43,178.94,62.86v91.4L80.67,403.63,0,358.75Z"/><path id="path3009" class="cls-1" d="M403.36,322.91V80.56h69q31.43,0,49.86,15.38T540.59,136q0,20.62-11.15,35.83t-30.76,21.63v.67q24.51,2.87,39.21,18.51t14.7,40.65q0,31.1-22.31,50.36T474,322.91Zm28.39-216.66V184.5h29.07q23.32,0,36.67-11.24t13.35-31.69q0-35.32-46.48-35.32Zm0,103.77v87.21h38.53q25,0,38.79-11.83t13.77-32.45q0-42.93-58.48-42.93Z"/><path id="path3011" class="cls-1" d="M602.93,111.37a17.56,17.56,0,0,1-12.68-5.07A17.11,17.11,0,0,1,585,93.46a17.75,17.75,0,0,1,17.91-18.08,17.9,17.9,0,0,1,12.93,5.15,18.05,18.05,0,0,1,0,25.6,17.75,17.75,0,0,1-12.93,5.24Zm13.52,211.54H588.74V151.17h27.72Z"/><path id="path3013" class="cls-1" d="M804.77,322.91H777.05V225.48c0-36.73-12.37-55.1-39.19-55.1q-20.79,0-34.39,15.63t-13.6,39.46v97.43H662.15V151.17h27.72v28.14h.68c13.07-21.86,31.7-32.25,55.75-32.25q28.39,0,43.43,18.34t15,53Z"/><path id="path3015" class="cls-1" d="M999,308.28q0,95.32-91.26,95.32c-21.41,0-39.05-3.81-55.05-11.92L860,367.91s18.79,12.49,47.44,12.49c42.59,0,63.88-22.24,63.88-67.53V294.13h-.68C957.42,316.21,938.86,327,912.38,327c-21.52,0-38.84-6.48-52-21.86s-19.69-36-19.69-61.94q0-44.11,21.21-70.14T920,147c23.32,0,39.35,9.35,50.62,28.05h.68V151.17H999Zm-27.72-63.62V220.52a49.52,49.52,0,0,0-13.94-35.32c-9.3-9.8-20.07-14.7-33.93-14.7q-25.69,0-40.22,18.68t-14.53,52.31c0,19.27,4.65,33.3,13.94,44.84s21.6,17.32,36.93,17.32c15.55,0,27.39-5.52,37.14-16.56s14.62-25.18,14.62-42.42Z"/></svg>
