<svg xmlns="http://www.w3.org/2000/svg" viewBox="0 0 256 255.7"><defs><style>.cls-1,.cls-2{fill:#fff;}.cls-1{opacity:0.7;}</style></defs><path class="cls-1" d="M128,8.5A119.35,119.35,0,1,1,8.6,127.9,119.31,119.31,0,0,1,128,8.5Z"/><path class="cls-2" d="M128,255.7C57.4,255.7,0,198.4,0,127.9S57.4,0,128,0,256,57.3,256,127.8,198.6,255.7,128,255.7ZM235.9,145.3c-3.7-1.2-33.8-10.1-68.1-4.7A466.47,466.47,0,0,1,189,218.4a108.55,108.55,0,0,0,46.9-73.1Zm-65.2,83.2c-1.6-9.6-8-43-23.3-82.8a1.85,1.85,0,0,1-.7.2C85,167.4,62.9,210.1,60.9,214.1a108.9,108.9,0,0,0,67.1,23,106.81,106.81,0,0,0,42.7-8.6ZM46.8,201c2.5-4.2,32.5-53.8,88.9-72.1,1.4-.5,2.9-.9,4.3-1.3-2.7-6.2-5.7-12.4-8.9-18.5C76.5,125.4,23.5,124.7,18.7,124.6c0,1.1-.1,2.2-.1,3.3A109.27,109.27,0,0,0,46.8,201ZM21,105.6c4.9.1,49.9.3,101.1-13.3A698,698,0,0,0,81.6,29.2,109.5,109.5,0,0,0,21,105.6Zm81.4-83.8a574.92,574.92,0,0,1,40.8,63.9c38.9-14.6,55.3-36.6,57.3-39.4A109,109,0,0,0,128,18.8a113.52,113.52,0,0,0-25.6,3ZM212.6,58.9c-2.3,3.1-20.6,26.6-61,43.1,2.5,5.2,5,10.5,7.3,15.8.8,1.9,1.6,3.8,2.4,5.6,36.4-4.6,72.5,2.8,76.1,3.5a108.75,108.75,0,0,0-24.8-68Z"/></svg>
