<svg xmlns="http://www.w3.org/2000/svg" viewBox="0 0 256 249.68"><defs><style>.cls-1{fill:#161614;}</style></defs><path class="cls-1" d="M128,0A128,128,0,0,0,87.53,249.46c6.4,1.18,8.75-2.78,8.75-6.16,0-3.05-.12-13.14-.17-23.83C60.5,227.22,53,204.37,53,204.37c-5.82-14.8-14.21-18.73-14.21-18.73-11.61-7.94.88-7.78.88-7.78C52.5,178.76,59.27,191,59.27,191,70.68,210.62,89.21,205,96.52,201.69c1.15-8.27,4.47-13.92,8.13-17.12-28.43-3.24-58.32-14.21-58.32-63.26A49.54,49.54,0,0,1,59.51,87c-1.33-3.22-5.71-16.24,1.24-33.87,0,0,10.75-3.44,35.21,13.12a121.41,121.41,0,0,1,64.1,0c24.43-16.56,35.16-13.12,35.16-13.12,7,17.63,2.58,30.65,1.25,33.87a49.44,49.44,0,0,1,13.17,34.36c0,49.16-29.94,60-58.45,63.16,4.59,4,8.68,11.76,8.68,23.7,0,17.13-.15,30.91-.15,35.13,0,3.41,2.3,7.4,8.79,6.14A128,128,0,0,0,128,0ZM47.94,182.34c-.28.64-1.28.83-2.19.39s-1.45-1.28-1.15-1.92,1.28-.84,2.2-.4S48.26,181.7,47.94,182.34Zm6.3,5.62c-.61.57-1.8.3-2.61-.59s-1-2.09-.38-2.66,1.79-.3,2.63.59S54.87,187.39,54.24,188Zm4.32,7.19c-.78.54-2.07,0-2.86-1.1s-.78-2.5,0-3.05,2.06-.06,2.86,1.07S59.36,194.59,58.56,195.15Zm7.31,8.32c-.7.77-2.2.57-3.29-.49s-1.43-2.5-.73-3.27,2.21-.56,3.32.49S66.61,202.71,65.86,203.47Zm9.44,2.81c-.31,1-1.75,1.46-3.2,1s-2.4-1.61-2.1-2.63,1.75-1.48,3.21-1S75.6,205.26,75.3,206.28ZM86,207.47c0,1.06-1.19,1.93-2.72,2s-2.77-.82-2.79-1.86,1.2-1.93,2.73-2S86,206.42,86,207.47Zm10.56-.4c.18,1-.88,2.09-2.39,2.37s-2.86-.36-3.05-1.39.89-2.11,2.38-2.39S96.41,206,96.6,207.07Z"/></svg>
