<svg xmlns="http://www.w3.org/2000/svg" viewBox="0 0 999 327.56"><defs><style>.cls-1{fill:#fff;}</style></defs><path id="path2998" class="cls-1" d="M245.61,115.68H129v34.59h82.67c-4.08,48.51-44.44,69.19-82.53,69.19-48.74,0-91.26-38.35-91.26-92.09,0-52.36,40.54-92.68,91.37-92.68,39.22,0,62.33,25,62.33,25l24.22-25.08S184.74,0,128,0C55.85,0,0,60.93,0,126.75c0,64.49,52.54,127.38,129.89,127.38,68,0,117.83-46.6,117.83-115.52,0-14.54-2.11-22.94-2.11-22.94Z"/><path id="path3000" class="cls-1" d="M341.1,90.63c-47.83,0-82.11,37.39-82.11,81C259,215.9,292.24,254,341.66,254c44.74,0,81.4-34.2,81.4-81.4,0-54.1-42.64-82-82-82Zm.48,32.08c23.52,0,45.81,19,45.81,49.66,0,30-22.2,49.55-45.92,49.55-26.07,0-46.63-20.88-46.63-49.79,0-28.29,20.31-49.42,46.74-49.42Z"/><path id="path3005" class="cls-1" d="M519.68,90.63c-47.83,0-82.11,37.39-82.11,81,0,44.26,33.25,82.35,82.67,82.35,44.74,0,81.4-34.2,81.4-81.4,0-54.1-42.64-82-82-82Zm.48,32.08c23.52,0,45.81,19,45.81,49.66,0,30-22.2,49.55-45.92,49.55-26.07,0-46.63-20.88-46.63-49.79,0-28.29,20.31-49.42,46.74-49.42Z"/><path id="path3007" class="cls-1" d="M694.84,90.72c-43.9,0-78.41,38.45-78.41,81.61,0,49.16,40,81.76,77.66,81.76,23.28,0,35.66-9.24,44.8-19.85v16.11c0,28.18-17.11,45.05-42.94,45.05-24.95,0-37.46-18.55-41.81-29.08l-31.39,13.12c11.14,23.55,33.55,48.1,73.46,48.1,43.65,0,76.92-27.5,76.92-85.16V95.62H738.87v13.84C728.35,98.11,714,90.72,694.84,90.72Zm3.18,32c21.53,0,43.63,18.38,43.63,49.77,0,31.9-22.06,49.49-44.1,49.49-23.41,0-45.18-19-45.18-49.18,0-31.36,22.62-50.07,45.66-50.07Z"/><path id="path3011" class="cls-1" d="M925.39,90.52c-41.41,0-76.19,32.95-76.19,81.57,0,51.45,38.76,82,80.16,82,34.56,0,55.77-18.91,68.43-35.85l-28.24-18.79c-7.33,11.37-19.58,22.48-40,22.48-23,0-33.52-12.57-40.06-24.75L999,151.7l-5.69-13.32C982.73,112.31,958,90.52,925.39,90.52Zm1.43,31.41c14.92,0,25.66,7.93,30.22,17.45L883.9,170C880.74,146.28,903.17,121.93,926.81,121.93Z"/><path id="path3015" class="cls-1" d="M797,249.2h36V8.44H797Z"/></svg>
