<svg xmlns="http://www.w3.org/2000/svg" viewBox="0 0 255.97 206.84"><defs><style>.cls-1{fill:#7f7f7f;}.cls-2{fill:#abacad;}.cls-3{fill:#d8d8d8;}.cls-4{fill:#fff;}</style></defs><path class="cls-1" d="M177.74.87c-3.9-1.86-7.08,0-7.08,4.18V170.55l71.14,34c7.83,3.8,14.18,1.16,14.18-5.78V39.37a1.82,1.82,0,0,0-1-1.57L177.74,1V.87Z"/><path class="cls-2" d="M85.32,129.83,166.49,3.93A9.15,9.15,0,0,1,177.72.79L255,37.7a.85.85,0,0,1,.39,1.24L170.64,170.57,85.32,129.85v0Z"/><path class="cls-3" d="M11.81,3.11C5.32,0,3.11,2.32,6.92,8.23l78.4,121.59,85.32,40.72L85.51,38.5a1.29,1.29,0,0,0-.5-.45L11.81,3.12Z"/><path class="cls-4" d="M85.32,198.67c0,6.94-5.31,10.07-11.81,7L7.08,173.93C3.19,172.08,0,167.16,0,163V7.57C0,2,4.25-.49,9.45,2L84.87,38a.76.76,0,0,1,.45.69v160Z"/></svg>
