<svg xmlns="http://www.w3.org/2000/svg" viewBox="0 0 20 20"><path d="M14.36,12a16.52,16.52,0,0,0,.14-2,16.52,16.52,0,0,0-.14-2h3.38A8.24,8.24,0,0,1,18,10a8.24,8.24,0,0,1-.26,2m-5.15,5.56A15.65,15.65,0,0,0,14,14h2.95a8,8,0,0,1-4.33,3.56M12.34,12H7.66a13.27,13.27,0,0,1-.16-2,13.16,13.16,0,0,1,.16-2h4.68a14.58,14.58,0,0,1,.16,2,14.71,14.71,0,0,1-.16,2M10,18a13.56,13.56,0,0,1-1.91-4h3.82A13.56,13.56,0,0,1,10,18M6,6H3.08A7.92,7.92,0,0,1,7.4,2.44,17.23,17.23,0,0,0,6,6M3.08,14H6a17.23,17.23,0,0,0,1.4,3.56A8,8,0,0,1,3.08,14m-.82-2A8.24,8.24,0,0,1,2,10a8.24,8.24,0,0,1,.26-2H5.64a16.52,16.52,0,0,0-.14,2,16.52,16.52,0,0,0,.14,2M10,2a13.62,13.62,0,0,1,1.91,4H8.09A13.62,13.62,0,0,1,10,2m6.92,4H14a15.65,15.65,0,0,0-1.38-3.56A8,8,0,0,1,16.92,6M10,0A10,10,0,1,0,20,10,10,10,0,0,0,10,0Z"/></svg>
