<svg xmlns="http://www.w3.org/2000/svg" viewBox="0 0 1914.6 503.99"><defs><style>.cls-1{fill:#fff;}</style></defs><path class="cls-1" d="M225.64,1.3c59.72-6.2,121.69,10,170.35,45.27,45.08,32.3,79.38,79.71,95,133,13.14,44.92,14.19,93.45,2.27,138.76-3.69,10.12-6.27,20.62-10.51,30.54-14.42,35.66-38.32,66.93-66.68,92.67-30.4,27.52-68.25,46.29-108,55.79A250.41,250.41,0,0,1,165,488.89c-69.55-25.76-126.45-83.54-151-153.52-1.87-5.1-2.83-10.46-4.13-15.72C-12.1,245.92,3.33,162.28,49.79,101,83.8,55.37,133.65,21.64,188.9,7.7a247.28,247.28,0,0,1,36.74-6.4M179.15,98.69a171.24,171.24,0,0,0-77.62,74.19c-21.11,40-25.07,88.72-10.92,131.67-.42.49-.83,1-1.22,1.5l1.83.13c6.63,19.6,17.31,37.76,30.42,53.73a167.5,167.5,0,0,0,162.28,57.91c21.59-4.06,42.08-13,60.36-25.07,33.47-22.6,58.74-57.22,69.57-96.18a177.61,177.61,0,0,0-.57-89,168.11,168.11,0,0,0-51.53-82.86C335.23,101.31,301.2,86.32,265.9,83.3,236.32,81,206,86,179.15,98.69Z"/><path class="cls-1" d="M1339.31,104.85c8.71,0,17.41,0,26.13-.11.54,15.86.72,31.73.82,47.61,9.33.21,18.67.3,28,.39q.21,13.31.83,26.62-14.46.09-28.91.37c-.2,21.09-.16,42.17.27,63.26q14-7.95,28.29-15.5c.05,10.58.15,21.17.22,31.75-9.36,4.63-18.81,9.09-28.12,13.84-1.87,27.8.29,55.67-1.43,83.47-1.09,17.62-14.6,33.9-32,37.64-12.64,2.38-25.53,1.1-38.28.8q.09-13.11.13-26.2c10.6-.94,21.5,1.92,31.9-1.09,4.21-1.55,9.67-3.92,10-9.07,4.81-22.57,1.42-45.7,1.38-68.52q-22.18,9.6-43.66,20.73c.23-10,.46-20.07.59-30.1,14.35-7.38,28.64-14.85,43.18-21.85,1.16-26.37.92-52.78.27-79.16q-21.95-.18-43.88-.75c.06-8.75.13-17.5.16-26.25,14.57.3,29.15,0,43.73-.26C1339.36,136.6,1339.51,120.72,1339.31,104.85Z"/><path class="cls-1" d="M1478.91,104.73q13,.1,26,0c.4,43.2-.78,86.42.68,129.61,15.25,0,30.66,1.41,45.74-1.66,5.51-7.2,3.08-16.74,4.17-25.08-13.83-.17-27.65-.32-41.47-.36.13-8.88.34-17.75.51-26.63,13.58,0,27.17.09,40.75-.29-.33-11-.64-22-1.15-33-13-1.07-26.12-1.15-39.18-1.25-.23-9-.28-18-.41-27,13.86-.48,28.09-1.78,41.61,2.12,8.7,2.4,16.78,7.93,21,16.05,2.74,4.44,3.16,9.75,3.94,14.79,3.07,23.05,0,46.3,1,69.44.48,16-9.41,32.79-25.22,37.49-16.56,3.61-33.6,1.81-50.37,1.64-.45,3.52-.92,7-1.35,10.58,26.9.5,53.79.25,80.69.77-14.1,28.51-37.42,50.91-61.23,71.38,18.75,8.83,37.86,16.87,57.1,24.59.08,9.75.07,19.51.14,29.27-30-9.4-56.79-26.77-87.09-35.25-30.47,13.27-60.67,28.28-93.55,34.63.36-9.14.64-18.29,1-27.42,20.2-5,40.08-11.78,58.51-21.55-18.86-9.88-38.8-17.47-58.63-25.16a490.5,490.5,0,0,1-.72-50.87c25.61-.13,51.23.28,76.83-.33-.5-3.57-.81-7.15-1.2-10.73-13-.45-26.05,1.61-39.06.37a44.92,44.92,0,0,1-23.94-8.56c-6.58-5.4-10.37-13.54-11.81-21.8-2.31-12.9-.7-26-1.26-39,.44-13.34-1.25-26.78.88-40,1.49-9.44,5.85-18.72,13.48-24.72,7.19-5.64,16.52-7.59,25.47-8,9.68-.63,19.36.52,29.06.15-.07,9.06-.43,18.11-.57,27.16-13.3,0-26.6.2-39.87,1.13-.52,11-.86,22.07-1.1,33.12,13.72.43,27.45.17,41.18.15.13,8.95.31,17.9.46,26.86q-20.89.17-41.79.12a205.4,205.4,0,0,0,1.43,23.26c15.26,6.67,32.22,3,48.28,3.72,1.43-43.23.11-86.49.89-129.73M1424,299.61c17.37,10.49,36.57,17.29,55.05,25.47,5.78,2.07,11.46,5.45,17.83,4.84,15.33-6.56,27.53-18.42,38.64-30.53C1498.42,297.79,1461.17,297.26,1424,299.61Z"/><path class="cls-1" d="M1757.78,104.74c8.1,0,16.21,0,24.32-.14.52,8.68.84,17.37,1.52,26,39.56.11,79.13-.28,118.69.35q-.44,13.68-.8,27.36c-39-.52-78-.85-117,.26q-.09,10.36.07,20.74c30.49.49,61-.33,91.47.2,7.51-.12,15.16.87,22.08,4,7.32,3.24,13.77,9.75,15,17.9,2.34,11.29,1.12,22.87,1.37,34.3q-13.42-.37-26.83-.75-.69-15-1.52-30c-60.57.21-121.17,1.63-181.71-.89a19.14,19.14,0,0,1,2.45,13.58c-2.08,10.4-9.59,18.54-13,28.42,47.15.52,94.31-.52,141.46.51q0,12.81,0,25.63c-41.36,1.08-82.73.34-124.1.62-4.21,7.39-8.4,14.8-12.71,22.14,40.47.43,80.95.38,121.42.36,13,0,26.1.43,39.13-.39a17.81,17.81,0,0,0,10.75-4.47c1.67-9.83,1.62-19.82,1.79-29.75,8.75,0,17.49,0,26.25-.13.25,11.91,1.68,24.15-1.62,35.79a32.28,32.28,0,0,1-14.86,19.48c-7.86,4.81-17.26,6.19-26.32,6.39-11.45.44-23-.8-34.35.95,29.71,17.69,62.05,30.2,93.15,45.15q.14,15.24.39,30.49c-31.5-15.31-63.37-29.83-95.16-44.52q-.36-16.23-.44-32.48-15.69.45-31.35,1.12c-.07,13.17,1.26,26.51-1.35,39.53a42.49,42.49,0,0,1-11.09,21.9c-5.34,6-13.09,9.33-20.92,10.41-9.66,1.37-19.45.78-29.16.91q.45-13.38.56-26.77c7.58-.86,15.25.45,22.81-.72,4.77-.83,9.63-3.88,11-8.78,3.25-12.62,1.65-25.75,1.77-38.61-10.25.21-20.5.19-30.75,0-.72,11.16-1.23,22.33-1.95,33.48-31.62,19.81-67.17,32.15-102.89,42.26,0-9.5,0-19,0-28.5,33.79-12.41,69.53-23,97.6-46.6-23.14-.81-46.33.52-69.45-1,8.58-15.71,17.47-31.27,25.58-47.25q-14.41-.6-28.81-1.24c10.39-22.07,22.57-43.27,32.38-65.62q-15.6.17-31.19.74-.16,14.13-.37,28.25-13,0-26,.14c.21-12.7-2-25.92,2.59-38.12,2.71-7.73,9.92-13,17.55-15.28,9.27-3.16,19.18-2.74,28.84-2.74,27.13,0,54.27.33,81.41,0,0-6.94,0-13.87.11-20.81-39.19-.82-78.39-.51-117.59-.17-.21-9.14-.58-18.27-.89-27.4,39.78-.56,79.57-.23,119.35-.32C1757,122,1757.32,113.37,1757.78,104.74Z"/><path class="cls-1" d="M626.62,120.61c31.13.63,62.26.34,93.39.27,12.7.16,25.44-.56,38.1.66,16.33,1.63,33.51,7.49,43.6,21.19,12,15.88,12.2,36.76,12.36,55.77-.23,41.33.21,82.66-.24,124,0,15.84-4.13,32.67-15.47,44.32-9.48,9.91-22.76,15.18-36.14,17.06-14.64,2.08-29.46,1.18-44.18,1.23-30.59-.11-61.19.55-91.77-.5l-.12-29c40.63-.41,81.26.27,121.88-.27,8.53-.35,17.39-1.51,24.84-6a20,20,0,0,0,8.61-10.93c4.42-23.42,1.57-47.3,1.67-70.93-50.83-.4-101.66.2-152.49-.39,0-9.13,0-18.25,0-27.38,50.81-.68,101.64-.09,152.46-.37,0-23.33,2.67-46.87-1.36-70a17.76,17.76,0,0,0-7.48-12.16c-6.78-4.63-15.29-5.49-23.28-5.76-41.6-.73-83.22-.17-124.83-.29C626.3,140.94,626.48,130.78,626.62,120.61Z"/><path class="cls-1" d="M1121.71,121.35c16.07-1.48,32.22-.6,48.33-.75,10.38.12,20.84-.52,31.12,1.22,13.21,1.9,26.55,6.83,36.13,16.43a55.92,55.92,0,0,1,14.54,26.15c3.21,12.08,3.45,24.67,3.59,37.1-.16,31.66,0,63.32-.06,95-.08,13,.5,26.13-2.21,38.92-2.48,12.75-8.14,25.33-18.1,34-8.09,7.33-18.51,11.68-29.17,13.62-14.14,2.62-28.58,2-42.89,2.09-15.62-.5-31.35.77-46.87-1.59a66.49,66.49,0,0,1-30.78-12.32c-14.42-11.73-21.13-30.6-21.86-48.74-.6-32,0-64-.21-96,.1-15.32-.75-30.66.32-46,.92-13.25,4.9-26.61,13.29-37.09,10.71-13.52,27.74-21.29,44.83-22m4.86,30c-6.76.92-14.11.75-19.93,4.81-8.85,5.88-12.91,16.92-13,27.21-1.16,28.68-.7,57.38-.58,86.07,0,16.66-.35,33.33.23,50,.42,8.57,1.94,17.55,7.14,24.62,5.46,6.65,14.21,9.44,22.52,10.24,10.67,1,21.42.56,32.13.55,16.3.06,32.86,1.42,48.9-2.3a22.53,22.53,0,0,0,13.22-7.92c6.4-7.8,8.09-18.34,8-28.15-.26-45.33.49-90.68-.49-136-.53-13.48-10.44-27.24-24.47-28.68C1175.72,150.17,1151.05,148.92,1126.57,151.38Z"/><path class="cls-1" d="M881.86,128.18c18.78-7.31,39.39-5.91,59.15-5.95,30,.06,60.09-.24,90.13.5-.28,9.23-.53,18.47-.49,27.71-33.21-.11-66.42-.51-99.63-.25-10.76.33-21.9-.7-32.2,3.11-10,3.31-19.16,10.83-22.17,21.21-6.19,21-3.42,43.16-3.18,64.71,28.52.4,57-.35,85.56,0,15.93.29,32.5-.72,47.52,5.6,10,3.87,18.63,11.68,22.6,21.79,7.23,17,6.1,35.84,5.95,53.87.34,12.33-2,25-8.34,35.71-7,12.19-19.59,20.39-32.86,24.39-16.8,5.2-34.58,4.38-51.94,4.27-18.63,0-37.69,1.09-55.84-3.93a59.66,59.66,0,0,1-32-20.46c-8.44-11.79-9.21-26.94-9.2-40.93.36-32.34-.12-64.68.23-97,.4-19.94-.33-40.47,6.46-59.56,5-14.9,15.19-29,30.27-34.76M873.43,267.1c0,23.13-3.12,46.73,2.66,69.44,2.91,11.92,15.29,18.9,26.88,19.63q32.45,1.68,65,.48c7-.62,14.47-.16,21-3.24,8.42-3.72,15.23-11.5,16.7-20.73,2.53-17.09,3.38-34.87-1.31-51.68-2.14-6.63-8.62-10.73-15.16-12.12-12.2-2.59-24.76-1.66-37.14-2C925.86,266.61,899.64,266.91,873.43,267.1Z"/><path class="cls-1" d="M513.55,404.16c23-6.24,48.53,12.71,49.7,36.42,2.35,19.9-12.8,39.49-32.22,43.36-9.68,1.88-20.2.56-28.67-4.66-11.77-7-19.85-20.11-20.39-33.86a40.93,40.93,0,0,1,31.58-41.26Z"/></svg>
