<svg xmlns="http://www.w3.org/2000/svg" viewBox="0 0 478.66 126.02"><defs><style>.cls-1{fill:#19b955;}.cls-2{fill:#585757;}.cls-3{fill:#299249;}.cls-4{fill:#f8b616;}</style></defs><path class="cls-1" d="M34.44,6.75A62.63,62.63,0,0,1,116.6,30.81a64.42,64.42,0,0,1,6.79,48.6c-2.68-3.08-4.91-7.37-9.24-8.27-4-1-7.54,1.72-10.83,3.59a43.59,43.59,0,0,0-4-32.66,42.07,42.07,0,0,0-76.47,7.14,43.27,43.27,0,0,0-1,24.31c-3.69-1.74-7.85-3.88-12-2.36-4,1.26-5.92,5.37-7.36,9a62.3,62.3,0,0,1,1.3-38.9A63.12,63.12,0,0,1,34.44,6.75Z"/><path class="cls-2" d="M334.83,26.23q3.25,0,6.53,0c.15,4,.19,7.95.21,11.92q3.5.06,7,.09,0,3.33.21,6.66l-7.23.07c-.05,5.28,0,10.56.07,15.83q3.51-2,7.07-3.87c0,2.64,0,5.28.06,7.92l-7,3.43c-.51,6.87.08,13.77-.35,20.65a10.51,10.51,0,0,1-8,9.69c-3.16.58-6.39.26-9.58.18q0-3.27,0-6.53c3.34-.34,7.9,1.11,10.31-1.78,1.48-5.82.52-12,.52-17.92-3.71,1.6-7.36,3.31-10.92,5.2.07-2.51.11-5,.15-7.54,3.6-1.83,7.16-3.72,10.8-5.46.3-6.59.23-13.19.06-19.78-3.66,0-7.32-.08-11-.2,0-2.19,0-4.37,0-6.56,3.64,0,7.29,0,10.93-.07Q334.91,32.18,334.83,26.23Z"/><path class="cls-2" d="M369.73,26.2q3.26,0,6.51,0c.12,10.81-.22,21.62.19,32.42,3.8-.07,7.68.38,11.43-.46,1.39-1.7.74-4.22,1-6.26-3.46,0-6.92-.06-10.38-.08q.06-3.33.13-6.66c3.39,0,6.79,0,10.18-.07q-.09-4.12-.28-8.25c-3.27-.23-6.54-.32-9.81-.31l-.09-6.73c5.74-.31,13.75-.94,16.21,5.69,1.42,6.35.47,13,.69,19.45.28,4.16-2.12,8.53-6.22,9.81-4.15.94-8.45.44-12.66.4-.09.67-.26,2-.34,2.67,6.72.17,13.45,0,20.17.19-3.56,7.15-9.31,12.75-15.32,17.84,4.68,2.24,9.48,4.21,14.29,6.16l0,7.31c-7.48-2.38-14.25-6.72-21.77-8.82-7.62,3.31-15.14,7.08-23.39,8.66.09-2.28.17-4.57.25-6.85a63.85,63.85,0,0,0,14.65-5.41,142.5,142.5,0,0,0-14.67-6.28,117.15,117.15,0,0,1-.18-12.71c6.4,0,12.8,0,19.2-.07-.07-.67-.22-2-.29-2.69-5.08-.17-10.9,1.29-15.38-1.76-4.78-3.65-3.36-10.3-3.65-15.51.27-5.14-1.15-11.33,2.79-15.44,3.77-3.82,9.64-2.52,14.46-2.69-.06,2.27-.11,4.53-.16,6.8-3.33,0-6.65.05-10,.27q-.2,4.13-.27,8.27c3.43.07,6.86.08,10.29,0l.12,6.7-10.45,0a48.82,48.82,0,0,0,.36,5.8c3.74,1.72,8.07.69,12.07.94.38-10.81,0-21.62.22-32.43M356,74.92c4.43,2.7,9.35,4.39,14.06,6.49,1.34.47,2.69,1.23,4.16,1.08,3.85-1.63,6.89-4.62,9.68-7.65A252.1,252.1,0,0,0,356,74.92Z"/><path class="cls-2" d="M439.45,26.18c2,0,4,0,6.08,0,.12,2.17.23,4.34.36,6.51,9.9.07,19.79-.09,29.69.09-.07,2.28-.14,4.57-.2,6.85-9.76-.14-19.51-.2-29.26,0,0,1.73,0,3.47,0,5.2,7.82.1,15.63-.11,23.45,0,3.25,0,7.05,1.13,8.43,4.39.94,3.11.55,6.43.61,9.64l-6.71-.19c-.11-2.5-.23-5-.38-7.5-15.14,0-30.31.43-45.44-.2,2.29,3.63-1.45,7.12-2.62,10.49,11.79.1,23.57-.15,35.36.13q0,3.21,0,6.42c-10.35.28-20.69.05-31,.13-1,1.86-2.1,3.71-3.17,5.56,12.31.16,24.61,0,36.92.11,2-.19,4.36.28,5.89-1.25a45.13,45.13,0,0,0,.46-7.44q3.27,0,6.56,0c.11,4.36.87,9.67-2.81,12.88-4.53,4-11.07,1.86-16.51,2.79,7.43,4.41,15.53,7.54,23.32,11.27,0,2.54.06,5.09.1,7.63-7.88-3.8-15.83-7.47-23.79-11.12-.07-2.71-.1-5.42-.11-8.14-2.62.09-5.23.17-7.84.27,0,5.16.91,11.33-3.1,15.36-3.16,3.55-8.3,2.7-12.53,2.85.08-2.24.14-4.47.14-6.7,2.75-.46,6.88,1,8.39-2.13.91-3.21.46-6.61.5-9.9-2.56.05-5.13,0-7.69,0-.17,2.78-.32,5.56-.47,8.34-7.88,5-16.81,8-25.74,10.6q0-3.57,0-7.12c8.44-3.1,17.42-5.77,24.41-11.66-5.79-.14-11.59.1-17.37-.26,2.13-3.94,4.39-7.81,6.4-11.81L412.56,68c2.61-5.51,5.65-10.81,8.1-16.4-2.61,0-5.2.09-7.8.19q0,3.54-.09,7.07l-6.51,0c.1-3.42-.6-7.12,1-10.29,1.85-3.19,5.86-3.74,9.22-3.74,7.46-.05,14.93.07,22.4,0,0-1.74,0-3.47,0-5.21-9.8-.23-19.6-.16-29.39,0-.05-2.29-.12-4.58-.23-6.86,10-.16,19.9,0,29.86-.08Z"/><path class="cls-2" d="M156.66,30.15c10,.21,19.94,0,29.91.08,4.86.07,10.32,1.08,13.55,5.07s3.38,9.6,3.41,14.59c-.1,10.35.08,20.71-.07,31.06-.06,4.38-1.41,9.09-5.05,11.83-4.15,3.41-9.79,3.58-14.9,3.55-9-.13-18,.12-26.94-.17l0-7.24c10-.13,20,.06,30-.06,3.23-.1,7.56-.63,8.79-4.17,1.14-5.86.39-11.88.42-17.8-12.71-.12-25.41.06-38.12-.09q0-3.44,0-6.86c12.7-.18,25.41,0,38.12-.09,0-5.92.69-11.92-.39-17.78-.68-3.57-4.82-4.16-7.82-4.22-10.34-.22-20.69,0-31-.06Z"/><path class="cls-2" d="M278.92,30.47c5.52-.62,11.1-.21,16.65-.31,5.19-.09,10.94,1,14.46,5.16,3.46,4,3.81,9.54,3.83,14.57-.05,9.33,0,18.65,0,28,0,5.34-1,11.37-5.5,14.86-5,4.1-11.8,3.5-17.83,3.56-6-.16-12.51.68-17.85-2.58-4.71-2.83-6.76-8.51-6.81-13.8-.14-9.33.07-18.67-.06-28,0-4.62-.29-9.55,2-13.75a14.68,14.68,0,0,1,11.15-7.67m-.1,7.72c-3.59.62-5.37,4.31-5.4,7.66-.42,9.66,0,19.35-.19,29,.18,3.76-.41,8.06,2,11.28,2.85,3.1,7.51,2.43,11.3,2.62,5-.2,10.19.54,15.11-.76,3.79-1.2,4.81-5.54,4.68-9.06-.06-11,.13-22-.09-33,.15-3.9-2.56-7.87-6.7-8C292.64,37.48,285.64,37.16,278.82,38.19Z"/><path class="cls-2" d="M216.89,34.3c3.94-3.57,9.6-3.69,14.63-3.75,8.75.08,17.51-.1,26.27.13q-.13,3.48-.13,7c-9.39-.08-18.78-.15-28.17,0-4.15-.1-8.89,1.66-10.29,5.92-1.6,5.28-.86,10.88-.83,16.31,8.73.09,17.47-.14,26.2.07,4.57.12,9.89,1.37,12.23,5.73,2.46,4.66,2,10.17,2,15.27,0,4.48-1.61,9.19-5.41,11.83-5.69,4.28-13.18,3.42-19.86,3.53-6.42,0-13.77.15-18.67-4.7-3.58-3.17-3.64-8.27-3.61-12.68.14-9.66-.13-19.34.17-29,.2-5.53,1.32-11.58,5.49-15.57m1.47,32.49c0,5.83-.77,11.82.71,17.53.93,3.19,4.28,4.76,7.4,4.77a157.88,157.88,0,0,0,18.07-.1,7.22,7.22,0,0,0,6.94-6.14,30.86,30.86,0,0,0-.37-12.59c-1-3.11-4.82-3.32-7.55-3.48C235.16,66.62,226.76,66.72,218.36,66.79Z"/><path class="cls-3" d="M9.87,71.16c4.14-1.52,8.3.62,12,2.36q.42,1.58.93,3.12c-3.6-1.94-7.77-4.22-12-2.61-4.12,1.27-6.12,5.45-7.59,9.15-.29-1-.53-2-.74-3.06C3.95,76.53,5.89,72.42,9.87,71.16Z"/><path class="cls-3" d="M103.32,74.73c3.29-1.87,6.81-4.56,10.83-3.59,4.33.9,6.56,5.19,9.24,8.27-.57,1.51-1.06,3.06-1.5,4.61-.83-4-2.77-8.27-6.94-9.61-4.27-2-8.71.28-12.35,2.51Z"/><path class="cls-4" d="M10.84,74c4.18-1.61,8.35.67,12,2.61a43.36,43.36,0,0,0,20.3,23.71,42,42,0,0,0,37.07,1.16A43,43,0,0,0,102.6,76.92c3.64-2.23,8.08-4.47,12.35-2.51,4.17,1.34,6.11,5.64,6.94,9.61-3.6,10.88-10.77,20.38-19.44,27.77A62.71,62.71,0,0,1,51.4,125c-22-3.88-41-20.67-48.15-41.8C4.72,79.48,6.72,75.3,10.84,74Z"/><path class="cls-4" d="M127.81,101.23c6.2-2.11,13.21,3.16,13,9.65a10.18,10.18,0,0,1-10.34,10.3c-6.12.15-11.15-6.21-9.8-12.14A10.06,10.06,0,0,1,127.81,101.23Z"/></svg>
