<svg xmlns="http://www.w3.org/2000/svg" viewBox="0 0 600 157.35"><defs><style>.cls-1{fill:#fff;}</style></defs><path class="cls-1" d="M188.17,26.31h9V46.55h9.3v7.21h-9.35V74.7l9.35-3c.12,1.83.34,5.46.46,7.28l-9.81,2.74c-.39,12.64.82,25.36-.6,37.94-2.12,7.5-11.35,6.2-17.38,7.38-.53-2.16-1.61-6.47-2.16-8.6,3.68-.6,7.36-1.2,11-1.95.17-10.55.1-21.11.1-31.66l-11.47,3.75c-.24-2.52-.46-5.07-.7-7.59Q182,79.26,188.1,77.6q0-11.94,0-23.85H176.73V46.51h11.4V26.31Z"/><path class="cls-1" d="M402.58,26.34h9V46.68h9.13v7.26c-3.08,0-6.13-.07-9.18-.12V74.71c3.1-.94,6.18-1.87,9.3-2.79.1,1.8.26,5.43.36,7.24L411.53,82c-.38,12.74,1,25.58-.77,38.22-2.38,7.33-11.63,5.79-17.65,6.92L391.45,118c3.51-.19,7-.41,10.55-.62.77-10.77.65-21.54.53-32.31-4.06,1.25-8.15,2.48-12.24,3.7-2.28-8.8,6.2-9.37,12.26-11.25V53.86H391.2V46.67h11.37V26.34Z"/><path class="cls-1" d="M544.42,26.14h9.79v9.62h40.55v6.47h-40.6q0,5.34.1,10.67h43V71.24h-8.61c0-4,0-8-.07-12-10.7.22-21.44-.75-32.07.41-9,4.21-16.68,10.87-25.41,15.65,7.86-.53,15.84-.07,23.65-1.32,5.48-1.83,10.24-5.19,15.24-8,2.48,2,5,4,7.5,6C561.58,79.6,545.61,87.1,529.41,94.1q21.44-.83,42.89-1.68-4.54-3.93-9-7.84c1.64-1.2,4.9-3.58,6.54-4.76,8.27,6.39,16.54,12.77,24.59,19.42-2.31,2-4.59,4.06-6.88,6.11-2.24-2-4.45-4-6.66-6q-12.44.18-24.83.41c-.24,7.36.87,15-1.37,22.12-5.91,7.21-16.75,3.63-24.88,4.45-.58-2-1.71-6-2.26-8,5.82-.22,11.76,0,17.48-1.32,1.47-5.48,1.06-11.23,1.25-16.83-11.49.33-23,.79-34.42,1.95q-1.7-4.29-3.34-8.53c11.47-3.34,22.45-8,33.37-12.79-8.29.38-16.61.62-24.9,1.08-.94-2.45-1.9-4.88-2.84-7.31,10.1-3.2,19-8.87,27.24-15.48-10.38-.07-20.77,0-31.16,0l-.07,12h-8.87V52.88h43.18c0-3.56,0-7.12-.07-10.65H503.87V35.76h40.56V26.14Z"/><path class="cls-1" d="M285.17,32.59l7.21-5.17c4.11,5,8,10.17,11.83,15.41L314,30.45c2.36,1.13,4.74,2.28,7.14,3.41q-6.37,7.75-13,15.27c6.32,18.27,7.26,37.86,6.85,57-.19,6.44-1.64,14.33-8.17,17.29-5.72,2.19-12,1.25-18,1.56-.43-2.12-1.27-6.32-1.68-8.44,5.63-.65,14.14,2.28,17.29-4.23,3.15-10,1-20.77,1.37-31.11a107.51,107.51,0,0,1-18.08,18c-1.18-2-2.38-4.09-3.56-6.15a100.37,100.37,0,0,0,20-22.29q-1.66-7-3.49-13.89-5.66,4.54-11.37,9c-1.18-1.64-3.53-4.93-4.69-6.59,4.3-3,8.56-6.18,12.74-9.38-3.87-5.89-8-11.63-12.07-17.36Z"/><path class="cls-1" d="M2.7,57.73C11.12,23.86,44.7-1.41,79.63.06c35.36,0,68.15,27.33,74.67,62.07,5.19,24.06-2.48,49.69-18.51,68.11q2.85,4.32,5.67,8.7c-8,7.55-16.78,14.3-27,18.41-1.78-2.72-3.56-5.41-5.31-8.1-22.09,8.94-48.1,8.25-69-3.63C9.53,129.32-6.81,91.1,2.7,57.73ZM43.62,19.49C20.47,32.61,7,60.47,10.81,86.8c3.17,24.88,21.42,47,45.24,54.86,15.19,5.46,32,4.37,47.12-.89,2,2.81,4,5.65,6,8.46a84.26,84.26,0,0,0,26.32-18.75q-3-4.22-6-8.39c6-8.22,11.49-17.09,14-27.09,7.07-25.39-2.64-54.21-23.49-70.27C98.79,7.54,67,5.25,43.62,19.49ZM36.39,43.55c-7.55,7.81-6.15,22.07,2.72,28.34C53.62,83.6,73,85.28,89,94c6.32,2.69,3.7,11.2-2.52,11.78C67.23,109.44,48.33,101,31.75,92c-.22,6.59-.34,13.15-.36,19.74,21,9.21,44.35,13.53,67.14,10,7.6-1.49,15.43-4.06,21.08-9.62,8.12-7.89,7.31-23.05-2.16-29.57-15-12.19-35.17-13.73-51.4-23.39-4.81-3.17-.87-9.18,4-9.38,17.81-3.17,35.27,4,51.78,9.88q.51-8.76.89-17.52c-20.72-7.52-43-12.33-65.08-8.77C50,35.16,42,37.76,36.39,43.55Z"/><path class="cls-1" d="M334.34,26.24c3,.58,6,1.13,9,1.71-1.66,3.92-3.29,7.84-5,11.76h44.59c-.58,22.86-.75,45.75-1.85,68.59,0,6.61-3.27,14-10.29,15.6-8.34,1.85-17,1.2-25.46,1.49-.48-2.93-1-5.89-1.44-8.82,7.17,0,14.42.91,21.54-.29,4.45-1.3,6.15-6.18,6.22-10.36,1.13-19.64,1.2-39.33,1.44-59H334.82c-3,5.24-6.11,10.48-9.26,15.65h35V103.1H324.91V66.56c-3.32-1.83-6.56-3.75-9.78-5.72a143.45,143.45,0,0,0,19.23-34.59ZM334,68.67v27h18v-27Z"/><path class="cls-1" d="M251.85,111.92c7.89-6.73,19.62-12.79,18.92-24.81-7.89-.17-15.77-.12-23.65-.1V77.42h26.13V33h-22v6.15h13.1V50.93L252.5,51c0,1.51-.07,4.5-.1,6h12q-.24,7-.4,13.79H247q0-22.22.07-44.47h-9.42q.07,22.21-.17,44.45H220.34c0-4.57,0-9.11.1-13.65h12.67c0-1.51.1-4.5.12-6L220.48,51q-.14-5.81-.22-11.61l13.17-3.53c-.84-1.47-2.48-4.4-3.32-5.87q-9.27,2.78-18.65,5.12,0,21.13,0,42.26H237.6V87H211.11c0,1.59-.14,4.71-.17,6.28l4.66.41A138.33,138.33,0,0,0,233,111.87c-10,2.6-20,5.07-30.15,7.17,1.11,2,3.29,6.06,4.38,8.08a180.56,180.56,0,0,0,35-10.07,181.38,181.38,0,0,0,33.1,9.25c1.32-2.84,2.64-5.7,4-8.53A238.48,238.48,0,0,1,251.85,111.92ZM226.61,93.55q16.34-.18,32.69,0a149.51,149.51,0,0,1-17,14.69A135.58,135.58,0,0,1,226.61,93.55Z"/><path class="cls-1" d="M451.87,26.29h9.47V70.72h17.12V57H466.82c0-1.49-.14-4.5-.17-6h11.8V39.14h-13V33h22.09v44.3h-26.2c0,3.2,0,6.39.1,9.59h23.17c.07,1.95.22,5.84.29,7.79a119.1,119.1,0,0,1-18.65,17.16q13.59,3.61,27.43,5.87c-1.35,2.81-2.69,5.65-4,8.46a181,181,0,0,1-33-9.21,192.91,192.91,0,0,1-35,10.1c-1.46-2.72-2.91-5.46-4.33-8.17,10-2,20-4.5,29.88-7.07-7.31-6.54-13.08-14.91-21.64-20-.07-1.22-.19-3.7-.26-4.93h26.64V77.4H425.73V35.21c6.25-1.64,12.5-3.32,18.73-5.1.79,1.47,2.4,4.37,3.22,5.84L434.8,39.37V51.08h12.55v6H434.78V70.69h17q0-22.21,0-44.45ZM441,93.62a175.35,175.35,0,0,0,15.53,14.69,164,164,0,0,0,16.9-14.71c-10.82-.19-21.61-.22-32.43,0Z"/><path class="cls-1" d="M498.82,118.31A236.09,236.09,0,0,0,529,103.43l5.12,5.67c-10.29,5.53-20.82,10.65-31.42,15.6-1.3-2.14-2.57-4.28-3.87-6.39Z"/><path class="cls-1" d="M570.26,104.27C580.12,109,590,113.58,600,118c-1.78,2.24-3.56,4.45-5.31,6.66-10-4.76-20-9.47-29.79-14.76,1.78-1.88,3.56-3.78,5.36-5.65Z"/></svg>
