<svg xmlns="http://www.w3.org/2000/svg" viewBox="0 0 354.41 142.87"><defs><style>.cls-1{fill:#fff;}</style></defs><path class="cls-1" d="M29.82,10.4c0,5-4.55,9.13-10.17,9.13S9.48,15.44,9.48,10.4,14,1.27,19.65,1.27,29.82,5.36,29.82,10.4"/><path class="cls-1" d="M4.85,33.28l6.24-9.71s8.78,6.82,11.44,9.13,7.4,6.24,7.28,12.59A45.31,45.31,0,0,1,26.35,61C24.85,64.83,15,84.93,15,84.93L0,75.57S14.45,62.21,20,54.08c1.73-2.54,3.81-9.24-2.08-12.71S4.85,33.28,4.85,33.28"/><path class="cls-1" d="M24.15,27.5S32.36,22.19,40.45,0c2.31.81,14,3.93,14,3.93l-3.81,7S68.06,5.66,83.08,5.66c0,0,8.2-.35,14.56,1.73s12.83,6.36,14.44,13.29,3.35,30,.12,51a17.25,17.25,0,0,1-5.2,9.13c-4.51,4.28-9.94,6.36-19.53,6.36S72.8,85.28,72.8,85.28l2-8.09s5.89,2.2,10.51,2.2A14.22,14.22,0,0,0,95.91,75a12.56,12.56,0,0,0,2-5.09c.11-2.31.23-46.68-.23-48.19s-1-7.16-8.2-8.55a38.88,38.88,0,0,0-14.56-.12c-1.73.35-12.6,3-18,5.2C58.93,19,63,20,63,20a35.87,35.87,0,0,1-5.2,7.51c4.62-.12,35.36,0,35.36,0v6.93H73.38v9.24H92.91v6.93H73.38V65.29s3.24,0,8-3.7A26.83,26.83,0,0,0,80,55c3-.69,9-2.77,9-2.77l7.51,18.6L85.28,75.23,83.2,67.71S79.85,71.53,71.65,74C60.22,77.34,52.93,77.19,51,77.08c0,0-5.55.23-8.9-1.27s-8.2-5-8.2-14.91a24.39,24.39,0,0,1,.81-6.12l14.1.12s-.69,5-.69,6.24-1,6.7,9.13,6.59c0-7.28-.12-17.22-.12-17.22L37,50.38V43.45H57V34.67H51.89s-5.55,5.2-8.67,8.32L37.44,37.9a66.75,66.75,0,0,0,11.21-17C46,22,41.37,24,41.37,24s-3.24,4.16-7.28,8.44c-2.89-1.62-9.94-5-9.94-5"/><path class="cls-1" d="M145.95,21.49l-.12,6.59h64.83s7-4.28,7-8.44-5.43-5.32-9.13-5.55a148.76,148.76,0,0,0-22.65.69c-8.55,1-28.19,3.35-40,6.7M129.88,37.44V9.13h15.83v3.58s22.65-3.12,25.08-3.12V1.5H188.7V7.63s11.44-1,19-1S223.94,7.86,227.3,9s7.4,4,7.4,10.05-4.51,12.25-13.52,18.26c-2.77-2.77-4.85-4.74-4.85-4.74l.12,2.66h-27.5v9.36h31.54V52H188.93V74.07H231.8V83.2h-102V74.07h40.68V52.23H142.36V44.61h28.2V35.36H145.95v2.08H129.88Z"/><path class="cls-1" d="M219.1,63.21c0,5-4.5,9-10.05,9s-10.05-4-10.05-9,4.5-9,10.05-9,10.05,4,10.05,9"/><path class="cls-1" d="M278.6,41.26a41,41,0,0,0-10.05-10.17A52.69,52.69,0,0,0,273.29,25q5,3.47,10.75,7.63c3.35-5.66,7.74-15.6,7.74-15.6l12.94,6.47a15.05,15.05,0,0,1-2,4.51s6.82,4.51,11,7.17a82.66,82.66,0,0,0,6.82-19.53l14.21,8.67s0-5.32-.23-7.51c-.23-7.74-8.67-8.67-13.17-8.55s-14.45,2-25.65,4.39-28.89,10.28-28.89,10.28V52.35A35.48,35.48,0,0,0,278.6,41.26M266.93,55.47V83.09H249.14v-77h17.68v6.7s17.22-6.59,28.89-9,18.37-2.43,21.15-2.43,14.21,1.27,20.68,3.7a21.61,21.61,0,0,1,12.94,12.48c1.85,5.2,2,19.41,2,26S352,70.37,351.29,74.3s-2.31,8.44-5.78,11-8.44,2-12.94,1A55.52,55.52,0,0,1,318.24,81V73.38s4.39,3.12,8.78,3.12,7.86-2.66,7.86-8.55.57-31.2.11-41.6a166.55,166.55,0,0,1-11.55,15.83,63.52,63.52,0,0,1,10.4,9.48c-3.35,3-12.36,10.4-12.36,10.4s-5.32-8.09-6.59-9.59a98.92,98.92,0,0,1-23.34,18.95C289.23,68.06,286,63.9,286,63.9s10.05-3.47,22.3-19.76c-2.66-2.77-6.59-7.86-10.05-10.17-1.39,2-5.43,6.24-5.43,6.24a25.91,25.91,0,0,1,6.36,7.63c-2.31,2.31-9.48,9.71-9.48,9.71l-5.78-8.9a107.35,107.35,0,0,1-12.25,11,57.4,57.4,0,0,0-4.74-4.16"/><path class="cls-1" d="M7.63,109.33s1.72-6.28,8.46-6,11.7.61,15.6.61a100.65,100.65,0,0,0,13.73-1.22c-.46,1.87-2.58,5.47-5.72,5.47H32.55s-1.67-.05-1.67,2V135s.46,3.4,3.75,2.58a7.16,7.16,0,0,1-7,4.56c-3.19,0-6.33-2-6.33-4.81V109.79c0-1.42-.2-1.77-2.74-1.88a45.87,45.87,0,0,0-7,.1,11.52,11.52,0,0,0-4,1.32"/><path class="cls-1" d="M55.5,124.18c-3.19,0-5.78,3-5.78,6.79s2.58,6.79,5.78,6.79,5.78-3,5.78-6.79-2.58-6.79-5.78-6.79m-12.06-8.31a6.29,6.29,0,0,1,3.09-4.1c2.47-1.4,6.13-1.47,7.45-1.47a42.79,42.79,0,0,1,6.74.61c1.27.35,8.51,1.47,8.51,9.42v15a2.47,2.47,0,0,0,3.5,2.13c-.46,3.09-3.5,4.66-5.67,4.66s-5.72-1.32-5.72-4c0,0-1.42,4.51-9,4.46s-11.7-4.61-11.7-11.4,4.91-11.5,12.16-11.5c2.43,0,6.74,1,8.56,3.85,0-3.54-.64-8.37-6.09-8.88-2.8-.18-8.4-.06-11.79,1.23"/><path class="cls-1" d="M165.5,124.18c-3.19,0-5.77,3-5.77,6.79s2.58,6.79,5.77,6.79,5.77-3,5.77-6.79-2.58-6.79-5.77-6.79m-12.06-8.31a6.29,6.29,0,0,1,3.09-4.1c2.47-1.4,6.13-1.47,7.45-1.47a42.79,42.79,0,0,1,6.74.61c1.27.35,8.51,1.47,8.51,9.42v15a2.47,2.47,0,0,0,3.5,2.13c-.46,3.09-3.5,4.66-5.67,4.66s-5.72-1.32-5.72-4c0,0-1.42,4.51-9,4.46s-11.7-4.61-11.7-11.4,4.91-11.5,12.16-11.5c2.43,0,6.74,1,8.56,3.85,0-3.54-.64-8.37-6.09-8.88-2.8-.18-8.4-.06-11.79,1.23"/><path class="cls-1" d="M91.78,115.11c-3.44,0-6.23,5.1-6.23,11.4s2.79,11.4,6.23,11.4S98,132.8,98,126.51s-2.79-11.4-6.23-11.4m15.8,11.4c0,9-7.08,16.36-15.8,16.36S76,135.54,76,126.51s7.08-16.36,15.8-16.36,15.8,7.33,15.8,16.36"/><path class="cls-1" d="M201.46,115.11c-3.44,0-6.23,5.1-6.23,11.4s2.79,11.4,6.23,11.4,6.23-5.1,6.23-11.4-2.79-11.4-6.23-11.4m15.8,11.4c0,9-7.08,16.36-15.8,16.36s-15.8-7.33-15.8-16.36,7.08-16.36,15.8-16.36,15.8,7.33,15.8,16.36"/><path class="cls-1" d="M282.71,115.11c-3.44,0-6.23,5.1-6.23,11.4s2.79,11.4,6.23,11.4,6.23-5.1,6.23-11.4-2.79-11.4-6.23-11.4m15.8,11.4c0,9-7.08,16.36-15.8,16.36s-15.81-7.33-15.81-16.36,7.08-16.36,15.81-16.36,15.8,7.33,15.8,16.36"/><path class="cls-1" d="M122.89,120.07c-.95,2.9-.44,10.86,0,12.38s2.08,5.3,6.31,5.3,5.68-4.17,6-5.56.95-5.05-.19-11.37-5.94-5.81-5.94-5.81c-3.47.06-5.24,2.15-6.19,5.05m-12.69-16a5.67,5.67,0,0,1,6-4.67c5.37,0,6.44,3.41,6.44,4.29v10.48s2.27-3.41,9.22-3.41,13.32,4.93,13.32,14.21c0,0,1.45,17.37-13.7,17.37-4.93,0-7.77-1.64-9.22-4a6,6,0,0,1-5.81,3.85c-2.65,0-5.81-1.64-5.81-4.61,1.14.13,3.28.06,3.28-2.72V106.24s-.25-2.21-3.73-2.21"/><path class="cls-1" d="M230.17,138.07a4.42,4.42,0,1,1-4.42-4.36,4.39,4.39,0,0,1,4.42,4.36"/><path class="cls-1" d="M262.44,137.62s-1.58-1.7-3-1.64a7.85,7.85,0,0,0-3,.88,12.74,12.74,0,0,1-4.17.95,8,8,0,0,1-6.63-3.92c-2.17-3.32-2.15-9.79-1.45-12.5a10,10,0,0,1,4.23-6,7.23,7.23,0,0,1,6.76.25c1.26,1,1.83,2.9,4.17,2.9s3.66-2.78,3.28-4.67c0,0-3.79-3.09-11.62-3.16a16.43,16.43,0,0,0-12.82,5.49,16.69,16.69,0,0,0-3.85,10.42c0,5.05,2.53,10.17,5.56,12.5a18.93,18.93,0,0,0,10.74,3.47,16.5,16.5,0,0,0,11.87-5"/><path class="cls-1" d="M301.47,115.52a5.82,5.82,0,0,1,6.13-4.74c4.48,0,5.68,3.35,5.68,3.35a11,11,0,0,1,8.59-3.66c5.81,0,8.46,2.78,9.54,4.23,1.89-1.83,3.85-4.17,9.16-4.17s9.79,1.83,10.29,7.14.32,18.31.32,18.31.44,2.53,3.22,1.45c.25,2.84-2.72,4.67-5.68,4.67s-5.94-1.77-5.94-5.49V118.87s.07-4.11-4.8-4.11-5.37,4.48-5.37,5.87v21.28H324v-23a4.3,4.3,0,0,0-4.55-4.23,5.46,5.46,0,0,0-5.68,5.56v21.47h-8.59V118.17s.19-2.59-3.66-2.65"/></svg>
