<svg xmlns="http://www.w3.org/2000/svg" viewBox="0 0 561.2 128"><defs><style>.cls-1{fill:#fff;}</style></defs><path class="cls-1" d="M351.1.3C331.1.3,324,21.5,324,21.5L281.6,128h21.9l17.7-45.1h58.3L396.9,128h23.8L378.3,21.5C378.2,21.5,371.1.3,351.1.3Zm-9.2,31.8s2.4-6.8,9.2-6.8c7,0,9.2,6.8,9.2,6.8l11.3,30.1H329.5Z"/><path class="cls-1" d="M0,20.1H51.6V127.9H73.1V20.1h51.7V0H0Z"/><path class="cls-1" d="M523.1,85V.3H501.7V94.9c0,19.2,13.3,33,33.5,33h26V106.8H545.4C531.1,106.8,523.1,104.2,523.1,85Z"/><path class="cls-1" d="M449.6,85V.3H428.2V94.9c0,19.2,13.3,33,33.5,33h26V106.8H471.9C457.6,106.8,449.6,104.2,449.6,85Z"/><path class="cls-1" d="M255.6.9c-7.1-2.9-13.8,2.4-15.1,3.5-9.4,7.4-19.5,18.4-37.8,18.4H201c-18.4,0-28.5-11-37.8-18.4-1.3-1-7.9-6.3-15.1-3.5-6.7,2.7-7.7,9.1-7.7,14.2V127.9h21.4v-96c7.1,3.9,21.8,13.5,39.5,13.5h1.2c16.9,0,32.5-9.7,39.5-13.5v96h21.3V15.1C263.4,10,262.3,3.6,255.6.9Z"/></svg>
