<svg xmlns="http://www.w3.org/2000/svg" viewBox="0 0 256 208.05"><defs><style>.cls-1{fill:#fff;}</style></defs><path class="cls-1" d="M256,24.63a105,105,0,0,1-30.17,8.27A52.68,52.68,0,0,0,248.93,3.84a105.18,105.18,0,0,1-33.35,12.75,52.57,52.57,0,0,0-89.5,47.9A149.11,149.11,0,0,1,17.82,9.61,52.58,52.58,0,0,0,34.08,79.73a52.31,52.31,0,0,1-23.79-6.57c0,.22,0,.44,0,.66a52.55,52.55,0,0,0,42.13,51.5,52.65,52.65,0,0,1-23.72.9A52.57,52.57,0,0,0,77.76,162.7a105.38,105.38,0,0,1-65.23,22.48A106.84,106.84,0,0,1,0,184.45,148.66,148.66,0,0,0,80.51,208c96.61,0,149.43-80,149.43-149.43q0-3.42-.15-6.79A106.75,106.75,0,0,0,256,24.63"/></svg>
