<svg xmlns="http://www.w3.org/2000/svg" xmlns:xlink="http://www.w3.org/1999/xlink" viewBox="0 0 256 180"><defs><style>.cls-1{fill:#fff;}.cls-2{fill:#420000;opacity:0.12;isolation:isolate;}.cls-3{fill:url(#gradient);}</style><linearGradient id="gradient" x1="-175.81" y1="485.31" x2="-175.81" y2="484.31" gradientTransform="matrix(256, 0, 0, -180, 45135, 87355)" gradientUnits="userSpaceOnUse"><stop offset="0" stop-color="#e52d27"/><stop offset="1" stop-color="#bf171d"/></linearGradient></defs><path class="cls-1" d="M101.6,123.2l69.2-35.8L101.6,51.3v71.9Z"/><path class="cls-2" d="M101.6,51.3l60.7,40.5,8.5-4.4L101.6,51.3Z"/><path class="cls-3" d="M253.3,38.8s-2.5-17.6-10.2-25.4c-9.7-10.2-20.59-10.2-25.69-10.8C181.73,0,128,0,128,0H128S74.27,0,38.39,2.6c-5,.6-15.89.6-25.69,10.8C5.1,21.2,2.6,38.8,2.6,38.8A383.92,383.92,0,0,0,0,80.3V99.7a380.87,380.87,0,0,0,2.6,41.4s2.5,17.6,10.2,25.4c9.7,10.2,22.49,9.9,28.19,10.9,20.49,2,87,2.6,87,2.6s53.78-.1,89.57-2.7c5-.6,15.89-.6,25.69-10.8,7.7-7.8,10.2-25.4,10.2-25.4A380.87,380.87,0,0,0,256,99.7V80.3a399.51,399.51,0,0,0-2.7-41.5ZM101.56,123.2V51.3l69.17,36.1-69.17,35.8Z"/></svg>
