<svg xmlns="http://www.w3.org/2000/svg" viewBox="0 0 144.89 128.16"><defs><style>.cls-1,.cls-4{fill:#ddd;}.cls-1{opacity:0.4;}.cls-2,.cls-3{fill:none;stroke-miterlimit:10;stroke-width:4px;}.cls-2{stroke:#7176f5;}.cls-3{stroke:#ccc;}.cls-5{fill:#bbb;}.cls-6{fill:#fff;}</style></defs><path class="cls-1" d="M34,107c4.42-.5-12.58.5-11.58,4.5s9.5,4.5,11.5,4.5-3,1-1,5,22,8,37,7,22-2,32-8c1,0,8,0,8-2s-4-5-5-5"/><path class="cls-2" d="M111.87,26"/><path class="cls-3" d="M141.87,28c-5-7-27.52-2.38-30-2"/><path class="cls-3" d="M19.87,69c-4,2-22,12-17,22"/><path class="cls-4" d="M125,37.26c-.91-1.62-6.62-2.24-7.67-3.76-.76-1.1,3.17-3.13,2.34-4.17A57.89,57.89,0,0,0,74.37,7.5c-3.5.5-6,0-7.5,1.5-.87.87,2,10,.5,12.5-1.5.5-4.5,4.5-8,8a45.37,45.37,0,0,1,2,8c.5,1.5,1.56,13.63,0,14-2.21.52-6.68-12.17-9-12-2.55.19-5.1.47-7.59.86-1.5.24-3,3.82-4.41,4.14-3.06.68-8.31-7.86-11-7-1.81.58-5.58,1.63-7,3-3.5,5.5-6,16-6,25a58.26,58.26,0,0,0,1.2,11.8c.29,1.42,6.9.32,7.3,1.7.52,1.8-5.15,6.07-4.47,7.79a58,58,0,0,0,112-21.29C132.37,55.69,128.87,42,125,37.26Z"/><polygon class="cls-4" points="40.87 37 45.87 29 37.87 22 27.87 28 31.87 37 40.87 37"/><polygon class="cls-4" points="48.87 17 45.87 5 37.87 10 43.87 19 48.87 17"/><polygon class="cls-4" points="63.87 7 50.87 20 56.87 29 63.87 7"/><polygon class="cls-4" points="62.87 0 56.87 0 59.87 6 62.87 0"/><path class="cls-5" d="M125,36.82a58,58,0,0,1-77.13,80.53c-1.28-.67-3-.35-5-.35,0-1-1-3-1.11-4.09-1.54-1.12-3.2-2.31-4.82-3.58-1.06-.34-3.06-.34-5.06-1.34,0-1,0-1,.83-2.29-.65-.63-1.26-1.27-1.82-1.92a52.14,52.14,0,0,0,4.46,2.82c.53.3,2.93-.94,3.54-.61a12.57,12.57,0,0,0,.24,2.65C49.77,114,69.43,120.9,90,113c.83-2,1.83-3,2.83-5,2,1,3,1,5.32,1q2.34-1.37,4.68-3C137.87,81,125,36.82,125,36.82Z"/><path class="cls-3" d="M141.87,28c7,9.8-23.23,34.58-53,51-29,16-79,26-86,12"/><circle class="cls-6" cx="51.37" cy="93.5" r="6.5"/></svg>
